<svg xmlns="http://www.w3.org/2000/svg" viewBox="0 0 579.67 308.5"><defs><style>.cls-1{fill:#8c8c8c;}.cls-2{fill:#caa48b;}.cls-3{fill:#c4d2dd;}.cls-4{fill:#ddbea6;}.cls-5{fill:#e9d5bb;}.cls-6{fill:#d2dfe9;}.cls-7{fill:#fff;}.cls-8{fill:#7f5f40;}.cls-9{fill:#6b4425;}.cls-10{fill:#434c6d;}.cls-11{fill:#ece8d8;}.cls-12{fill:#c9b693;}.cls-13{fill:#ebb916;}.cls-14{fill:#f2f2f2;}.cls-15{fill:#e5e5e5;}.cls-16{fill:#666;}.cls-17{fill:#f7d04a;}.cls-18{fill:#f3b41b;}.cls-19{fill:#eb6836;}.cls-20{fill:#62c9cc;}.cls-21{fill:#ef9d3c;}.cls-22{fill:#50a9a9;}.cls-23{fill:gray;}.cls-24{fill:#ff757c;}.cls-25{fill:#0e7886;}.cls-26{fill:#15bdb1;}.cls-27{fill:#fbb429;}.cls-28{fill:#c8cacc;}.cls-29{fill:#31c0ff;}.cls-30{fill:#65b3ad;}</style></defs><title>metodo</title><g id="Layer_2" data-name="Layer 2"><rect class="cls-1" x="147.23" y="254.61" width="136.77" height="47.33" rx="3.48" ry="3.48"/><rect class="cls-1" x="264.98" y="13.52" width="151" height="47.33" rx="3.48" ry="3.48"/><rect class="cls-1" x="6.79" y="13.5" width="170.67" height="47.33" rx="3.48" ry="3.48"/><rect class="cls-2" x="86.7" y="116.37" width="14.35" height="15.73"/><path class="cls-3" d="M102.79,125.74s13.64,2,15.65,4.09c1.76,1.83,5.4,19.33,6.25,23.17H93.88V126.48Z"/><path class="cls-4" d="M93.88,71.36c7,0,18,4,18,22.51,0,10.72-3.5,17.73-5,19.68-1.4,1.78-9.27,5.59-13,5.59Z"/><path class="cls-4" d="M115.32,98.3c.31-3-1.1-5.6-3.15-5.88s-4,1.9-4.27,4.86,1.1,5.59,3.16,5.88S115,101.26,115.32,98.3Z"/><path class="cls-5" d="M93.88,71.36c-7,0-18,4-18,22.51,0,10.72,3.49,17.73,5,19.68,1.4,1.78,9.27,5.59,13,5.59Z"/><path class="cls-5" d="M72.43,98.3c-.3-3,1.11-5.6,3.16-5.88s4,1.9,4.26,4.86-1.1,5.59-3.15,5.88S72.74,101.26,72.43,98.3Z"/><path class="cls-6" d="M85,125.74s-13.64,2-15.65,4.09c-1.75,1.83-5.4,19.33-6.24,23.17H93.88V126.48Z"/><polygon class="cls-7" points="93.88 126.48 86.59 123.56 84.8 125.38 88.42 133.41 93.88 126.48"/><polygon class="cls-7" points="93.88 126.48 101.16 123.56 102.95 125.38 99.33 133.41 93.88 126.48"/><path class="cls-8" d="M112.25,92.86S118.14,66,93.75,66,75.39,92.12,75.39,92.12s3.35-1.92,3.35,6.66h.62A97.35,97.35,0,0,0,80.9,87.87c8.63,0,16.25-1.1,22.66-6.41,3.64,0,4.14,4.54,4.14,8l-1.6.61s1.55,3,1.66,8.7h1.1S108.7,89.32,112.25,92.86Z"/><path class="cls-7" d="M93.88,112.14c3.24,0,5.88-1.07,5.88-2.4H88C88,111.07,90.63,112.14,93.88,112.14Z"/><path class="cls-9" d="M224.79,156.88v-1.42a1.41,1.41,0,0,0-1.42-1.42H203.45a1.42,1.42,0,0,0-1.42,1.42v1.42H182.11a2.86,2.86,0,0,0-2.85,2.85v74a2.85,2.85,0,0,0,2.85,2.84h62.6a2.84,2.84,0,0,0,2.85-2.84v-74a2.85,2.85,0,0,0-2.85-2.85Z"/><path class="cls-10" d="M223.37,165.42H203.45A1.43,1.43,0,0,1,202,164v-8.54a1.42,1.42,0,0,1,1.42-1.42h19.92a1.41,1.41,0,0,1,1.42,1.42V164a1.42,1.42,0,0,1-1.42,1.42"/><path class="cls-11" d="M224.79,162.57V164a1.42,1.42,0,0,1-1.42,1.42H203.45A1.43,1.43,0,0,1,202,164v-1.43H186.38A1.43,1.43,0,0,0,185,164v65.45a1.43,1.43,0,0,0,1.43,1.42h54.06a1.43,1.43,0,0,0,1.43-1.42V164a1.43,1.43,0,0,0-1.43-1.43Z"/><path class="cls-12" d="M213.41,209.53H192.07a1.43,1.43,0,1,1,0-2.85h21.34a1.43,1.43,0,0,1,0,2.85"/><path class="cls-12" d="M213.41,216.64H192.07a1.42,1.42,0,1,1,0-2.84h21.34a1.42,1.42,0,1,1,0,2.84"/><path class="cls-12" d="M213.41,223.76H192.07a1.43,1.43,0,1,1,0-2.85h21.34a1.43,1.43,0,0,1,0,2.85"/><path class="cls-13" d="M252.91,236.56H219.2a1.76,1.76,0,0,1-1.52-2.65L234.53,205a1.77,1.77,0,0,1,3.05,0l16.85,28.89a1.76,1.76,0,0,1-1.52,2.65"/><path class="cls-7" d="M236.18,226.6a1.43,1.43,0,0,1-1.43-1.42V213.8a1.43,1.43,0,1,1,2.85,0v11.38a1.43,1.43,0,0,1-1.42,1.42"/><path class="cls-7" d="M236.18,232.29a1.42,1.42,0,1,1,1-2.43,1.45,1.45,0,0,1,0,2,1.46,1.46,0,0,1-1,.41"/><path class="cls-12" d="M231.6,182.36h-36c-1.33,0-2.4-.63-2.4-1.42s1.07-1.42,2.4-1.42h36c1.32,0,2.4.63,2.4,1.42s-1.08,1.42-2.4,1.42"/><path class="cls-12" d="M231.6,189.28h-36c-1.33,0-2.4-.64-2.4-1.43s1.07-1.42,2.4-1.42h36c1.32,0,2.4.64,2.4,1.42s-1.08,1.43-2.4,1.43"/><path class="cls-12" d="M231.6,197.19h-36c-1.33,0-2.4-.63-2.4-1.42s1.07-1.42,2.4-1.42h36c1.32,0,2.4.63,2.4,1.42s-1.08,1.42-2.4,1.42"/><path class="cls-12" d="M236.27,173.85H190.93c-1.67,0-3-.8-3-1.79s1.35-1.79,3-1.79h45.34c1.67,0,3,.8,3,1.79s-1.35,1.79-3,1.79"/><path class="cls-14" d="M379.35,92.18,366.66,79.49a1.18,1.18,0,0,0-.84-.34H317.63a1.19,1.19,0,0,0-1.19,1.19v69.75a1.19,1.19,0,0,0,1.19,1.19h60.88a1.19,1.19,0,0,0,1.19-1.19V93A1.19,1.19,0,0,0,379.35,92.18Z"/><path class="cls-15" d="M379.69,93a1.17,1.17,0,0,0-.34-.79L366.66,79.49a1.18,1.18,0,0,0-.84-.34h-.05V91.78A1.19,1.19,0,0,0,367,93Z"/><path class="cls-15" d="M317.63,79.15a1.18,1.18,0,0,0-1.19,1.18v69.76a1.19,1.19,0,0,0,1.19,1.19h55.75L324,79.15Z"/><path class="cls-16" d="M335.54,75.34H307.32a3.57,3.57,0,0,0-3.56,3.57v38.36a3.57,3.57,0,0,0,3.56,3.57h28.22a3.57,3.57,0,0,0,3.57-3.57V78.91A3.57,3.57,0,0,0,335.54,75.34Z"/><path class="cls-17" d="M357,112.12a17.68,17.68,0,1,0,17.67,17.68A17.7,17.7,0,0,0,357,112.12Z"/><path class="cls-18" d="M360.43,144a17.67,17.67,0,0,1-14.11-28.31,17.67,17.67,0,1,0,24.74,24.75A17.61,17.61,0,0,1,360.43,144Z"/><path class="cls-19" d="M359.66,128.77l-1.84-.06v-6.6H362a1.19,1.19,0,0,0,0-2.38h-4.2v-1.35a1.19,1.19,0,0,0-2.38,0v1.35h-1.19a3.57,3.57,0,0,0-3.57,3.57v4.12a3.57,3.57,0,0,0,3.55,3.57l1.21,0v6.47h-3.57a1.19,1.19,0,1,0,0,2.37h3.57v1.35a1.19,1.19,0,0,0,2.38,0v-1.35h1.82a3.57,3.57,0,0,0,3.57-3.56v-4A3.57,3.57,0,0,0,359.66,128.77Zm-5.37-.16h0a1.19,1.19,0,0,1-1.19-1.19V123.3a1.19,1.19,0,0,1,1.19-1.19h1.19v6.53Zm6.54,7.69a1.19,1.19,0,0,1-1.19,1.19h-1.82v-6.4l1.79.06h0a1.18,1.18,0,0,1,1.19,1.18Z"/><path class="cls-14" d="M334.12,79.15H308.75a1.18,1.18,0,0,0-1.19,1.18v6.35a1.19,1.19,0,0,0,1.19,1.19h25.37a1.2,1.2,0,0,0,1.19-1.19V80.33A1.19,1.19,0,0,0,334.12,79.15Z"/><path class="cls-20" d="M308.75,79.15a1.18,1.18,0,0,0-1.19,1.18v6.35a1.19,1.19,0,0,0,1.19,1.19h5.15l8.72-8.72Z"/><path class="cls-20" d="M334.12,79.15h-4.44L321,87.87h13.16a1.2,1.2,0,0,0,1.19-1.19V80.33A1.19,1.19,0,0,0,334.12,79.15Z"/><path class="cls-21" d="M313.82,89.29h-5.07a1.19,1.19,0,0,0-1.19,1.19v5.07a1.19,1.19,0,0,0,1.19,1.19h5.07A1.19,1.19,0,0,0,315,95.55V90.48A1.19,1.19,0,0,0,313.82,89.29Z"/><path class="cls-21" d="M323.89,89.29h-5.07a1.19,1.19,0,0,0-1.19,1.19v5.07a1.19,1.19,0,0,0,1.19,1.19h5.07a1.19,1.19,0,0,0,1.19-1.19V90.48A1.19,1.19,0,0,0,323.89,89.29Z"/><path class="cls-21" d="M313.82,99.44h-5.07a1.19,1.19,0,0,0-1.19,1.19v5.07a1.19,1.19,0,0,0,1.19,1.19h5.07A1.19,1.19,0,0,0,315,105.7v-5.07A1.19,1.19,0,0,0,313.82,99.44Z"/><path class="cls-21" d="M323.89,99.44h-5.07a1.19,1.19,0,0,0-1.19,1.19v5.07a1.19,1.19,0,0,0,1.19,1.19h5.07a1.19,1.19,0,0,0,1.19-1.19v-5.07A1.19,1.19,0,0,0,323.89,99.44Z"/><path class="cls-21" d="M313.82,109.58h-5.07a1.19,1.19,0,0,0-1.19,1.19v5.08a1.19,1.19,0,0,0,1.19,1.19h5.07a1.19,1.19,0,0,0,1.19-1.19v-5.08A1.19,1.19,0,0,0,313.82,109.58Z"/><path class="cls-21" d="M323.89,109.58h-5.07a1.19,1.19,0,0,0-1.19,1.19v5.08a1.19,1.19,0,0,0,1.19,1.19h5.07a1.19,1.19,0,0,0,1.19-1.19v-5.08A1.19,1.19,0,0,0,323.89,109.58Z"/><path class="cls-21" d="M334,89.29H329a1.18,1.18,0,0,0-1.18,1.19v5.07A1.18,1.18,0,0,0,329,96.74H334a1.19,1.19,0,0,0,1.19-1.19V90.48A1.19,1.19,0,0,0,334,89.29Z"/><path class="cls-17" d="M334.12,99.44H329a1.19,1.19,0,0,0-1.19,1.19v15.22A1.2,1.2,0,0,0,329,117h5.08a1.2,1.2,0,0,0,1.19-1.19V100.63A1.19,1.19,0,0,0,334.12,99.44Z"/><path class="cls-16" d="M347.93,89.13a1.19,1.19,0,0,1-.88-.39l-2.3-2.53a1.19,1.19,0,1,1,1.76-1.6l2.3,2.54a1.19,1.19,0,0,1-.08,1.68A1.21,1.21,0,0,1,347.93,89.13Z"/><path class="cls-20" d="M372.59,107.1,353.65,88.15a1.29,1.29,0,0,0-.61-.32l-4.48-.9a1.23,1.23,0,0,0-1.08.33,1.18,1.18,0,0,0-.32,1.07l.89,4.49a1.15,1.15,0,0,0,.33.6l18.94,19a3.58,3.58,0,0,0,2.91,1,3.81,3.81,0,0,0,2.36-1.25A3.57,3.57,0,0,0,372.59,107.1Z"/><rect class="cls-20" x="353.79" y="88.1" width="7.45" height="18.38" transform="translate(35.92 281.29) rotate(-45)"/><path class="cls-17" d="M348.56,86.93a1.2,1.2,0,0,0-1.4,1.4l.89,4.49a1.15,1.15,0,0,0,.33.6l5.27-5.27a1.29,1.29,0,0,0-.61-.32Z"/><path class="cls-22" d="M372.59,107.1l-5.94-5.95-5.27,5.27,5.94,6a3.61,3.61,0,0,0,2.86,1,3.82,3.82,0,0,0,2.41-1.24A3.57,3.57,0,0,0,372.59,107.1Z"/><path class="cls-16" d="M370.74,108.12a1.19,1.19,0,0,1-.84-2l1.83-1.83L366.14,99a1.19,1.19,0,0,1-.05-1.68,1.21,1.21,0,0,1,1.69,0l6.47,6.15a1.19,1.19,0,0,1,.37.85,1.13,1.13,0,0,1-.35.85l-2.69,2.69A1.18,1.18,0,0,1,370.74,108.12Z"/><path class="cls-23" d="M333.17,132.26h-7.93a1.19,1.19,0,1,1,0-2.38h7.93a1.19,1.19,0,0,1,0,2.38Z"/><path class="cls-23" d="M333.17,138.6h-7.93a1.19,1.19,0,0,1,0-2.38h7.93a1.19,1.19,0,0,1,0,2.38Z"/><path class="cls-24" d="M496.86,272.82a47.46,47.46,0,1,0-47.47-47.46A47.55,47.55,0,0,0,496.86,272.82Z"/><path class="cls-25" d="M496.86,201.56a42,42,0,0,1,42,42c0,1.45-.07,2.89-.21,4.31a47.48,47.48,0,0,1-83.58,0c-.14-1.42-.22-2.86-.22-4.31A42,42,0,0,1,496.86,201.56Z"/><path class="cls-26" d="M523.1,210.77a42,42,0,0,1,15.14,25.52,3.51,3.51,0,0,1-.39-.82,8.81,8.81,0,0,1-1.82.45l0,.06c-.38.55,0,.31-.66.89A20.56,20.56,0,0,1,533.1,239a15.21,15.21,0,0,1-.16,2.31c-.09.42-.56,1.55-1.12,1.47a11.69,11.69,0,0,1-1.09-2.37,19.62,19.62,0,0,1-.84-2.49c-.12-.53-.2-1.54-.33-1.89-.57.08-.55.45-1.1.06-.39-.28-.21-.45-.43-.87l-1.4-1.29c-.36-.12-1.76.08-2.35,0-1.06-.1-1.16,0-1.79-.89-1.12.06-1,.48-2.11-.46-.71-.6-.58-1.57-1.62-1,0,.88.39,1.08.78,1.48s.64.53.78.95a4,4,0,0,1,.1.46c1,.07,1.25-.41,1.8-.82.54.5,0,.59.79,1,.62.31.5.13.9.63.21.68-1.38,2.52-1.91,2.86s-.61.1-1,.4c-.53.46.07.39-.87.74s-2,1.14-3.07,1.2c-.23-.62-.45-1.26-.68-1.89-.68-2.17-.65-1.33-1.33-2.45-.33-.48-.19-.79-.41-1.22s-.37-.47-.58-.86c-.31-.62-.67-1.58-1.38-1.48-.15.48.66,2.12.86,2.52s.52.57.62,1.14c.13.79,0,.69.4,1.22.9,1.08,0,.89,1.36,2,1,.79.78,1,1.22,2.1.69.19,2.73-.72,3.08-.46.42.75-.48,1.93-.71,2.58-.75,2.16-2.07,2.13-3.08,3.79a15.06,15.06,0,0,0-1.32,2.09c-.58,1.22,1.17,4.59.12,6a20.14,20.14,0,0,0-1.89,1.5c-1,1.06,0,.88-.35,2.65-.3.41-.66.44-1,.73a8.2,8.2,0,0,1-.26,1.27c-.24.62-.28.29-.63.79a7.71,7.71,0,0,1-.53.93,3.93,3.93,0,0,1-.63.65,5.45,5.45,0,0,1-3.9.95c-.59-.5-.19-.63-.33-1.34A6,6,0,0,0,505,262l0,0a3.51,3.51,0,0,1-.33-.68c-.48-1.53-.31-2.69-1.15-4.24-1.07-2,.59-3.05.52-4.18,0-.3-.13-.49-.16-.72a6.17,6.17,0,0,0-1.16-3.35c-.91-1.07-.79-.69-.5-2.45.38-2-.48-1.49-1.69-1.55-.59-1.83-1.75-.93-2.91-.4-.72.34-1-.09-1.81,0-1.83.24-.39,1-2.84-.91-1-.81-.34-.4-.94-1.41a13.62,13.62,0,0,0-1.11-1.22c-.92-1.16.18-2.33,0-3.67-.28-2.48-.69-.32.7-3.32.73-1.59,1.83-1.6,2.11-2.31s.08-1.09.54-1.67,1-.38,1.21-1.12c.32-.92-.3-1-1-1.06-.28-.95-.28-.72-.07-1.6.12-.5,0-.73.12-1.23.27-1.24,2.39,0,3-.52a1.45,1.45,0,0,0,0-1.55c-.34-.5-.78-.44-1-.92.51-.35.14-.05.58-.14s.46-.27,1.08-.39.9-.61,1.44-1c.76-.49.4-.94,1.33-1.09,1.49-.26.52-.21.68-1.6l.66-.28c.47.61-.12.36.44.77l.49-.25c-.08-.67-.39-.54-.59-1.37-.74.12-1,.74-1.6.51s-.61-1-.58-1.73c.21-.52,1.29-.8,1.71-.93.67-.22.57-.67,1.19-1.29.81-.81.22,0,.61-1,.89,0,.47-.07,1-.34h0l.05,0c.31-.14.72-.17,1.12-.31a3.67,3.67,0,0,1,3.16.19c.83.35,3.35.36,3.54,1.42-.61.63-1.18.17-2.06.22.16.82.23.82,1,1,.12-.38-.06-.23.15-.48l.72.14c.25-.83.53-.71,1.35-.81-.14-.57-.28-.41,0-.86.84.09.16,0,.57.69.6-.07,1.17-.73,2-.82.52,0,.49.14,1.21.07s.57-.28,1.16,0c.22-.4,0-.39.53-.49.8-.14,1.5.36,2.28.46-.58-.71-1.13-.57-.41-1.75.9-.18,1-.05,1.37.62a3.52,3.52,0,0,0,.42-.31Zm-45.23,58.1h0c-1.4-.62-2.77-1.29-4.09-2,0-.06,0-.12,0-.19-.2-1.19.31-1.32-.25-3.31-.37-1.32-.22-4.44-.62-6a2.48,2.48,0,0,0-.23-.64c-.36-.6-1.25-.88-2-1.37,0,0-.07,0-.08,0-1-.69-1.91-3.39-2.69-4.41-.36-.48-.59-.27-.76-1s.1-.58.33-1.16c-1.2-2.2,1.54-2.17,1-4.81a2.89,2.89,0,0,0-.77-1.37c-.56.24-.29.38-.59.86l-1.36-.78c-1.38-1.33-.64-.37-1-1.24-.83-1.83-1.63-.8-2.62-1.71-.45-.38-.53-1-1.27-.86-1.12.15-.5.32-1.65-.22a11.1,11.1,0,0,1-2.69-1.62c0-1,.32-1-.29-1.92a3.19,3.19,0,0,0-.35-.47,42,42,0,0,1,12.71-22,4.64,4.64,0,0,0,1.62,0c.17-.32.28-.61.59-.72a1.09,1.09,0,0,1,.47-.05c0,.16.07.33.11.49,0,0,0,.12,0,.09s0,.07,0,.1c.85-.49.14-.51.59-1.4-.71-.14-.61-.05-1.06-.51a2.48,2.48,0,0,1,1.88-.59c0,.43-.24.42-.08.79.49-.3.82-1.11,1.6-1,.15.11.33.2.49.3-.41.38-1,.4-1.53.62-.23,2.33.74.37.41,2a1.8,1.8,0,0,0,1.36-.9c-.21-.28-.52-.28-.7-.61a1.55,1.55,0,0,1,.84-1,2.25,2.25,0,0,1,1-.2c4.27,0,2.24.22,3.56.83.3.13.82.19,1,.45.27.41,0,.8.44,1.12s.43,0,.93.61a.93.93,0,0,1-.89.74c-.72,0-.29-.49-1.07-.41,0,.73.74,1,.06,1.41s-.21-.13-.66.12l-.06,0a.18.18,0,0,0-.07.08l-.22.23c-1.07-.29-.87-.16-1.52-.87a.63.63,0,0,0-.71-.3c-.27,0-.62.13-.87-.11.52-.66.78,0,1.55-.41a9.36,9.36,0,0,0,1.11-.87c-.23-.52,0-.09-.36-.42-.75-.77-1-.57-2-.57a7.14,7.14,0,0,1-1.36,1.53,1.25,1.25,0,0,1-1.18,0c.23.92.82.21.87,1.33-.39-.07-.59-.27-1-.13-.87.33-.1.29,0,.47,0,0,.4.05,0,.2s-.07-.09-.93-.59l.36-.67a18.62,18.62,0,0,0-2.39,1,10.56,10.56,0,0,0-2.33,1.48c0,.8.14.26.22,1.22,1.25.08.85.45,2.1.81a7.86,7.86,0,0,0,.93.19c0,.61-.54,1.06-.17,1.69.88.61.9-.59,1.12-1.35,3-.62,1.53-1.49,2.3-3.12a3.32,3.32,0,0,1,.51-.78c.23,0,1.16.11,1.36.15.67.12.31.28,1,.6,0,.59-.31,1.34.56,1.2.65-.12.51-.64,1.31-.76a7.25,7.25,0,0,1,.43,2.24c1.94.75,1.08,1.36.7,2.77l.76.34c0,.41,0,.81,0,1.21,0,0-2.08-.45-2.21-.49.31-.88.87-.89,1.24-1.8-.73.13-.68.36-1.2.52a8.23,8.23,0,0,1-1.33.11c-.18.58,0-.51,0,.23,0,.28.16,0,0,.31-.67-.31-.44-1-1.69-.36.28.13.56.25.86.36,0,.83-.11.21-.28.76-.43,1.41,1.17.54,1.58.46-.1.75-.56.75-1.21.95s-.92.51-1.49.64c0-.89-.13-.15.25-.76a5,5,0,0,0-1.52.54l-.05,0c-.69.28-.79.32-.87,1.21a4,4,0,0,0-1.7.82l-1.24,1.18s-.06.07-.09.09c.15,1.11,0,1.13-.67,1.56a6.46,6.46,0,0,0-1.28.82c-1.68,1.51-.87.8-.78,3.4l-1-.34c-.25-1.73.09-1.16-1.29-1.55s-1.29.3-1.91.43-1-.63-2,0c-.55.37-1.07.62-1.21,1.29a8.25,8.25,0,0,0-.47,2.29c.1,2.43,2.3,2.57,2.87,1.44.37-.76.28-1.17,1.5-1a2.91,2.91,0,0,1-.23,1.61c-.1.29-.4.82-.25,1.22.87.36.9-.31,2.06.38.08,1.15-.53,2.44.36,3.11.68.5.73.05,1.33-.06s.55.31,1.17.4c.35-.43.2-.16.43-.69.41-.91.51-.48,1.47-1l.27-.17c.1.22.23.44.33.65.7-.82.78,0,1.59.21a3.26,3.26,0,0,0,.78.13c.59,0,.65-.28,1.45,0l.33.11s0,0,0,0l.07.06a2.94,2.94,0,0,1,.25.46c.55.53,1.11,1,1.64,1.57,1.06.42,1.06-.37,2.28.81.51.48.28.47.56,1.1,0,.09.12.19.17.31.11.29.23.57.35.85.56.72,1.31.27,2.08,1,.44.43.1.3,1.08.47,1.52.25.93.11,2.09,1,.44.32.55.13,1,.41a2,2,0,0,1-.06,2.4c-1.49,2.17-1,1.82-1.05,3.54-.05,1-.33,3-1.26,3.28-3.38.95-1.41,1.61-2.3,3.28-.25.47-.44.59-.6,1-.68,1.57-.21,2.1-2.2,1.74a3.66,3.66,0,0,0,.26.41c.59.92.69,1.61-.53,1.83-1,.19-.57,0-.67,1.12-.39.16-.56,0-.82.26l.1.18ZM469,212.13h0c.26,0,.26-.15.94-.32a.58.58,0,0,0-.15-.31l0,0-.77.67ZM505,224.62h0l0,0a2.65,2.65,0,0,1-.26-.21c-.6-.52-.72-1-1.38-.88a1,1,0,0,0,.3.84c.91,1.14.63.76,1.34,1.17l0,0a7.26,7.26,0,0,1,.63.43c-.91.8-.06.89-.63,1.16h0l-.14.07c-.19-.48.23-.25-.26-.94a2.07,2.07,0,0,0-.94-.66c-1.05-.49-.91-.88-1.56-1.53-.73,0-.56.25-1.08.51s-.52-.05-1.25,0c-.59,1,.26.17-.82,1-1.29,1-.23,2.05-2.3,2.36a1.12,1.12,0,0,0-.35.06c-.39.14-.16,0-.39.24.18.41-.06.35.64.44,1.27.18,1.44-.61,2.36-.8a30.25,30.25,0,0,1,3.53-.17c.61.69.1,1.18.1,1.76.68.36,1.63.44,2,.81s.23.35.45.43h0l.41.14a2.94,2.94,0,0,0,1.09.33c.52-1.75,0-1.57,2.51-.76s1.45.07,2.57.19c.55.06.4.23,1.17.13.15-.3,1.24-3-.18-2.69-.41.11-.13.26-.72.11s0-.28-.71-.19-1.48.69-2-1.34c-.2-.74-.56-1.37-1.4-.26.22.37.37.41.61.77a6,6,0,0,1-.38.47c-.45.45.19.23-.55.33-.4-.3-.32-.69-.71-1.23-.69-1-.24-.54-.59-1.49a8.14,8.14,0,0,0-1.11-.66Zm14.37,29h0c-.6.3-.68,1-1.12,1.38s-1.13.24-1.32,1.06c-.24,1,.4.71-.31,2a2.4,2.4,0,0,0,.12,2.1c1.17,1.13,1.81-1.72,2.07-2.62.21-.63.4-1.35.61-1.95A1.88,1.88,0,0,0,519.32,253.61Zm-1.94-30.05h0A3.6,3.6,0,0,0,518.8,226c-.06.62-.21.46-.2,1.33a2.06,2.06,0,0,0,2,.53c.12-1.06-.22-1-.54-1.72a.91.91,0,0,1,.23-.22c.24-.32.12.13.24-.42-.63-.2-1.65-.85-1.73-1.7.31-.25.21-.1.44-.25.5-.32.12.17.42-.37-.26-.5-.54-.59-1.16-.34a9.25,9.25,0,0,0-1.13.73Zm-5.5.35h0c-.42-.58-.39-.87-1.2-.9a4.16,4.16,0,0,0-.87,1.39c-.27.8-.08.25-.06,1.11a.41.41,0,0,0,0,.11c0,.52-.13-.1-.05.38.63-.13.15-.12.62-.27a7.16,7.16,0,0,1,2.19-.46c.93.21,1.71.94,2.76.21-.06-.94-1.19-1.29-2-1.7.05-.86.27-.18.22-1a1.25,1.25,0,0,0-.69,0c-.6.27-.27.34-.27.44,0,.46.61-.1,0,.48a1.2,1.2,0,0,1-.67.17Zm-15.71-6.53h0c0,1.51.5,1,1,1.75-.22.63-.27.14-.52.79s.05.06-.09,1a13,13,0,0,0,1.47-.17c.73-.06.72-.12,1-.87-.4-.49-.8-1-1.22-1.48-.53-.8,0-.25-.16-.92-.12-.24-.23-.47-.34-.71A2,2,0,0,0,496.17,217.38Z"/><path class="cls-27" d="M522.75,214.71l-.41-.4-1.67-1.68-.41-.41c-1.32.51-3,2.67-3.63,4l.2.21,1.68,1.67.2.21c1.37-.66,3.54-2.31,4-3.64Z"/><path class="cls-7" d="M522.75,214.71l-.41-.4-1.67-1.68-.41-.41a3.42,3.42,0,0,0-1,.59l2.86,2.86a3.84,3.84,0,0,0,.58-1Z"/><path class="cls-27" d="M525.56,222.69l-.41-.41-1.67-1.68-.41-.4c-1.32.5-3,2.67-3.63,4l.2.2,1.68,1.68.2.2c1.37-.65,3.54-2.31,4-3.63Z"/><path class="cls-7" d="M525.56,222.69l-.41-.41-1.67-1.68-.41-.4a3.37,3.37,0,0,0-1,.58l2.85,2.86a3.57,3.57,0,0,0,.59-.95Z"/><path class="cls-27" d="M502.67,194.63l.4.41,1.68,1.67.41.41c-.5,1.32-2.67,3-4,3.63l-.21-.2-1.67-1.68-.21-.2c.66-1.37,2.31-3.54,3.64-4Z"/><path class="cls-7" d="M502.67,194.63l.4.41,1.68,1.67.41.41a3.42,3.42,0,0,1-.59.95l-2.86-2.86A3.84,3.84,0,0,1,502.67,194.63Z"/><path class="cls-27" d="M494.69,191.82l.41.41,1.68,1.68.4.4c-.5,1.33-2.67,3-4,3.64l-.2-.21-1.68-1.67-.2-.21c.65-1.37,2.31-3.54,3.63-4Z"/><path class="cls-7" d="M494.69,191.82l.41.41,1.68,1.68.4.4a3.56,3.56,0,0,1-.58,1l-2.86-2.86A3.74,3.74,0,0,1,494.69,191.82Z"/><path class="cls-7" d="M488.74,229.62l4.92,7,1.57-1.9-2.79-7.35c.35-.31-.3.29,1.13-1s7.75-7.1,13.47-11.75l16.47,23.28,1.5-1.5-9.1-29c3.72-3.06,6.6-5.51,7.38-6.4,2.37-2.71,4.51-6.32,2.82-9.71-3.39-1.69-7,.46-9.71,2.83-.89.77-3.33,3.65-6.4,7.37l-29-9.1-1.5,1.5,23.28,16.47c-4.65,5.72-10.45,12-11.75,13.47a13.14,13.14,0,0,0-1,1.13l-7.36-2.78-1.9,1.56,7,4.92c-.76,1.31-.33,1.74,1,1Z"/><path class="cls-28" d="M488.74,229.62l4.92,7,.38-.46-4.77-6.9-.53.36Z"/><path class="cls-28" d="M481.22,223.35l-.46.37,7,4.92.36-.52-6.9-4.77Z"/><path class="cls-28" d="M507,214.62l16.47,23.28.58-.58L508,213.83Z"/><path class="cls-28" d="M480.06,193.29l-.58.58,23.28,16.47.79-1-23.5-16.08Z"/><path class="cls-26" d="M524.69,192.69a2.75,2.75,0,0,0-1.18-.71l-.27.76a4.17,4.17,0,0,1,.79.61,4.52,4.52,0,0,1,.61.79l.76-.27a2.81,2.81,0,0,0-.71-1.18Zm-1.79-.84h0a4.67,4.67,0,0,0-2.2.32,4.29,4.29,0,0,1,2,.29Zm2,2.85h0a4.43,4.43,0,0,1,.3,2,4.79,4.79,0,0,0,.31-2.2Z"/><path class="cls-7" d="M483.67,234.18h0l.1-.1.1-.09.1-.1.1-.1.1-.09.1-.1.1-.1.1-.1.11-.1.1-.09.1-.1.1-.1.11-.1.1-.11.11-.1.1-.1.11-.1.1-.1.11-.1.1-.11.11-.1.11-.11.11-.1.1-.1.11-.11.11-.11.11-.1.11-.11.11-.11.11-.11-.61-.62-.11.11-.11.11-.11.1-.11.11-.11.1-.11.11-.1.1-.11.11-.11.1-.1.1-.11.11-.1.1-.11.1-.1.1-.11.1-.1.11-.11.1-.1.1-.1.1-.11.09-.1.1-.1.1-.1.1-.1.1-.1.09-.11.1-.1.1-.09.09-.1.1-.1.1h0l.61.63Zm49-.36h0l-.11.27-.1.27-.1.26-.11.26-.1.26-.11.25-.1.24-.11.25-.1.24-.11.23-.1.24-.11.22-.1.23-.11.22h0l.78.38h0l.11-.23.11-.23.1-.23.11-.24.11-.24.11-.24.1-.25.11-.26.11-.25.1-.26.11-.26.1-.27.11-.27.1-.28-.81-.31Zm-2.69,5.73h0l-.05.09-.11.18-.11.17-.11.17-.1.17-.11.16-.11.16-.11.16-.1.15-.11.15-.11.15-.11.14-.11.15-.11.13-.1.14-.11.13-.11.13-.11.13-.11.13-.11.12-.11.12-.11.11-.11.12-.11.11,0,0,.62.62,0,0,.12-.12.12-.13.11-.12.12-.13.11-.13.12-.13.11-.13.12-.14.11-.14.12-.15.11-.14.12-.15.11-.15.11-.16.12-.16.11-.16.11-.16.11-.17.12-.17.11-.17.11-.18.11-.18.11-.18.06-.09-.75-.45Zm-4.53,5h0l-.11.07-.11.06-.11.07-.11.06-.12.06-.11.06-.11.05-.12.06-.11.05-.11,0-.12.05-.11,0-.11,0-.12,0-.11,0-.12,0-.11,0-.12,0-.11,0-.12,0-.11,0-.12,0-.12,0-.11,0-.12,0-.12,0-.12,0-.11,0-.12,0-.12,0-.12,0-.12,0-.12,0h-.12l.11.87h0l.13,0,.13,0,.13,0,.12,0,.13,0,.13,0,.12,0,.13,0,.13,0,.12,0,.13,0,.13,0,.12,0,.13,0,.13,0,.12,0,.13,0,.12,0,.13,0,.12-.05.13,0,.12-.05.12,0,.13-.06.12-.05.13-.06.12-.06.12-.06.13-.06.12-.07.12-.07.12-.07.13-.07.12-.07h0l-.46-.75Zm-6.49,1.5h-4.36l0,.88h4.38V246Zm-7-.08h-.25l-.15,0h-.28l-.15,0-.14,0-.14,0h-.15l-.14,0-.15,0-.14,0-.15,0-.15,0-.14,0-.15,0-.15,0-.14,0-.15,0-.15,0-.15,0-.15,0-.14,0-.15,0-.15,0-.15.05-.15,0-.15,0-.15.05-.15.06h0l.29.83h0l.14,0,.14,0,.14,0,.14,0,.14,0,.15,0,.14,0,.14,0,.14,0,.14,0,.14,0,.14,0,.14,0,.13,0,.14,0,.14,0,.14,0,.14,0,.14,0,.14,0,.14,0,.13,0H511l.14,0,.14,0h.27l.14,0H512l-.07-.87Zm-6.84,2h0l-.12.07-.15.09-.16.09-.15.09-.16.1-.15.1-.16.1-.15.1-.16.11-.15.1-.16.11-.16.12-.15.11-.16.12-.16.12-.15.13-.16.13-.16.12-.16.14-.15.13-.16.14-.16.14-.16.14,0,0,.6.64,0,0,.15-.14.16-.13.15-.14.15-.13.15-.12.15-.13.15-.12.15-.12.15-.11.15-.12.15-.11.15-.1.15-.11.15-.1.15-.1.15-.1.14-.1.15-.09.15-.09.15-.09.14-.09.15-.08.12-.07-.44-.76Zm-5.46,4.54h0l0,0-.16.18-.15.18-.16.18-.16.18-.15.17-.16.17-.15.17-.16.16-.15.17-.16.16-.15.16-.16.16-.15.16-.15.15-.16.15-.15.15-.15.15-.15.15-.15.14,0,0,.59.64,0,0,.16-.15.16-.15.15-.15.16-.15.15-.16.16-.16.16-.16.16-.16.15-.16.16-.17.16-.17.16-.17.16-.17.15-.17.16-.18.16-.18.16-.18.16-.18.16-.18v0l-.65-.57Zm-4.94,4.83h0l-.11.08-.14.11-.15.12-.14.11-.15.11-.14.1-.15.11-.14.1-.15.1-.14.1-.14.1-.14.09-.15.1-.14.09-.14.09-.14.09-.14.09-.14.08-.14.08-.14.09-.14.07-.14.08-.14.08-.13.07-.14.08-.07,0,.4.78.08,0,.14-.08.15-.07.14-.08.14-.09.15-.08.14-.08.15-.09.14-.09.15-.09.15-.09.14-.09.15-.1.15-.1.15-.1.15-.1.14-.1.15-.11.15-.1.15-.11.15-.11.15-.11.15-.12.15-.11.16-.12.1-.09-.54-.68Zm-5.92,3.35h0l-.11,0-.13,0-.13,0-.13,0-.13,0-.12,0-.13,0-.12,0-.13,0-.12,0-.13,0-.12,0-.13,0-.12,0-.12,0-.12,0-.12,0h-.12l-.12,0-.12,0H486l-.12,0h-1.31l0,.87h1.3l.13,0h.26l.12,0h.13l.13,0,.13,0,.13,0,.13,0,.13,0,.14,0,.13,0,.13,0,.13,0,.14,0,.13,0,.13,0,.14,0,.13,0,.14,0,.13,0,.14,0,.14-.05.11,0-.27-.84Zm-6.62.28h0l-.05,0-.1,0-.1,0-.1,0-.1,0-.1,0-.09,0-.1,0-.1,0-.1,0-.09,0-.1,0-.09,0-.1,0-.09,0-.09,0-.1-.05-.09,0-.09,0-.09,0-.09-.05-.09-.05L480,260l-.09,0-.09-.05-.09-.05-.09-.05-.08-.06-.09,0-.09-.05-.08-.06-.09-.06-.08-.05-.08-.06-.09-.06-.08-.06-.08-.06-.08-.06-.08-.06-.08-.06-.08-.07,0,0-.55.68,0,0,.09.06.08.07.09.07.09.06.09.07.09.06.09.07.09.06.09.06.09.06.09.06.09.06.1.06.09.05.09.06.1.06.1.05.09.06.1.05.1,0,.1.05.1.05.1.05.1.05.1,0,.1,0,.1.05.1,0,.11.05.1,0,.1,0,.11,0,.1,0,.11,0,.11,0,.1,0,.11,0,.11,0,.11,0,.11,0h0l.25-.84Zm-5.49-3.72h0l0,0-.06-.08-.06-.08-.07-.08-.06-.08-.06-.08-.06-.08-.06-.08-.06-.08-.06-.09,0-.08-.06-.08-.06-.08-.05-.09-.06-.08-.05-.09-.06-.08-.05-.09,0-.08-.05-.09-.05-.08-.05-.09-.05-.09,0-.08-.05-.09-.05-.09-.05-.09,0-.09-.05-.08,0-.09-.05-.09,0-.09,0-.09-.05-.09,0-.09,0-.09,0-.09,0-.09,0-.09,0-.09,0-.09,0-.09,0-.08-.81.32,0,.08,0,.1,0,.09,0,.1,0,.1,0,.09,0,.1,0,.1,0,.09,0,.1,0,.09.05.1.05.09,0,.1.05.09.05.09.05.1.05.09,0,.09.06.09.05.1.05.09.06.09.05.09.06.09,0,.09.06.09.06.09.06.09.06.09.06.09.06.09.06.09.06.08.06.09.07.09.06.08.07.09.06.09.07.08.06.09.07.08,0,0,.68-.55Zm-2.82-6.08h0a10.64,10.64,0,0,1,0-4.17l-.85-.19a11.28,11.28,0,0,0,0,4.52l.86-.16Zm.84-6.54h0A17.82,17.82,0,0,1,477,241l-.68-.55a18,18,0,0,0-2.46,3.72Zm4.08-5.49h0l.08-.08.07-.08.08-.08.07-.08.08-.08.07-.08.08-.08.08-.08.08-.08.08-.08.07-.08.08-.08.08-.08.08-.09.08-.08.09-.08.08-.08.08-.09.08-.08.09-.08.08-.08.08-.09.09-.08.08-.09.09-.08.08-.08.09-.09.09-.09.08-.08.09-.09.09-.08.09-.09.09-.09.09-.08.09-.09.09-.09.09-.09h0l-.61-.63h0l-.09.09-.09.08-.09.09-.09.09-.09.09-.09.08-.09.09-.09.09-.09.08-.08.09-.09.08-.09.09-.08.08-.09.09-.08.09-.09.08-.08.08-.09.09-.08.08-.08.08-.08.09-.09.08-.08.08-.08.09-.08.08-.08.08-.08.08-.08.08-.08.09-.08.08-.08.08-.07.08-.08.08-.08.08-.07.08-.08.08-.08.08h0l.64.6Z"/><rect class="cls-29" x="8.54" y="11" width="170.67" height="47.33" rx="3.48" ry="3.48"/><path class="cls-7" d="M31.59,31V19.73h7.25v1.74h-5.2v2.79h4.63V26H33.64v3.3h5.59V31Z"/><path class="cls-7" d="M44,31.18a5.3,5.3,0,0,1-1.46-.2,2.32,2.32,0,0,1-.92-.51,1.77,1.77,0,0,1-.48-.83A4.31,4.31,0,0,1,41,28.51V18.7l2-.32v9.75a2.52,2.52,0,0,0,.06.6,1,1,0,0,0,.2.42,1,1,0,0,0,.4.26,3,3,0,0,0,.65.14Z"/><path class="cls-7" d="M49.19,26.76a5,5,0,0,1,.3-1.76,4,4,0,0,1,.84-1.43,3.7,3.7,0,0,1,1.32-.94,4.32,4.32,0,0,1,1.76-.35,6,6,0,0,1,2.28.44l-.42,1.62a5,5,0,0,0-.77-.25,4.55,4.55,0,0,0-.92-.1,2.16,2.16,0,0,0-1.76.73,3,3,0,0,0-.61,2,3.2,3.2,0,0,0,.57,2,2.27,2.27,0,0,0,1.93.75,5.54,5.54,0,0,0,1-.1,5.09,5.09,0,0,0,.85-.25l.27,1.63a4,4,0,0,1-1,.3,7.65,7.65,0,0,1-1.36.13,5,5,0,0,1-1.9-.34A3.59,3.59,0,0,1,50.24,30a3.73,3.73,0,0,1-.78-1.41A5.74,5.74,0,0,1,49.19,26.76Z"/><path class="cls-7" d="M60.32,31.18a5.3,5.3,0,0,1-1.46-.2,2.26,2.26,0,0,1-.92-.51,1.77,1.77,0,0,1-.48-.83,4.31,4.31,0,0,1-.14-1.13V18.7l2-.32v9.75a2.52,2.52,0,0,0,.06.6.92.92,0,0,0,.2.42,1,1,0,0,0,.4.26,2.93,2.93,0,0,0,.64.14Z"/><path class="cls-7" d="M64.39,20a1.12,1.12,0,0,1-.36.88,1.21,1.21,0,0,1-.85.33,1.23,1.23,0,0,1-.86-.33A1.12,1.12,0,0,1,62,20a1.14,1.14,0,0,1,.36-.89,1.23,1.23,0,0,1,.86-.33,1.21,1.21,0,0,1,.85.33A1.14,1.14,0,0,1,64.39,20Zm-.21,11h-2V22.5h2Z"/><path class="cls-7" d="M66.21,26.8a5.27,5.27,0,0,1,.34-2,4.05,4.05,0,0,1,.89-1.4,3.51,3.51,0,0,1,1.27-.85,3.88,3.88,0,0,1,1.46-.29,3.53,3.53,0,0,1,2.75,1.1,4.73,4.73,0,0,1,1,3.25c0,.11,0,.23,0,.37s0,.26,0,.37H68.25A2.2,2.2,0,0,0,69,29a2.73,2.73,0,0,0,1.87.57,6.61,6.61,0,0,0,1.31-.13,5.45,5.45,0,0,0,.94-.28l.26,1.61a2.7,2.7,0,0,1-.45.17c-.19.06-.41.12-.65.17l-.79.12a8.14,8.14,0,0,1-.87.05,5.27,5.27,0,0,1-2-.34A3.62,3.62,0,0,1,67.27,30a3.8,3.8,0,0,1-.8-1.4A5.75,5.75,0,0,1,66.21,26.8Zm5.72-.88a2.83,2.83,0,0,0-.11-.78,1.91,1.91,0,0,0-.34-.63,1.54,1.54,0,0,0-.54-.43,1.73,1.73,0,0,0-.75-.15,1.81,1.81,0,0,0-.8.17,1.71,1.71,0,0,0-.58.45,2,2,0,0,0-.37.63,3.78,3.78,0,0,0-.17.74Z"/><path class="cls-7" d="M76,22.77a13.23,13.23,0,0,1,1.48-.31,13.83,13.83,0,0,1,2-.14,4.67,4.67,0,0,1,1.74.28,2.76,2.76,0,0,1,1.12.8,3,3,0,0,1,.58,1.24,6.57,6.57,0,0,1,.17,1.59V31h-2V26.54A6.47,6.47,0,0,0,81,25.37a2,2,0,0,0-.29-.78,1.19,1.19,0,0,0-.55-.44,2.42,2.42,0,0,0-.86-.14,7.11,7.11,0,0,0-.78,0l-.6.08V31H76Z"/><path class="cls-7" d="M85.42,20.25l2-.33V22.5h3v1.64h-3v3.47a2.54,2.54,0,0,0,.32,1.47,1.31,1.31,0,0,0,1.11.44,3.38,3.38,0,0,0,1-.12,4.33,4.33,0,0,0,.66-.21l.33,1.56a8.27,8.27,0,0,1-.9.31,5,5,0,0,1-1.3.15A4.14,4.14,0,0,1,87,31a2.29,2.29,0,0,1-1-.71,2.86,2.86,0,0,1-.51-1.13,6.83,6.83,0,0,1-.14-1.5Z"/><path class="cls-7" d="M91.7,26.8a5.27,5.27,0,0,1,.34-2,4,4,0,0,1,.88-1.4,3.69,3.69,0,0,1,1.27-.85,4,4,0,0,1,1.47-.29,3.49,3.49,0,0,1,2.74,1.1,4.68,4.68,0,0,1,1,3.25c0,.11,0,.23,0,.37s0,.26,0,.37H93.74A2.2,2.2,0,0,0,94.46,29a2.73,2.73,0,0,0,1.87.57,6.61,6.61,0,0,0,1.31-.13,5.45,5.45,0,0,0,.94-.28l.26,1.61a2.7,2.7,0,0,1-.45.17c-.19.06-.41.12-.65.17l-.79.12a8.3,8.3,0,0,1-.87.05,5.23,5.23,0,0,1-2-.34A3.62,3.62,0,0,1,92.76,30a3.8,3.8,0,0,1-.8-1.4A5.75,5.75,0,0,1,91.7,26.8Zm5.72-.88a2.5,2.5,0,0,0-.12-.78,1.73,1.73,0,0,0-.33-.63,1.63,1.63,0,0,0-.54-.43,1.73,1.73,0,0,0-.75-.15,1.81,1.81,0,0,0-.8.17,1.71,1.71,0,0,0-.58.45,2,2,0,0,0-.37.63,4.7,4.7,0,0,0-.18.74Z"/><path class="cls-7" d="M108.23,31.18a5.22,5.22,0,0,1-1.45-.2,2.3,2.3,0,0,1-.93-.51,2,2,0,0,1-.48-.83,4.33,4.33,0,0,1-.13-1.13V18.7l2-.32v9.75a3.28,3.28,0,0,0,.05.6.93.93,0,0,0,.21.42.9.9,0,0,0,.4.26,2.8,2.8,0,0,0,.64.14Z"/><path class="cls-7" d="M113.07,31.18a5.3,5.3,0,0,1-1.46-.2,2.32,2.32,0,0,1-.92-.51,1.77,1.77,0,0,1-.48-.83,4.31,4.31,0,0,1-.14-1.13V18.7l2-.32v9.75a2.52,2.52,0,0,0,.06.6.87.87,0,0,0,.6.68,3,3,0,0,0,.65.14Z"/><path class="cls-7" d="M114.47,26.8a5.48,5.48,0,0,1,.33-2,4.2,4.2,0,0,1,.89-1.4,3.59,3.59,0,0,1,1.27-.85,4,4,0,0,1,1.47-.29,3.49,3.49,0,0,1,2.74,1.1,4.68,4.68,0,0,1,1,3.25c0,.11,0,.23,0,.37s0,.26,0,.37h-5.62a2.2,2.2,0,0,0,.72,1.58,2.73,2.73,0,0,0,1.87.57,6.68,6.68,0,0,0,1.31-.13,5.3,5.3,0,0,0,.93-.28l.26,1.61a2.25,2.25,0,0,1-.44.17,6.26,6.26,0,0,1-.66.17l-.79.12a8,8,0,0,1-.86.05,5.23,5.23,0,0,1-1.95-.34,3.54,3.54,0,0,1-1.37-.93,3.66,3.66,0,0,1-.8-1.4A5.75,5.75,0,0,1,114.47,26.8Zm5.72-.88a2.5,2.5,0,0,0-.12-.78,1.7,1.7,0,0,0-.87-1.06,1.75,1.75,0,0,0-.76-.15,1.77,1.77,0,0,0-.79.17,1.71,1.71,0,0,0-.58.45,2,2,0,0,0-.37.63,3.8,3.8,0,0,0-.18.74Z"/><path class="cls-7" d="M131.28,30.15a3.85,3.85,0,0,1-1,3,4.56,4.56,0,0,1-3.16.95,9.67,9.67,0,0,1-1.53-.13,9,9,0,0,1-1.34-.35l.36-1.67a6.28,6.28,0,0,0,1.15.34,7.55,7.55,0,0,0,1.39.13,2.35,2.35,0,0,0,1.69-.49,1.93,1.93,0,0,0,.51-1.45v-.33a5.36,5.36,0,0,1-.78.3,3.65,3.65,0,0,1-1.09.14,4,4,0,0,1-1.5-.26,3,3,0,0,1-1.15-.76,3.58,3.58,0,0,1-.75-1.26,5.23,5.23,0,0,1-.27-1.75,5,5,0,0,1,.29-1.72,3.57,3.57,0,0,1,.83-1.33,3.64,3.64,0,0,1,1.32-.86,4.75,4.75,0,0,1,1.78-.31,11.69,11.69,0,0,1,1.82.14c.58.1,1.07.2,1.47.31Zm-5.49-3.61a2.58,2.58,0,0,0,.55,1.83,1.85,1.85,0,0,0,1.4.58,3.13,3.13,0,0,0,.89-.13,2.7,2.7,0,0,0,.68-.31V24.09l-.52-.09c-.21,0-.47,0-.79,0a2,2,0,0,0-1.64.71A2.88,2.88,0,0,0,125.79,26.54Z"/><path class="cls-7" d="M136.62,22.28a4.94,4.94,0,0,1,1.65.25,2.59,2.59,0,0,1,1.06.68,2.52,2.52,0,0,1,.57,1.07,5,5,0,0,1,.17,1.38v5.16l-1.37.24a14.58,14.58,0,0,1-2.08.13,6.7,6.7,0,0,1-1.4-.14,3,3,0,0,1-1.08-.48,2.12,2.12,0,0,1-.7-.84,2.93,2.93,0,0,1-.26-1.29,2.5,2.5,0,0,1,.29-1.24,2.42,2.42,0,0,1,.77-.82,3.68,3.68,0,0,1,1.13-.46,6.58,6.58,0,0,1,1.35-.13,5.38,5.38,0,0,1,.68,0,4.66,4.66,0,0,1,.77.14v-.33a2.69,2.69,0,0,0-.08-.65,1.39,1.39,0,0,0-.29-.55,1.25,1.25,0,0,0-.54-.36,2.23,2.23,0,0,0-.83-.13,8.11,8.11,0,0,0-1.26.09,5.72,5.72,0,0,0-.93.23L134,22.68a7.44,7.44,0,0,1,1.09-.27A9.28,9.28,0,0,1,136.62,22.28Zm.16,7.35a7,7,0,0,0,1.39-.1V27.35a4,4,0,0,0-.47-.1,4.58,4.58,0,0,0-1.35,0,1.91,1.91,0,0,0-.6.18,1.11,1.11,0,0,0-.43.37,1,1,0,0,0-.17.59,1,1,0,0,0,.44,1A2.28,2.28,0,0,0,136.78,29.63Z"/><path class="cls-7" d="M149.11,22.28a4.94,4.94,0,0,1,1.65.25,2.59,2.59,0,0,1,1.06.68,2.52,2.52,0,0,1,.57,1.07,5,5,0,0,1,.17,1.38v5.16l-1.37.24a14.48,14.48,0,0,1-2.08.13,6.78,6.78,0,0,1-1.4-.14,3,3,0,0,1-1.08-.48,2.21,2.21,0,0,1-.7-.84,2.94,2.94,0,0,1-.25-1.29A2.5,2.5,0,0,1,146,27.2a2.42,2.42,0,0,1,.77-.82,3.64,3.64,0,0,1,1.14-.46,6.48,6.48,0,0,1,1.34-.13,5.27,5.27,0,0,1,.68,0,4.66,4.66,0,0,1,.77.14v-.33a2.69,2.69,0,0,0-.08-.65,1.39,1.39,0,0,0-.29-.55,1.28,1.28,0,0,0-.53-.36,2.32,2.32,0,0,0-.84-.13,8.11,8.11,0,0,0-1.26.09,5.72,5.72,0,0,0-.93.23l-.24-1.59a7.44,7.44,0,0,1,1.09-.27A9.28,9.28,0,0,1,149.11,22.28Zm.17,7.35a7,7,0,0,0,1.38-.1V27.35a4,4,0,0,0-.47-.1,4.86,4.86,0,0,0-.69-.05,5.14,5.14,0,0,0-.66.05,1.91,1.91,0,0,0-.6.18,1.11,1.11,0,0,0-.43.37,1,1,0,0,0-.16.59,1,1,0,0,0,.44,1A2.26,2.26,0,0,0,149.28,29.63Z"/><path class="cls-7" d="M11.25,42.32A11.3,11.3,0,0,1,12.73,42a12.5,12.5,0,0,1,2-.15,4.65,4.65,0,0,1,1.74.29,2.74,2.74,0,0,1,1.12.79,3.16,3.16,0,0,1,.58,1.24,6.63,6.63,0,0,1,.17,1.59v4.79h-2V46.08a6.47,6.47,0,0,0-.09-1.17,2,2,0,0,0-.29-.78,1.2,1.2,0,0,0-.55-.44,2.43,2.43,0,0,0-.86-.13,7,7,0,0,0-.78,0l-.6.08v6.88h-2Z"/><path class="cls-7" d="M27.76,50.3c-.38.09-.87.2-1.48.3a12.42,12.42,0,0,1-2,.15,4.32,4.32,0,0,1-1.72-.29,2.91,2.91,0,0,1-1.11-.81,3.22,3.22,0,0,1-.59-1.25,6.55,6.55,0,0,1-.18-1.59V42h2V46.5a3.59,3.59,0,0,0,.4,2,1.55,1.55,0,0,0,1.39.58l.76,0a4.21,4.21,0,0,0,.59-.08V42h2Z"/><path class="cls-7" d="M29.8,46.34a5.38,5.38,0,0,1,.33-2A4.1,4.1,0,0,1,31,43a3.73,3.73,0,0,1,1.27-.85,3.94,3.94,0,0,1,1.46-.28,3.51,3.51,0,0,1,2.75,1.09,4.71,4.71,0,0,1,1,3.26v.36c0,.14,0,.26,0,.37H31.83a2.29,2.29,0,0,0,.73,1.59,2.77,2.77,0,0,0,1.86.56,5.87,5.87,0,0,0,1.31-.13,5.45,5.45,0,0,0,.94-.28l.26,1.61a2.61,2.61,0,0,1-.45.18,6.19,6.19,0,0,1-.65.16c-.24,0-.51.09-.79.12a8.11,8.11,0,0,1-.86.05,5.33,5.33,0,0,1-2-.33,3.74,3.74,0,0,1-1.36-.93,3.82,3.82,0,0,1-.8-1.4A5.57,5.57,0,0,1,29.8,46.34Zm5.71-.88a2.43,2.43,0,0,0-.11-.77,2,2,0,0,0-.33-.64,1.58,1.58,0,0,0-.54-.42,1.64,1.64,0,0,0-.76-.16,1.85,1.85,0,0,0-.8.17,2,2,0,0,0-.57.45,2.14,2.14,0,0,0-.37.64,3.12,3.12,0,0,0-.18.73Z"/><path class="cls-7" d="M41.7,49.14A2.52,2.52,0,0,0,42.84,49a.66.66,0,0,0,.36-.64.85.85,0,0,0-.38-.7,5.74,5.74,0,0,0-1.26-.6,9.21,9.21,0,0,1-1-.42,3.12,3.12,0,0,1-.77-.51,2.18,2.18,0,0,1-.52-.71,2.59,2.59,0,0,1-.18-1A2.21,2.21,0,0,1,40,42.5a3.73,3.73,0,0,1,2.35-.67,7.89,7.89,0,0,1,2.46.41l-.36,1.59a4.76,4.76,0,0,0-.83-.27,5.17,5.17,0,0,0-1.18-.12,2.09,2.09,0,0,0-1,.2.68.68,0,0,0-.38.63.92.92,0,0,0,.08.38.83.83,0,0,0,.25.3,2.44,2.44,0,0,0,.47.27,5.34,5.34,0,0,0,.72.29,10.87,10.87,0,0,1,1.19.51,3.35,3.35,0,0,1,.8.57,2,2,0,0,1,.47.73,3.06,3.06,0,0,1,.14,1,2.11,2.11,0,0,1-.9,1.85,4.47,4.47,0,0,1-2.58.63,6.81,6.81,0,0,1-1.81-.19,7.12,7.12,0,0,1-1-.3l.34-1.64a8.69,8.69,0,0,0,1.05.34A5.36,5.36,0,0,0,41.7,49.14Z"/><path class="cls-7" d="M46.91,39.79l2-.32V42h3v1.64h-3v3.47a2.5,2.5,0,0,0,.32,1.47,1.31,1.31,0,0,0,1.11.44,3.87,3.87,0,0,0,1-.11,5.58,5.58,0,0,0,.66-.22l.33,1.57a8.53,8.53,0,0,1-.9.3,5,5,0,0,1-1.3.15,4.14,4.14,0,0,1-1.52-.24,2.16,2.16,0,0,1-1-.71,2.82,2.82,0,0,1-.51-1.12,6.89,6.89,0,0,1-.15-1.51Z"/><path class="cls-7" d="M58.67,43.81c-.16-.05-.38-.11-.67-.17a5,5,0,0,0-1-.08,4.83,4.83,0,0,0-1.21.17v6.83h-2V42.45a10.36,10.36,0,0,1,1.43-.4,8.52,8.52,0,0,1,1.89-.19l.46,0a4.6,4.6,0,0,1,.52.06l.51.1.39.1Z"/><path class="cls-7" d="M63.22,41.83a4.85,4.85,0,0,1,1.64.24,2.65,2.65,0,0,1,1.07.69,2.48,2.48,0,0,1,.57,1.06,5.43,5.43,0,0,1,.17,1.38v5.16q-.45.11-1.38.24a14.24,14.24,0,0,1-2.07.14,6.07,6.07,0,0,1-1.4-.15,2.93,2.93,0,0,1-1.09-.47,2.34,2.34,0,0,1-.7-.85A3.06,3.06,0,0,1,59.78,48a2.46,2.46,0,0,1,.29-1.23,2.35,2.35,0,0,1,.77-.83A3.35,3.35,0,0,1,62,45.47a6.57,6.57,0,0,1,1.35-.14,5.49,5.49,0,0,1,.68,0,6.33,6.33,0,0,1,.77.14v-.33a2.37,2.37,0,0,0-.09-.65A1.33,1.33,0,0,0,64.4,44a1.41,1.41,0,0,0-.54-.37,2.25,2.25,0,0,0-.84-.13,7,7,0,0,0-1.25.1,5.84,5.84,0,0,0-.93.22l-.24-1.59A7.68,7.68,0,0,1,61.69,42,8.16,8.16,0,0,1,63.22,41.83Zm.16,7.34a8,8,0,0,0,1.39-.09V46.89l-.48-.09a3.56,3.56,0,0,0-.68,0,3.67,3.67,0,0,0-.66,0,2.21,2.21,0,0,0-.6.17,1.16,1.16,0,0,0-.16,1.93A2.26,2.26,0,0,0,63.38,49.17Z"/><path class="cls-7" d="M71.21,49.14A2.46,2.46,0,0,0,72.35,49a.66.66,0,0,0,.36-.64.85.85,0,0,0-.38-.7,5.74,5.74,0,0,0-1.26-.6,9.21,9.21,0,0,1-1-.42,3.32,3.32,0,0,1-.77-.51,2,2,0,0,1-.51-.71,2.41,2.41,0,0,1-.19-1,2.24,2.24,0,0,1,.86-1.85,3.73,3.73,0,0,1,2.35-.67,6.67,6.67,0,0,1,1.43.14,6.33,6.33,0,0,1,1,.27l-.36,1.59a4.76,4.76,0,0,0-.83-.27,5.17,5.17,0,0,0-1.18-.12,2.09,2.09,0,0,0-1,.2.68.68,0,0,0-.38.63.92.92,0,0,0,.08.38,1,1,0,0,0,.25.3,2.8,2.8,0,0,0,.47.27,5.94,5.94,0,0,0,.72.29,10.87,10.87,0,0,1,1.19.51,3.35,3.35,0,0,1,.8.57,2,2,0,0,1,.47.73,3.06,3.06,0,0,1,.14,1,2.11,2.11,0,0,1-.9,1.85,4.47,4.47,0,0,1-2.58.63,6.86,6.86,0,0,1-1.81-.19,7.12,7.12,0,0,1-1-.3l.34-1.64a8.69,8.69,0,0,0,1,.34A5.36,5.36,0,0,0,71.21,49.14Z"/><path class="cls-7" d="M82.52,39.55a1.13,1.13,0,0,1-.36.88,1.25,1.25,0,0,1-.85.32,1.27,1.27,0,0,1-.86-.32,1.13,1.13,0,0,1-.36-.88,1.16,1.16,0,0,1,.36-.9,1.23,1.23,0,0,1,.86-.32,1.2,1.2,0,0,1,.85.32A1.16,1.16,0,0,1,82.52,39.55Zm-.21,11h-2V42h2Z"/><path class="cls-7" d="M84.81,42.32A11.5,11.5,0,0,1,86.3,42a12.37,12.37,0,0,1,2-.15,4.67,4.67,0,0,1,1.75.29,2.7,2.7,0,0,1,1.11.79,3,3,0,0,1,.59,1.24,7.18,7.18,0,0,1,.17,1.59v4.79H90V46.08a6.47,6.47,0,0,0-.09-1.17,2.16,2.16,0,0,0-.29-.78,1.23,1.23,0,0,0-.56-.44,2.37,2.37,0,0,0-.85-.13,7,7,0,0,0-.78,0l-.61.08v6.88h-2Z"/><path class="cls-7" d="M96.47,49.14A2.46,2.46,0,0,0,97.61,49a.66.66,0,0,0,.36-.64.83.83,0,0,0-.38-.7,5.74,5.74,0,0,0-1.26-.6,9.21,9.21,0,0,1-1-.42,3.32,3.32,0,0,1-.77-.51,2,2,0,0,1-.51-.71,2.41,2.41,0,0,1-.19-1,2.24,2.24,0,0,1,.86-1.85,3.73,3.73,0,0,1,2.35-.67,6.67,6.67,0,0,1,1.43.14,6.33,6.33,0,0,1,1,.27l-.36,1.59a4.76,4.76,0,0,0-.83-.27,5.17,5.17,0,0,0-1.18-.12,2.09,2.09,0,0,0-1,.2.68.68,0,0,0-.38.63.92.92,0,0,0,.08.38,1,1,0,0,0,.25.3,2.8,2.8,0,0,0,.47.27,6.69,6.69,0,0,0,.72.29,10.87,10.87,0,0,1,1.19.51,3.35,3.35,0,0,1,.8.57,2,2,0,0,1,.47.73,2.8,2.8,0,0,1,.14,1,2.11,2.11,0,0,1-.9,1.85,4.47,4.47,0,0,1-2.58.63,6.86,6.86,0,0,1-1.81-.19,7.12,7.12,0,0,1-1-.3L94,48.64a8.69,8.69,0,0,0,1,.34A5.36,5.36,0,0,0,96.47,49.14Z"/><path class="cls-7" d="M101.69,39.79l2-.32V42h3v1.64h-3v3.47a2.5,2.5,0,0,0,.32,1.47,1.31,1.31,0,0,0,1.11.44,3.82,3.82,0,0,0,1-.11,5.58,5.58,0,0,0,.66-.22L107,50.3a8.53,8.53,0,0,1-.9.3,5,5,0,0,1-1.3.15,4.14,4.14,0,0,1-1.52-.24,2.21,2.21,0,0,1-1-.71,2.82,2.82,0,0,1-.51-1.12,6.93,6.93,0,0,1-.14-1.51Z"/><path class="cls-7" d="M111.43,41.83a4.85,4.85,0,0,1,1.64.24,2.65,2.65,0,0,1,1.07.69,2.71,2.71,0,0,1,.57,1.06,5.43,5.43,0,0,1,.17,1.38v5.16c-.31.07-.76.15-1.38.24a14.24,14.24,0,0,1-2.07.14,6.22,6.22,0,0,1-1.41-.15,3,3,0,0,1-1.08-.47,2.24,2.24,0,0,1-.7-.85A2.91,2.91,0,0,1,108,48a2.46,2.46,0,0,1,.28-1.23,2.38,2.38,0,0,1,.78-.83,3.26,3.26,0,0,1,1.13-.45,6.55,6.55,0,0,1,1.34-.14,5.53,5.53,0,0,1,.69,0,5.87,5.87,0,0,1,.76.14v-.33a2.36,2.36,0,0,0-.08-.65,1.33,1.33,0,0,0-.28-.54,1.41,1.41,0,0,0-.54-.37,2.25,2.25,0,0,0-.84-.13,6.88,6.88,0,0,0-1.25.1,5.84,5.84,0,0,0-.93.22l-.25-1.59a8,8,0,0,1,1.09-.26A8.34,8.34,0,0,1,111.43,41.83Zm.16,7.34a7.84,7.84,0,0,0,1.38-.09V46.89a4,4,0,0,0-.47-.09,3.62,3.62,0,0,0-.68,0,3.67,3.67,0,0,0-.66,0,2.18,2.18,0,0,0-.61.17,1.18,1.18,0,0,0-.43.37,1.24,1.24,0,0,0,.28,1.56A2.26,2.26,0,0,0,111.59,49.17Z"/><path class="cls-7" d="M120.25,50.72a5.67,5.67,0,0,1-1.45-.19,2.2,2.2,0,0,1-.92-.52,1.88,1.88,0,0,1-.49-.83,4.33,4.33,0,0,1-.13-1.13v-9.8l2-.33v9.76a3.45,3.45,0,0,0,0,.6.94.94,0,0,0,.21.41.82.82,0,0,0,.4.26,2.8,2.8,0,0,0,.64.14Z"/><path class="cls-7" d="M125,41.83a4.85,4.85,0,0,1,1.64.24,2.58,2.58,0,0,1,1.07.69,2.48,2.48,0,0,1,.57,1.06,5,5,0,0,1,.17,1.38v5.16c-.3.07-.76.15-1.37.24a14.49,14.49,0,0,1-2.08.14,6.07,6.07,0,0,1-1.4-.15,2.88,2.88,0,0,1-1.08-.47,2.15,2.15,0,0,1-.7-.85,2.9,2.9,0,0,1-.26-1.29,2.35,2.35,0,0,1,1.06-2.06,3.35,3.35,0,0,1,1.13-.45,6.57,6.57,0,0,1,1.35-.14,5.49,5.49,0,0,1,.68,0,6,6,0,0,1,.77.14v-.33a2.82,2.82,0,0,0-.08-.65,1.35,1.35,0,0,0-.29-.54,1.33,1.33,0,0,0-.54-.37,2.25,2.25,0,0,0-.84-.13,7,7,0,0,0-1.25.1,5.84,5.84,0,0,0-.93.22l-.24-1.59a7.68,7.68,0,0,1,1.09-.26A8.31,8.31,0,0,1,125,41.83Zm.16,7.34a8,8,0,0,0,1.39-.09V46.89L126,46.8a3.56,3.56,0,0,0-.68,0,3.67,3.67,0,0,0-.66,0,2.21,2.21,0,0,0-.6.17,1.11,1.11,0,0,0-.43.37,1.22,1.22,0,0,0,.27,1.56A2.28,2.28,0,0,0,125.12,49.17Z"/><path class="cls-7" d="M130.35,46.31a5.39,5.39,0,0,1,.29-1.77,4.43,4.43,0,0,1,.84-1.43,4,4,0,0,1,1.33-.94,4.32,4.32,0,0,1,1.76-.34,5.86,5.86,0,0,1,2.28.44l-.42,1.61a4,4,0,0,0-.78-.24,3.87,3.87,0,0,0-.92-.1,2.16,2.16,0,0,0-1.76.72,3.15,3.15,0,0,0-.6,2.05,3.24,3.24,0,0,0,.57,2,2.29,2.29,0,0,0,1.92.74,4.78,4.78,0,0,0,1-.1,5,5,0,0,0,.84-.24l.28,1.63a4.87,4.87,0,0,1-1,.29,6.75,6.75,0,0,1-1.36.13,5,5,0,0,1-1.89-.33,3.74,3.74,0,0,1-1.34-.93,3.86,3.86,0,0,1-.79-1.42A6,6,0,0,1,130.35,46.31Z"/><path class="cls-7" d="M140.71,39.55a1.13,1.13,0,0,1-.36.88,1.25,1.25,0,0,1-.85.32,1.27,1.27,0,0,1-.86-.32,1.13,1.13,0,0,1-.36-.88,1.16,1.16,0,0,1,.36-.9,1.23,1.23,0,0,1,.86-.32,1.2,1.2,0,0,1,.85.32A1.16,1.16,0,0,1,140.71,39.55Zm-.21,11h-2V42h2Z"/><path class="cls-7" d="M150.71,46.29a5.64,5.64,0,0,1-.29,1.84,4.18,4.18,0,0,1-.84,1.42,3.73,3.73,0,0,1-1.29.91,4.15,4.15,0,0,1-1.67.33,4.07,4.07,0,0,1-1.66-.33,3.82,3.82,0,0,1-1.29-.91,4.18,4.18,0,0,1-.84-1.42,5.38,5.38,0,0,1-.3-1.84,5.32,5.32,0,0,1,.3-1.83,4.15,4.15,0,0,1,.85-1.41,3.7,3.7,0,0,1,1.3-.9,4,4,0,0,1,1.64-.32,4,4,0,0,1,1.65.32,3.61,3.61,0,0,1,1.3.9,4.13,4.13,0,0,1,.84,1.41A5.32,5.32,0,0,1,150.71,46.29Zm-2,0a3.26,3.26,0,0,0-.55-2,1.93,1.93,0,0,0-3,0,3.26,3.26,0,0,0-.55,2,3.36,3.36,0,0,0,.55,2,1.92,1.92,0,0,0,3,0A3.36,3.36,0,0,0,148.69,46.29Z"/><path class="cls-7" d="M152.74,42.32a11.5,11.5,0,0,1,1.49-.31,12.41,12.41,0,0,1,2-.15,4.65,4.65,0,0,1,1.74.29,2.64,2.64,0,0,1,1.11.79,3,3,0,0,1,.59,1.24,7.18,7.18,0,0,1,.17,1.59v4.79h-2V46.08a6.47,6.47,0,0,0-.09-1.17,2.16,2.16,0,0,0-.29-.78,1.23,1.23,0,0,0-.56-.44,2.34,2.34,0,0,0-.85-.13,7,7,0,0,0-.78,0l-.61.08v6.88h-2Z"/><path class="cls-7" d="M161.8,46.34a5.38,5.38,0,0,1,.33-2A4.25,4.25,0,0,1,163,43a3.73,3.73,0,0,1,1.27-.85,4,4,0,0,1,1.47-.28,3.5,3.5,0,0,1,2.74,1.09,4.71,4.71,0,0,1,1,3.26c0,.11,0,.23,0,.36s0,.26,0,.37h-5.62a2.29,2.29,0,0,0,.73,1.59,2.77,2.77,0,0,0,1.86.56,6,6,0,0,0,1.32-.13,5.58,5.58,0,0,0,.93-.28l.26,1.61a2.61,2.61,0,0,1-.45.18,6.19,6.19,0,0,1-.65.16,7.79,7.79,0,0,1-.79.12,8.11,8.11,0,0,1-.86.05,5.24,5.24,0,0,1-2-.33,3.78,3.78,0,0,1-1.37-.93,3.82,3.82,0,0,1-.8-1.4A5.87,5.87,0,0,1,161.8,46.34Zm5.72-.88a2.43,2.43,0,0,0-.12-.77,1.85,1.85,0,0,0-.33-.64,1.58,1.58,0,0,0-.54-.42,1.61,1.61,0,0,0-.76-.16,1.77,1.77,0,0,0-.79.17,1.88,1.88,0,0,0-.58.45,2.14,2.14,0,0,0-.37.64,3.12,3.12,0,0,0-.18.73Z"/><path class="cls-7" d="M173.71,49.14a2.52,2.52,0,0,0,1.14-.19.67.67,0,0,0,.35-.64.83.83,0,0,0-.38-.7,5.52,5.52,0,0,0-1.26-.6,9.21,9.21,0,0,1-1-.42,3.32,3.32,0,0,1-.77-.51,2,2,0,0,1-.51-.71,2.41,2.41,0,0,1-.19-1A2.24,2.24,0,0,1,172,42.5a3.73,3.73,0,0,1,2.35-.67,6.67,6.67,0,0,1,1.43.14,6.33,6.33,0,0,1,1,.27l-.36,1.59a4.76,4.76,0,0,0-.83-.27,5.14,5.14,0,0,0-1.17-.12,2.1,2.1,0,0,0-1,.2.68.68,0,0,0-.38.63.92.92,0,0,0,.08.38,1,1,0,0,0,.25.3,2.8,2.8,0,0,0,.47.27,6.69,6.69,0,0,0,.72.29,10.09,10.09,0,0,1,1.19.51,3.35,3.35,0,0,1,.8.57,2,2,0,0,1,.47.73,2.8,2.8,0,0,1,.14,1,2.11,2.11,0,0,1-.9,1.85,4.47,4.47,0,0,1-2.58.63,6.86,6.86,0,0,1-1.81-.19,7.12,7.12,0,0,1-1-.3l.34-1.64a10,10,0,0,0,1.05.34A5.39,5.39,0,0,0,173.71,49.14Z"/><rect class="cls-29" x="266.23" y="11.61" width="151" height="47.33" rx="3.48" ry="3.48"/><path class="cls-7" d="M285.16,29.08V17.79h7.25v1.74h-5.19v2.79h4.62V24h-4.62v3.3h5.58v1.75Z"/><path class="cls-7" d="M297.57,29.24a5.22,5.22,0,0,1-1.45-.2,2.19,2.19,0,0,1-.92-.51,1.77,1.77,0,0,1-.48-.83,3.93,3.93,0,0,1-.14-1.13V16.76l2-.32v9.75a3.49,3.49,0,0,0,.05.61.94.94,0,0,0,.21.41,1,1,0,0,0,.4.26,2.93,2.93,0,0,0,.64.14Z"/><path class="cls-7" d="M302.28,20.35a5,5,0,0,1,1.65.24,2.59,2.59,0,0,1,1.06.68,2.52,2.52,0,0,1,.57,1.07,5,5,0,0,1,.17,1.38v5.16c-.3.07-.76.14-1.37.24a14.58,14.58,0,0,1-2.08.13,6.09,6.09,0,0,1-1.4-.14,3.13,3.13,0,0,1-1.08-.47,2.24,2.24,0,0,1-.7-.85,2.93,2.93,0,0,1-.26-1.29,2.5,2.5,0,0,1,.29-1.24,2.42,2.42,0,0,1,.77-.82A3.43,3.43,0,0,1,301,24a6,6,0,0,1,1.35-.14,5.38,5.38,0,0,1,.68,0,6,6,0,0,1,.77.14V23.7a2.75,2.75,0,0,0-.08-.65,1.39,1.39,0,0,0-.29-.55,1.25,1.25,0,0,0-.54-.36,2.23,2.23,0,0,0-.83-.13,8.11,8.11,0,0,0-1.26.09,7,7,0,0,0-.93.23l-.24-1.59a6.5,6.5,0,0,1,1.09-.26A8.31,8.31,0,0,1,302.28,20.35Zm.16,7.34a7,7,0,0,0,1.39-.1V25.41l-.47-.1a4.58,4.58,0,0,0-1.35,0,2.63,2.63,0,0,0-.6.18,1.11,1.11,0,0,0-.43.37,1,1,0,0,0-.17.59,1,1,0,0,0,.44,1A2.28,2.28,0,0,0,302.44,27.69Z"/><path class="cls-7" d="M315.81,24.82a5.32,5.32,0,0,1-.3,1.85,4,4,0,0,1-.86,1.41,3.76,3.76,0,0,1-1.36.9,5.08,5.08,0,0,1-1.81.31,11.12,11.12,0,0,1-1.86-.15,12.06,12.06,0,0,1-1.48-.33v-12l2-.32v4.41a4.91,4.91,0,0,1,.84-.33,4.19,4.19,0,0,1,1.1-.14,3.8,3.8,0,0,1,1.61.32,3.18,3.18,0,0,1,1.18.9,4.26,4.26,0,0,1,.72,1.41A6.09,6.09,0,0,1,315.81,24.82Zm-2,0a3.47,3.47,0,0,0-.5-2,1.77,1.77,0,0,0-1.57-.74,2.73,2.73,0,0,0-.92.15,3.58,3.58,0,0,0-.7.32v4.91l.55.09c.22,0,.49,0,.81,0a2.14,2.14,0,0,0,1.71-.74A3.13,3.13,0,0,0,313.8,24.79Z"/><path class="cls-7" d="M325.55,24.81a5.38,5.38,0,0,1-.29,1.84,4,4,0,0,1-.83,1.42,3.82,3.82,0,0,1-1.29.91,4.36,4.36,0,0,1-1.67.32,4.2,4.2,0,0,1-1.66-.32,3.82,3.82,0,0,1-1.29-.91,4.18,4.18,0,0,1-.84-1.42,5.38,5.38,0,0,1-.3-1.84,5.28,5.28,0,0,1,.3-1.83,4,4,0,0,1,.85-1.41,3.82,3.82,0,0,1,1.29-.91,4.22,4.22,0,0,1,1.65-.31,4.29,4.29,0,0,1,1.65.31,3.73,3.73,0,0,1,1.29.91,4.13,4.13,0,0,1,.84,1.41A5.28,5.28,0,0,1,325.55,24.81Zm-2,0a3.33,3.33,0,0,0-.54-2,1.76,1.76,0,0,0-1.52-.74,1.78,1.78,0,0,0-1.53.74,3.33,3.33,0,0,0-.54,2,3.37,3.37,0,0,0,.54,2,1.79,1.79,0,0,0,1.53.75,1.77,1.77,0,0,0,1.52-.75A3.37,3.37,0,0,0,323.53,24.81Z"/><path class="cls-7" d="M332.44,22.33c-.16,0-.38-.11-.67-.17a5,5,0,0,0-1-.09,3.53,3.53,0,0,0-.7.07,4.42,4.42,0,0,0-.51.11v6.83h-2V21a9.12,9.12,0,0,1,1.43-.4,8.46,8.46,0,0,1,1.89-.19l.46,0,.52.07.5.1a3.29,3.29,0,0,1,.4.1Z"/><path class="cls-7" d="M337,20.35a4.85,4.85,0,0,1,1.64.24,2.43,2.43,0,0,1,1.64,1.75,5.43,5.43,0,0,1,.17,1.38v5.16c-.3.07-.76.14-1.38.24a14.33,14.33,0,0,1-2.07.13,6.09,6.09,0,0,1-1.4-.14,3.1,3.1,0,0,1-1.09-.47,2.34,2.34,0,0,1-.7-.85,2.94,2.94,0,0,1-.25-1.29,2.5,2.5,0,0,1,.29-1.24,2.32,2.32,0,0,1,.77-.82,3.35,3.35,0,0,1,1.13-.45,5.92,5.92,0,0,1,1.34-.14,5.53,5.53,0,0,1,.69,0,5.87,5.87,0,0,1,.76.14V23.7a2.32,2.32,0,0,0-.08-.65,1.37,1.37,0,0,0-.28-.55,1.39,1.39,0,0,0-.54-.36,2.25,2.25,0,0,0-.84-.13,8.07,8.07,0,0,0-1.25.09,7,7,0,0,0-.93.23l-.24-1.59a6.26,6.26,0,0,1,1.09-.26A8.16,8.16,0,0,1,337,20.35Zm.16,7.34a6.81,6.81,0,0,0,1.38-.1V25.41l-.47-.1a4.61,4.61,0,0,0-.68,0,4.89,4.89,0,0,0-.66,0,2.63,2.63,0,0,0-.6.18,1.14,1.14,0,0,0-.44.37,1.08,1.08,0,0,0-.16.59,1,1,0,0,0,.44,1A2.26,2.26,0,0,0,337.15,27.69Z"/><path class="cls-7" d="M342.38,24.82a5.33,5.33,0,0,1,.29-1.76,4.32,4.32,0,0,1,.84-1.43,3.87,3.87,0,0,1,1.33-.94,4.32,4.32,0,0,1,1.76-.34,5.86,5.86,0,0,1,2.28.44l-.43,1.61a4.35,4.35,0,0,0-.77-.25,4.49,4.49,0,0,0-.92-.09,2.16,2.16,0,0,0-1.76.72,3.12,3.12,0,0,0-.6,2,3.25,3.25,0,0,0,.57,2,2.29,2.29,0,0,0,1.92.74,5.36,5.36,0,0,0,1-.1,4.82,4.82,0,0,0,.85-.25l.28,1.63a4.22,4.22,0,0,1-1,.3,7.56,7.56,0,0,1-1.36.13,4.81,4.81,0,0,1-1.9-.34,3.55,3.55,0,0,1-1.33-.93,3.74,3.74,0,0,1-.79-1.41A6,6,0,0,1,342.38,24.82Z"/><path class="cls-7" d="M352.74,18.07a1.15,1.15,0,0,1-.36.88,1.3,1.3,0,0,1-1.71,0,1.15,1.15,0,0,1-.36-.88,1.16,1.16,0,0,1,.36-.9,1.27,1.27,0,0,1,1.71,0A1.16,1.16,0,0,1,352.74,18.07Zm-.22,11h-2V20.56h2Z"/><path class="cls-7" d="M362.74,24.81a5.38,5.38,0,0,1-.3,1.84,4,4,0,0,1-.83,1.42,3.82,3.82,0,0,1-1.29.91,4.32,4.32,0,0,1-1.67.32A4.24,4.24,0,0,1,357,29a3.82,3.82,0,0,1-1.29-.91,4.18,4.18,0,0,1-.84-1.42,5.38,5.38,0,0,1-.3-1.84,5.28,5.28,0,0,1,.3-1.83,4,4,0,0,1,.85-1.41,3.82,3.82,0,0,1,1.29-.91,4.55,4.55,0,0,1,3.3,0,3.77,3.77,0,0,1,1.3.91,4.28,4.28,0,0,1,.83,1.41A5.06,5.06,0,0,1,362.74,24.81Zm-2,0a3.33,3.33,0,0,0-.55-2,1.93,1.93,0,0,0-3,0,3.26,3.26,0,0,0-.55,2,3.31,3.31,0,0,0,.55,2,1.92,1.92,0,0,0,3,0A3.37,3.37,0,0,0,360.72,24.81Zm0-7.74-2.66,2.58-1-.88,2.4-2.85Z"/><path class="cls-7" d="M364.77,20.83c.38-.1.88-.21,1.48-.31a13.83,13.83,0,0,1,2-.14,4.69,4.69,0,0,1,1.75.28,2.79,2.79,0,0,1,1.11.8,3.11,3.11,0,0,1,.59,1.24,7.11,7.11,0,0,1,.17,1.59v4.79h-2V24.6a6.47,6.47,0,0,0-.09-1.17,2.16,2.16,0,0,0-.29-.78,1.17,1.17,0,0,0-.56-.44,2.36,2.36,0,0,0-.85-.14,7.45,7.45,0,0,0-.79.05l-.6.08v6.88h-2Z"/><path class="cls-7" d="M385.29,28.81a11.85,11.85,0,0,1-1.47.33,11.16,11.16,0,0,1-1.87.15,5.07,5.07,0,0,1-1.8-.31,3.66,3.66,0,0,1-1.36-.89,3.86,3.86,0,0,1-.87-1.4,5.4,5.4,0,0,1-.3-1.85,6.53,6.53,0,0,1,.25-1.83,4,4,0,0,1,.75-1.41,3.26,3.26,0,0,1,1.18-.9,3.78,3.78,0,0,1,1.62-.32,4,4,0,0,1,1.09.14,5.23,5.23,0,0,1,.81.33V16.76l2-.32Zm-5.65-4a3.13,3.13,0,0,0,.62,2.05,2.11,2.11,0,0,0,1.71.74c.32,0,.58,0,.81,0l.54-.09V22.56a2.78,2.78,0,0,0-.69-.33,2.54,2.54,0,0,0-.92-.16,1.76,1.76,0,0,0-1.57.74A3.47,3.47,0,0,0,379.64,24.79Z"/><path class="cls-7" d="M387.33,24.86a5.38,5.38,0,0,1,.33-2,4,4,0,0,1,.89-1.41,3.59,3.59,0,0,1,1.27-.85,4,4,0,0,1,1.47-.28A3.5,3.5,0,0,1,394,21.44a4.68,4.68,0,0,1,1,3.25c0,.11,0,.24,0,.37s0,.26,0,.37h-5.62a2.25,2.25,0,0,0,.73,1.58,2.72,2.72,0,0,0,1.86.57,6.71,6.71,0,0,0,1.32-.13,5.58,5.58,0,0,0,.93-.28l.26,1.61A2.7,2.7,0,0,1,394,29a6,6,0,0,1-.65.17c-.24.05-.51.09-.79.12a8.11,8.11,0,0,1-.86.05,5,5,0,0,1-1.95-.34,3.54,3.54,0,0,1-1.37-.93,3.66,3.66,0,0,1-.8-1.4A5.75,5.75,0,0,1,387.33,24.86Zm5.72-.88a2.54,2.54,0,0,0-.12-.78,2.1,2.1,0,0,0-.33-.63,1.58,1.58,0,0,0-.54-.42,1.61,1.61,0,0,0-.76-.16,1.85,1.85,0,0,0-.8.17,2,2,0,0,0-.57.45,2.09,2.09,0,0,0-.37.63,3.2,3.2,0,0,0-.18.74Z"/><path class="cls-7" d="M303.25,44.37a6,6,0,0,1-.25,1.79,4.14,4.14,0,0,1-.73,1.4,3.13,3.13,0,0,1-1.18.91,3.75,3.75,0,0,1-1.6.33,3.92,3.92,0,0,1-1.11-.15,4.24,4.24,0,0,1-.83-.32v3.3h-2V40.38c.4-.11.89-.21,1.48-.31a11.12,11.12,0,0,1,1.86-.15,5.16,5.16,0,0,1,1.81.31,3.7,3.7,0,0,1,1.35.89,3.86,3.86,0,0,1,.87,1.4A5.36,5.36,0,0,1,303.25,44.37Zm-2,0a3.21,3.21,0,0,0-.59-2,2.34,2.34,0,0,0-1.92-.73c-.18,0-.38,0-.58,0a2.93,2.93,0,0,0-.59.11v4.87a2.78,2.78,0,0,0,.69.33,2.82,2.82,0,0,0,.92.15,1.75,1.75,0,0,0,1.57-.73A3.46,3.46,0,0,0,301.23,44.4Z"/><path class="cls-7" d="M310.14,41.88a5.11,5.11,0,0,0-.68-.17,4.88,4.88,0,0,0-1-.09,4.2,4.2,0,0,0-.69.06,2.38,2.38,0,0,0-.51.12v6.82h-2V40.51a10.18,10.18,0,0,1,1.42-.4,8.55,8.55,0,0,1,1.9-.19l.45,0a4.35,4.35,0,0,1,.52.06l.51.1a3.33,3.33,0,0,1,.39.11Z"/><path class="cls-7" d="M311.38,44.4a5.42,5.42,0,0,1,.33-2A4.19,4.19,0,0,1,312.6,41a3.57,3.57,0,0,1,1.27-.84,3.73,3.73,0,0,1,1.46-.29A3.51,3.51,0,0,1,318.08,41a4.71,4.71,0,0,1,1,3.26v.36c0,.14,0,.26,0,.37h-5.62a2.27,2.27,0,0,0,.73,1.59,2.77,2.77,0,0,0,1.86.56,5.87,5.87,0,0,0,1.31-.13,5.45,5.45,0,0,0,.94-.28l.26,1.62a4,4,0,0,1-.45.17,6.19,6.19,0,0,1-.65.16c-.24.05-.51.09-.79.12a8.11,8.11,0,0,1-.86,0,5.33,5.33,0,0,1-2-.33,3.62,3.62,0,0,1-1.36-.93,3.74,3.74,0,0,1-.8-1.4A5.57,5.57,0,0,1,311.38,44.4Zm5.71-.88a2.43,2.43,0,0,0-.11-.77,2,2,0,0,0-.33-.64,1.58,1.58,0,0,0-.54-.42,1.77,1.77,0,0,0-.76-.16,1.71,1.71,0,0,0-.8.18,1.82,1.82,0,0,0-.58.44,2.12,2.12,0,0,0-.36.64,3.12,3.12,0,0,0-.18.73Z"/><path class="cls-7" d="M323.28,47.2a2.52,2.52,0,0,0,1.14-.19.65.65,0,0,0,.36-.64.85.85,0,0,0-.38-.7,6.25,6.25,0,0,0-1.26-.6,9.21,9.21,0,0,1-1-.42,2.87,2.87,0,0,1-.77-.51,2.08,2.08,0,0,1-.52-.71,2.52,2.52,0,0,1-.18-1,2.19,2.19,0,0,1,.86-1.84,3.7,3.7,0,0,1,2.34-.68,7.48,7.48,0,0,1,1.44.14,6.16,6.16,0,0,1,1,.27L326,41.89a7,7,0,0,0-.84-.27A5,5,0,0,0,324,41.5a2,2,0,0,0-1,.21.65.65,0,0,0-.37.62.92.92,0,0,0,.07.38.81.81,0,0,0,.26.3,3.06,3.06,0,0,0,.47.28,7.33,7.33,0,0,0,.72.28,11.82,11.82,0,0,1,1.18.51,3.22,3.22,0,0,1,.81.57,2,2,0,0,1,.46.73,2.84,2.84,0,0,1,.15,1,2.09,2.09,0,0,1-.9,1.84,4.51,4.51,0,0,1-2.58.63,6.81,6.81,0,0,1-1.81-.19,7.12,7.12,0,0,1-1-.3l.34-1.64a8.69,8.69,0,0,0,1.05.34A5.36,5.36,0,0,0,323.28,47.2Z"/><path class="cls-7" d="M335.58,48.36c-.38.1-.88.2-1.48.3a12.46,12.46,0,0,1-2,.15,4.39,4.39,0,0,1-1.72-.29,2.62,2.62,0,0,1-1.1-.81,3.23,3.23,0,0,1-.6-1.25,6.55,6.55,0,0,1-.18-1.59V40.1h2v4.46a3.66,3.66,0,0,0,.4,2,1.57,1.57,0,0,0,1.4.58l.75,0a4.18,4.18,0,0,0,.6-.08V40.1h2Z"/><path class="cls-7" d="M345.76,44.37a6,6,0,0,1-.26,1.79,4.12,4.12,0,0,1-.72,1.4,3.21,3.21,0,0,1-1.18.91,3.75,3.75,0,0,1-1.6.33,3.82,3.82,0,0,1-1.11-.15,4,4,0,0,1-.83-.32v3.3h-2V40.38c.4-.11.89-.21,1.48-.31a10.92,10.92,0,0,1,1.85-.15,5.08,5.08,0,0,1,1.81.31,3.74,3.74,0,0,1,1.36.89,4,4,0,0,1,.87,1.4A5.36,5.36,0,0,1,345.76,44.37Zm-2,0a3.15,3.15,0,0,0-.6-2,2.3,2.3,0,0,0-1.91-.73,5.72,5.72,0,0,0-.58,0,2.93,2.93,0,0,0-.59.11v4.87a3,3,0,0,0,1.61.48,1.75,1.75,0,0,0,1.57-.73A3.46,3.46,0,0,0,343.74,44.4Z"/><path class="cls-7" d="M354.78,48.36c-.38.1-.87.2-1.48.3a12.46,12.46,0,0,1-2,.15,4.3,4.3,0,0,1-1.71-.29,2.65,2.65,0,0,1-1.11-.81,3.23,3.23,0,0,1-.6-1.25,6.57,6.57,0,0,1-.17-1.59V40.1h2v4.46a3.67,3.67,0,0,0,.39,2,1.58,1.58,0,0,0,1.4.58l.75,0a4.18,4.18,0,0,0,.6-.08V40.1h2Z"/><path class="cls-7" d="M356.82,44.4a5.42,5.42,0,0,1,.33-2A4.19,4.19,0,0,1,358,41a3.57,3.57,0,0,1,1.27-.84,3.73,3.73,0,0,1,1.46-.29A3.51,3.51,0,0,1,363.52,41a4.76,4.76,0,0,1,1,3.26v.36c0,.14,0,.26,0,.37h-5.62a2.27,2.27,0,0,0,.73,1.59,2.77,2.77,0,0,0,1.86.56,5.87,5.87,0,0,0,1.31-.13,5.45,5.45,0,0,0,.94-.28l.26,1.62a4,4,0,0,1-.45.17c-.19.06-.41.11-.65.16s-.51.09-.79.12a8.11,8.11,0,0,1-.86,0,5.33,5.33,0,0,1-2-.33,3.74,3.74,0,0,1-1.37-.93,3.86,3.86,0,0,1-.79-1.4A5.57,5.57,0,0,1,356.82,44.4Zm5.71-.88a2.76,2.76,0,0,0-.11-.77,1.87,1.87,0,0,0-.34-.64,1.46,1.46,0,0,0-.53-.42,1.77,1.77,0,0,0-.76-.16,1.71,1.71,0,0,0-.8.18,1.82,1.82,0,0,0-.58.44,2.12,2.12,0,0,0-.36.64,3.12,3.12,0,0,0-.18.73Z"/><path class="cls-7" d="M368.72,47.2a2.52,2.52,0,0,0,1.14-.19.65.65,0,0,0,.36-.64.85.85,0,0,0-.38-.7,6.12,6.12,0,0,0-1.27-.6,10,10,0,0,1-1-.42,2.87,2.87,0,0,1-.77-.51,2.08,2.08,0,0,1-.52-.71,2.52,2.52,0,0,1-.18-1,2.19,2.19,0,0,1,.86-1.84,3.7,3.7,0,0,1,2.34-.68,7.48,7.48,0,0,1,1.44.14,6.16,6.16,0,0,1,1,.27l-.36,1.59a6.25,6.25,0,0,0-.83-.27,5,5,0,0,0-1.17-.12,2,2,0,0,0-1,.21.65.65,0,0,0-.37.62.92.92,0,0,0,.07.38.81.81,0,0,0,.26.3,2.64,2.64,0,0,0,.47.28c.19.09.43.18.71.28a11.13,11.13,0,0,1,1.19.51,3.22,3.22,0,0,1,.81.57,2,2,0,0,1,.46.73,2.84,2.84,0,0,1,.15,1,2.09,2.09,0,0,1-.9,1.84,4.51,4.51,0,0,1-2.58.63,6.81,6.81,0,0,1-1.81-.19,7.12,7.12,0,0,1-1-.3l.34-1.64a8.69,8.69,0,0,0,1.05.34A5.36,5.36,0,0,0,368.72,47.2Z"/><path class="cls-7" d="M373.93,37.85l2-.32V40.1h3v1.65h-3v3.47a2.48,2.48,0,0,0,.33,1.46,1.31,1.31,0,0,0,1.11.44,3.93,3.93,0,0,0,1-.11l.66-.21.32,1.56a6.07,6.07,0,0,1-.89.3,5,5,0,0,1-1.3.15,4.24,4.24,0,0,1-1.53-.24,2.27,2.27,0,0,1-1-.71,3,3,0,0,1-.5-1.12,6.83,6.83,0,0,1-.15-1.51Z"/><path class="cls-7" d="M388.35,44.35a5.34,5.34,0,0,1-.3,1.84,3.92,3.92,0,0,1-.83,1.42,3.69,3.69,0,0,1-1.29.91,4.15,4.15,0,0,1-1.67.33,4.07,4.07,0,0,1-1.66-.33,3.69,3.69,0,0,1-1.29-.91,4.08,4.08,0,0,1-.84-1.42,5.76,5.76,0,0,1,0-3.67,4.15,4.15,0,0,1,.85-1.41,3.66,3.66,0,0,1,1.29-.9,4.41,4.41,0,0,1,3.3,0,3.61,3.61,0,0,1,1.3.9,4.48,4.48,0,0,1,.84,1.41A5.32,5.32,0,0,1,388.35,44.35Zm-2,0a3.3,3.3,0,0,0-.55-2,1.93,1.93,0,0,0-3,0,3.3,3.3,0,0,0-.55,2,3.36,3.36,0,0,0,.55,2,1.92,1.92,0,0,0,3,0A3.36,3.36,0,0,0,386.33,44.35Z"/><rect class="cls-29" x="149.47" y="252.29" width="135" height="47.33" rx="3.48" ry="3.48"/><path class="cls-7" d="M173.47,268.23a2.75,2.75,0,0,0,1.61-.38,1.23,1.23,0,0,0,.5-1.06,1.32,1.32,0,0,0-.17-.7,1.73,1.73,0,0,0-.49-.53,4.91,4.91,0,0,0-.77-.44c-.3-.13-.65-.26-1-.39s-.77-.3-1.13-.47a3.63,3.63,0,0,1-1-.63,2.71,2.71,0,0,1-.67-.89,2.86,2.86,0,0,1-.25-1.26,3,3,0,0,1,1.05-2.4,4.43,4.43,0,0,1,2.89-.87,6.75,6.75,0,0,1,1.88.24,5.47,5.47,0,0,1,1.29.51l-.63,1.66a5.24,5.24,0,0,0-1.22-.47A5.56,5.56,0,0,0,174,260a2.13,2.13,0,0,0-1.29.34,1.12,1.12,0,0,0-.46,1,1.29,1.29,0,0,0,.15.64,1.53,1.53,0,0,0,.44.48,3.82,3.82,0,0,0,.67.39,8.53,8.53,0,0,0,.84.35,15.3,15.3,0,0,1,1.42.59,4,4,0,0,1,1.06.72,2.7,2.7,0,0,1,.66,1,3.68,3.68,0,0,1,.23,1.36,2.81,2.81,0,0,1-1.09,2.37,5.07,5.07,0,0,1-3.16.84,8.29,8.29,0,0,1-1.28-.09,7.66,7.66,0,0,1-1-.22,4.88,4.88,0,0,1-.77-.27,3.66,3.66,0,0,1-.52-.25l.6-1.68a6.13,6.13,0,0,0,1.19.49A5.65,5.65,0,0,0,173.47,268.23Z"/><path class="cls-7" d="M179,265.54a5.38,5.38,0,0,1,.33-2,4.1,4.1,0,0,1,.89-1.41,3.73,3.73,0,0,1,1.27-.85,3.87,3.87,0,0,1,1.46-.28,3.51,3.51,0,0,1,2.75,1.09,4.76,4.76,0,0,1,1,3.26c0,.11,0,.23,0,.36s0,.26,0,.37H181a2.25,2.25,0,0,0,.73,1.59,2.76,2.76,0,0,0,1.86.56,5.87,5.87,0,0,0,1.31-.13,5.45,5.45,0,0,0,.94-.28l.26,1.62a4,4,0,0,1-.45.17c-.19.06-.41.11-.65.16s-.51.09-.79.12a8.11,8.11,0,0,1-.86.05,5.33,5.33,0,0,1-2-.33,3.86,3.86,0,0,1-1.37-.93,3.94,3.94,0,0,1-.79-1.4A5.57,5.57,0,0,1,179,265.54Zm5.71-.88a2.76,2.76,0,0,0-.11-.77,1.87,1.87,0,0,0-.34-.64,1.46,1.46,0,0,0-.53-.42,1.67,1.67,0,0,0-.76-.16,1.85,1.85,0,0,0-.8.17,2,2,0,0,0-.58.45,2.12,2.12,0,0,0-.36.64,3.12,3.12,0,0,0-.18.73Z"/><path class="cls-7" d="M197.38,263c-.17-.05-.39-.11-.68-.17a5,5,0,0,0-1-.08,5,5,0,0,0-1.21.17v6.83h-2v-8.11a10.36,10.36,0,0,1,1.43-.4,8.52,8.52,0,0,1,1.89-.19l.46,0a4.6,4.6,0,0,1,.52.06l.51.1.39.1Z"/><path class="cls-7" d="M198.61,265.54a5.18,5.18,0,0,1,.34-2,4.08,4.08,0,0,1,.88-1.41,3.83,3.83,0,0,1,1.27-.85,4,4,0,0,1,1.47-.28,3.48,3.48,0,0,1,2.74,1.09,4.71,4.71,0,0,1,1,3.26c0,.11,0,.23,0,.36s0,.26,0,.37h-5.62a2.24,2.24,0,0,0,.72,1.59,2.78,2.78,0,0,0,1.87.56,5.94,5.94,0,0,0,1.31-.13,5.45,5.45,0,0,0,.94-.28l.26,1.62a4,4,0,0,1-.45.17c-.19.06-.41.11-.65.16s-.51.09-.79.12a8.3,8.3,0,0,1-.87.05,5.24,5.24,0,0,1-2-.33,3.86,3.86,0,0,1-1.37-.93,4,4,0,0,1-.8-1.4A5.87,5.87,0,0,1,198.61,265.54Zm5.72-.88a2.76,2.76,0,0,0-.11-.77,1.87,1.87,0,0,0-.34-.64,1.49,1.49,0,0,0-.54-.42,1.6,1.6,0,0,0-.75-.16,1.81,1.81,0,0,0-.8.17,2,2,0,0,0-.58.45,2.14,2.14,0,0,0-.37.64,3.68,3.68,0,0,0-.17.73Z"/><path class="cls-7" d="M211.22,261a4.85,4.85,0,0,1,1.64.24,2.65,2.65,0,0,1,1.07.69,2.48,2.48,0,0,1,.57,1.06,5.43,5.43,0,0,1,.17,1.38v5.16c-.3.07-.76.15-1.37.24a14.49,14.49,0,0,1-2.08.14,6.07,6.07,0,0,1-1.4-.15,2.93,2.93,0,0,1-1.09-.47,2.34,2.34,0,0,1-.7-.85,3.06,3.06,0,0,1-.25-1.29,2.35,2.35,0,0,1,1.06-2.06,3.35,3.35,0,0,1,1.13-.45,6.57,6.57,0,0,1,1.35-.14,5.49,5.49,0,0,1,.68,0,6.33,6.33,0,0,1,.77.14v-.33a2.37,2.37,0,0,0-.09-.65,1.22,1.22,0,0,0-.28-.54,1.41,1.41,0,0,0-.54-.37,2.25,2.25,0,0,0-.84-.13,7,7,0,0,0-1.25.1,5.84,5.84,0,0,0-.93.22l-.24-1.59a7.68,7.68,0,0,1,1.09-.26A8.31,8.31,0,0,1,211.22,261Zm.16,7.34a8,8,0,0,0,1.39-.09v-2.19l-.48-.09a3.56,3.56,0,0,0-.68-.05,3.67,3.67,0,0,0-.66.05,1.91,1.91,0,0,0-.6.18,1,1,0,0,0-.43.36,1.22,1.22,0,0,0,.27,1.56A2.28,2.28,0,0,0,211.38,268.37Z"/><path class="cls-7" d="M220.05,269.92a5.28,5.28,0,0,1-1.46-.19,2.27,2.27,0,0,1-.92-.52,1.77,1.77,0,0,1-.48-.83,4.31,4.31,0,0,1-.14-1.13v-9.8l2-.33v9.76a2.64,2.64,0,0,0,.06.6.83.83,0,0,0,.2.41.87.87,0,0,0,.4.26,2.93,2.93,0,0,0,.64.14Z"/><path class="cls-7" d="M224.12,258.75a1.13,1.13,0,0,1-.36.88,1.2,1.2,0,0,1-.85.32,1.23,1.23,0,0,1-.86-.32,1.13,1.13,0,0,1-.36-.88,1.16,1.16,0,0,1,.36-.9,1.27,1.27,0,0,1,.86-.32,1.25,1.25,0,0,1,.85.32A1.16,1.16,0,0,1,224.12,258.75Zm-.21,11h-2v-8.52h2Z"/><path class="cls-7" d="M232.37,262.62c-.21.23-.5.55-.85,1s-.73.87-1.13,1.37-.81,1-1.22,1.58-.77,1.07-1.1,1.57h4.4v1.65H225.7v-1.22a14.48,14.48,0,0,1,.89-1.42c.36-.51.73-1,1.11-1.54s.76-1,1.13-1.47.71-.88,1-1.22h-3.92v-1.65h6.46Z"/><path class="cls-7" d="M237.13,261a5,5,0,0,1,1.65.24,2.61,2.61,0,0,1,1.06.69,2.48,2.48,0,0,1,.57,1.06,5,5,0,0,1,.17,1.38v5.16c-.3.07-.76.15-1.37.24a14.49,14.49,0,0,1-2.08.14,6.07,6.07,0,0,1-1.4-.15,3,3,0,0,1-1.08-.47,2.15,2.15,0,0,1-.7-.85,2.9,2.9,0,0,1-.26-1.29,2.35,2.35,0,0,1,1.06-2.06,3.43,3.43,0,0,1,1.13-.45,6.57,6.57,0,0,1,1.35-.14,5.38,5.38,0,0,1,.68,0,6,6,0,0,1,.77.14v-.33a2.82,2.82,0,0,0-.08-.65,1.35,1.35,0,0,0-.29-.54,1.27,1.27,0,0,0-.54-.37,2.23,2.23,0,0,0-.83-.13,7,7,0,0,0-1.26.1,5.84,5.84,0,0,0-.93.22l-.24-1.59a7.68,7.68,0,0,1,1.09-.26A8.31,8.31,0,0,1,237.13,261Zm.16,7.34a8,8,0,0,0,1.39-.09v-2.19l-.47-.09a3.73,3.73,0,0,0-.69-.05,3.67,3.67,0,0,0-.66.05,1.91,1.91,0,0,0-.6.18,1,1,0,0,0-.43.36,1.22,1.22,0,0,0,.27,1.56A2.28,2.28,0,0,0,237.29,268.37Z"/><path class="cls-7" d="M253.78,269.5c-.38.1-.88.2-1.49.3a12.25,12.25,0,0,1-2,.15,4.36,4.36,0,0,1-1.72-.29,2.81,2.81,0,0,1-1.11-.81,3.37,3.37,0,0,1-.59-1.25,6.55,6.55,0,0,1-.18-1.59v-4.77h2v4.46a3.59,3.59,0,0,0,.4,2,1.56,1.56,0,0,0,1.39.58l.76,0a4,4,0,0,0,.59-.08v-6.89h2Z"/><path class="cls-7" d="M256.28,261.52a13.48,13.48,0,0,1,1.49-.31,12.41,12.41,0,0,1,2-.15,4.65,4.65,0,0,1,1.74.29,2.7,2.7,0,0,1,1.11.79,3,3,0,0,1,.59,1.24,7.18,7.18,0,0,1,.17,1.59v4.79h-2v-4.48a6.47,6.47,0,0,0-.09-1.17,2.16,2.16,0,0,0-.29-.78,1.23,1.23,0,0,0-.56-.44,2.34,2.34,0,0,0-.85-.13,7,7,0,0,0-.78,0c-.28,0-.48.06-.61.09v6.87h-2Z"/><path class="cls-7" d="M181.57,289a11.85,11.85,0,0,1-1.47.33,11.35,11.35,0,0,1-1.87.14,4.91,4.91,0,0,1-1.81-.31,3.8,3.8,0,0,1-1.36-.88,4.07,4.07,0,0,1-.86-1.4,5.4,5.4,0,0,1-.3-1.85,6.09,6.09,0,0,1,.25-1.83,4.11,4.11,0,0,1,.74-1.41,3.32,3.32,0,0,1,1.19-.91,3.89,3.89,0,0,1,1.61-.32,3.54,3.54,0,0,1,1.09.15,5,5,0,0,1,.82.33V277l2-.33Zm-5.65-4a3,3,0,0,0,.62,2,2.08,2.08,0,0,0,1.71.74,6.17,6.17,0,0,0,.8,0,3,3,0,0,0,.55-.09v-4.88a3.69,3.69,0,0,0-.69-.34,2.82,2.82,0,0,0-.92-.15,1.78,1.78,0,0,0-1.58.73A3.51,3.51,0,0,0,175.92,285Z"/><path class="cls-7" d="M186.28,278.29a1.13,1.13,0,0,1-.36.88,1.27,1.27,0,0,1-1.71,0,1.27,1.27,0,0,1,0-1.77,1.27,1.27,0,0,1,1.71,0A1.12,1.12,0,0,1,186.28,278.29Zm-.22,11h-2v-8.52h2Z"/><path class="cls-7" d="M191.41,280.57a4.6,4.6,0,0,1,1.64.25,2.63,2.63,0,0,1,1.07.68,2.69,2.69,0,0,1,.57,1.07,5.35,5.35,0,0,1,.17,1.37v5.17c-.31.06-.76.14-1.38.23a14.24,14.24,0,0,1-2.07.14,6.07,6.07,0,0,1-1.4-.15,2.78,2.78,0,0,1-1.09-.47,2.24,2.24,0,0,1-.7-.85,2.86,2.86,0,0,1-.25-1.28,2.5,2.5,0,0,1,.28-1.24,2.27,2.27,0,0,1,.78-.82,3.48,3.48,0,0,1,1.13-.46,6.55,6.55,0,0,1,1.34-.14c.22,0,.45,0,.69,0s.49.08.76.14v-.32a2.27,2.27,0,0,0-.08-.65,1.37,1.37,0,0,0-.28-.55,1.41,1.41,0,0,0-.54-.37,2.47,2.47,0,0,0-.84-.13,7.92,7.92,0,0,0-1.25.1,5.72,5.72,0,0,0-.93.23l-.25-1.6a9.65,9.65,0,0,1,1.1-.26A9.09,9.09,0,0,1,191.41,280.57Zm.16,7.35a6.81,6.81,0,0,0,1.38-.1v-2.18a2.47,2.47,0,0,0-.47-.1,4.72,4.72,0,0,0-.68-.05,4.89,4.89,0,0,0-.66.05,1.89,1.89,0,0,0-.61.18,1.18,1.18,0,0,0-.43.37,1,1,0,0,0-.16.59,1,1,0,0,0,.44,1A2.26,2.26,0,0,0,191.57,287.92Z"/><path class="cls-7" d="M204.31,288.44a3.85,3.85,0,0,1-1,3,4.57,4.57,0,0,1-3.17.94,8.43,8.43,0,0,1-1.52-.13,7.94,7.94,0,0,1-1.34-.34l.35-1.68a6.51,6.51,0,0,0,1.15.35,7.66,7.66,0,0,0,1.4.13,2.42,2.42,0,0,0,1.69-.49,1.92,1.92,0,0,0,.5-1.45v-.33a4.77,4.77,0,0,1-.77.3,4.08,4.08,0,0,1-1.1.14,4,4,0,0,1-1.49-.26,3.16,3.16,0,0,1-1.16-.76,3.38,3.38,0,0,1-.74-1.27,5.15,5.15,0,0,1-.27-1.75,5,5,0,0,1,.28-1.71,3.7,3.7,0,0,1,.83-1.33,3.94,3.94,0,0,1,1.33-.87,4.92,4.92,0,0,1,1.78-.31,10.64,10.64,0,0,1,1.82.15c.57.1,1.06.2,1.47.31Zm-5.49-3.62a2.64,2.64,0,0,0,.54,1.84,1.88,1.88,0,0,0,1.41.57,2.86,2.86,0,0,0,.89-.13,2.2,2.2,0,0,0,.67-.31v-4.41l-.52-.09a5.57,5.57,0,0,0-.78,0,2,2,0,0,0-1.64.71A2.87,2.87,0,0,0,198.82,284.82Z"/><path class="cls-7" d="M206.81,281.06a13.48,13.48,0,0,1,1.49-.31,12.37,12.37,0,0,1,2-.15,4.67,4.67,0,0,1,1.75.29,2.72,2.72,0,0,1,1.11.8,2.92,2.92,0,0,1,.59,1.24,7.09,7.09,0,0,1,.17,1.58v4.79h-2v-4.48a6.43,6.43,0,0,0-.09-1.16,2.16,2.16,0,0,0-.29-.78,1.17,1.17,0,0,0-.56-.44,2.36,2.36,0,0,0-.85-.14,5.27,5.27,0,0,0-.78.05l-.61.08v6.87h-2Z"/><path class="cls-7" d="M224,285a5.44,5.44,0,0,1-.29,1.85,4,4,0,0,1-.83,1.41,3.69,3.69,0,0,1-1.29.91,4.18,4.18,0,0,1-1.67.33,4.11,4.11,0,0,1-1.67-.33,3.74,3.74,0,0,1-1.28-.91,4.13,4.13,0,0,1-.84-1.41,5.44,5.44,0,0,1-.3-1.85,5.32,5.32,0,0,1,.3-1.83,4,4,0,0,1,.85-1.41,3.66,3.66,0,0,1,1.29-.9,4.22,4.22,0,0,1,1.65-.32,4.29,4.29,0,0,1,1.65.32,3.58,3.58,0,0,1,1.29.9,4.13,4.13,0,0,1,.84,1.41A5.32,5.32,0,0,1,224,285Zm-2,0a3.37,3.37,0,0,0-.54-2,1.78,1.78,0,0,0-1.52-.74,1.8,1.8,0,0,0-1.53.74,3.37,3.37,0,0,0-.54,2,3.43,3.43,0,0,0,.54,2,1.79,1.79,0,0,0,1.53.75,1.77,1.77,0,0,0,1.52-.75A3.43,3.43,0,0,0,222,285Zm0-7.73-2.65,2.57-1-.88,2.4-2.85Z"/><path class="cls-7" d="M228.21,287.89a2.67,2.67,0,0,0,1.14-.19.67.67,0,0,0,.36-.65.85.85,0,0,0-.38-.7,6.25,6.25,0,0,0-1.26-.6c-.36-.13-.69-.27-1-.41a3.15,3.15,0,0,1-.77-.52,2.08,2.08,0,0,1-.52-.71,2.5,2.5,0,0,1-.18-1,2.22,2.22,0,0,1,.86-1.85,3.73,3.73,0,0,1,2.35-.68,7.38,7.38,0,0,1,1.43.14,6.33,6.33,0,0,1,1,.27l-.36,1.6a4.76,4.76,0,0,0-.83-.27,5.13,5.13,0,0,0-1.18-.13,2,2,0,0,0-1,.21.66.66,0,0,0-.38.62.89.89,0,0,0,.08.38.7.7,0,0,0,.25.3,2.42,2.42,0,0,0,.47.28,6.06,6.06,0,0,0,.72.28c.46.18.86.35,1.19.52a2.87,2.87,0,0,1,.8.57,2,2,0,0,1,.47.72,3.12,3.12,0,0,1,.14,1,2.12,2.12,0,0,1-.9,1.85,4.47,4.47,0,0,1-2.58.62,7.38,7.38,0,0,1-1.81-.18,8.44,8.44,0,0,1-1-.31l.34-1.64a8.69,8.69,0,0,0,1,.34A5.34,5.34,0,0,0,228.21,287.89Z"/><path class="cls-7" d="M233.42,278.54l2-.33v2.57h3v1.65h-3v3.47a2.48,2.48,0,0,0,.32,1.46,1.28,1.28,0,0,0,1.11.44,3.44,3.44,0,0,0,.95-.11l.66-.21.33,1.56a6.71,6.71,0,0,1-.9.3,4.58,4.58,0,0,1-1.3.16,3.93,3.93,0,0,1-1.52-.25,2.16,2.16,0,0,1-1-.71,2.75,2.75,0,0,1-.51-1.12,6.83,6.83,0,0,1-.15-1.51Z"/><path class="cls-7" d="M242.53,278.29a1.13,1.13,0,0,1-.36.88,1.21,1.21,0,0,1-.85.33,1.23,1.23,0,0,1-.86-.33,1.27,1.27,0,0,1,0-1.77,1.23,1.23,0,0,1,.86-.33,1.21,1.21,0,0,1,.85.33A1.12,1.12,0,0,1,242.53,278.29Zm-.21,11h-2v-8.52h2Z"/><path class="cls-7" d="M244.35,285.05a5.14,5.14,0,0,1,.3-1.77,4.19,4.19,0,0,1,.83-1.42,4,4,0,0,1,1.33-.95,4.49,4.49,0,0,1,1.76-.34,6,6,0,0,1,2.28.44l-.42,1.61a6,6,0,0,0-.78-.24,3.82,3.82,0,0,0-.92-.1A2.12,2.12,0,0,0,247,283a3,3,0,0,0-.61,2,3.2,3.2,0,0,0,.57,2,2.26,2.26,0,0,0,1.92.74,5.55,5.55,0,0,0,1-.09,5.09,5.09,0,0,0,.85-.25l.27,1.63a3.75,3.75,0,0,1-1,.29,6.82,6.82,0,0,1-1.36.13,5,5,0,0,1-1.9-.33,3.59,3.59,0,0,1-1.34-.93,3.93,3.93,0,0,1-.79-1.42A5.93,5.93,0,0,1,244.35,285.05Z"/><path class="cls-7" d="M260,285a5.44,5.44,0,0,1-.3,1.85,4,4,0,0,1-.83,1.41,3.6,3.6,0,0,1-1.29.91,4.15,4.15,0,0,1-1.67.33,4.07,4.07,0,0,1-1.66-.33,3.69,3.69,0,0,1-1.29-.91,4.13,4.13,0,0,1-.84-1.41,5.44,5.44,0,0,1-.3-1.85,5.32,5.32,0,0,1,.3-1.83,4.15,4.15,0,0,1,.85-1.41,3.66,3.66,0,0,1,1.29-.9,4.41,4.41,0,0,1,3.3,0,3.61,3.61,0,0,1,1.3.9,4.13,4.13,0,0,1,.84,1.41A5.32,5.32,0,0,1,260,285Zm-2,0a3.3,3.3,0,0,0-.55-2,1.93,1.93,0,0,0-3,0,3.3,3.3,0,0,0-.55,2,3.36,3.36,0,0,0,.55,2,1.92,1.92,0,0,0,3,0A3.36,3.36,0,0,0,258,285Z"/><circle class="cls-30" cx="291.32" cy="173.63" r="14.03"/><path class="cls-30" d="M302.38,165l-15.53,3.81,2.94,2.46-1.07,11.21,15.44-3.2A14.07,14.07,0,0,0,302.38,165Z"/><polygon class="cls-7" points="297.21 166.3 286.85 168.8 289.18 170.68 283.24 178.06 288.72 182.47 294.66 175.08 296.99 176.96 297.21 166.3"/><rect class="cls-1" x="418.52" y="120.86" width="151" height="47.33" rx="3.48" ry="3.48"/><rect class="cls-29" x="420.36" y="118.93" width="151" height="47.33" rx="3.48" ry="3.48"/><path class="cls-7" d="M437,125a6.62,6.62,0,0,1,3.74.89,3.11,3.11,0,0,1,1.29,2.74,3.07,3.07,0,0,1-2.26,3.11c.2.25.44.55.7.91s.53.75.8,1.17.53.84.78,1.28.47.87.67,1.3h-2.3c-.21-.39-.43-.79-.67-1.18s-.48-.79-.72-1.16-.49-.73-.73-1.06-.46-.63-.67-.89l-.39,0H436v4.27h-2V125.27a11.08,11.08,0,0,1,1.59-.22C436.07,125,436.57,125,437,125Zm.15,1.77c-.44,0-.84,0-1.21,0v3.65h.9a10.16,10.16,0,0,0,1.32-.08,3,3,0,0,0,.95-.3,1.45,1.45,0,0,0,.58-.57,1.86,1.86,0,0,0,.19-.91,1.82,1.82,0,0,0-.19-.88,1.46,1.46,0,0,0-.56-.57,2.76,2.76,0,0,0-.88-.3A6.2,6.2,0,0,0,437.17,126.77Z"/><path class="cls-7" d="M443.76,132.18a5.18,5.18,0,0,1,.34-2,4,4,0,0,1,.88-1.41,3.69,3.69,0,0,1,1.27-.85,4,4,0,0,1,1.47-.28,3.48,3.48,0,0,1,2.74,1.09,4.71,4.71,0,0,1,1,3.26c0,.1,0,.23,0,.36s0,.26,0,.37H445.8a2.24,2.24,0,0,0,.72,1.59,2.78,2.78,0,0,0,1.87.56,6.61,6.61,0,0,0,1.31-.13,5.45,5.45,0,0,0,.94-.28l.26,1.61a2,2,0,0,1-.45.17c-.19.06-.41.12-.65.17s-.51.09-.79.12a8.3,8.3,0,0,1-.87.05,5,5,0,0,1-1.95-.34,3.72,3.72,0,0,1-1.37-.92,4,4,0,0,1-.8-1.4A5.87,5.87,0,0,1,443.76,132.18Zm5.72-.88a2.43,2.43,0,0,0-.12-.77,1.69,1.69,0,0,0-.33-.64,1.49,1.49,0,0,0-.54-.42,1.6,1.6,0,0,0-.75-.16,1.81,1.81,0,0,0-.8.17,2,2,0,0,0-.58.45,2.14,2.14,0,0,0-.37.64,4.58,4.58,0,0,0-.18.73Z"/><path class="cls-7" d="M461.21,132.15a6,6,0,0,1-.26,1.79,4.31,4.31,0,0,1-.72,1.4,3.31,3.31,0,0,1-1.18.91,4.1,4.1,0,0,1-2.71.18,4.32,4.32,0,0,1-.84-.33v3.31h-2V128.16a13.64,13.64,0,0,1,1.49-.31,10.92,10.92,0,0,1,1.85-.15,4.87,4.87,0,0,1,1.81.31,3.74,3.74,0,0,1,2.22,2.29A5.35,5.35,0,0,1,461.21,132.15Zm-2,0a3.13,3.13,0,0,0-.6-2.05,2.32,2.32,0,0,0-1.91-.74l-.58,0a3.13,3.13,0,0,0-.6.1v4.87a3.52,3.52,0,0,0,.7.34,2.73,2.73,0,0,0,.92.15,1.76,1.76,0,0,0,1.57-.73A3.48,3.48,0,0,0,459.19,132.18Z"/><path class="cls-7" d="M470.23,136.14c-.38.09-.88.19-1.48.3a12.46,12.46,0,0,1-2,.15,4.58,4.58,0,0,1-1.72-.29,2.72,2.72,0,0,1-1.1-.82,3.12,3.12,0,0,1-.6-1.24,6.55,6.55,0,0,1-.18-1.59v-4.77h2v4.46a3.7,3.7,0,0,0,.4,2,1.57,1.57,0,0,0,1.4.58l.75,0a4.18,4.18,0,0,0,.6-.08v-6.89h2Z"/><path class="cls-7" d="M472.26,132.18a5.38,5.38,0,0,1,.34-2,4,4,0,0,1,.89-1.41,3.51,3.51,0,0,1,1.27-.85,3.87,3.87,0,0,1,1.46-.28,3.52,3.52,0,0,1,2.75,1.09,4.76,4.76,0,0,1,1,3.26c0,.1,0,.23,0,.36s0,.26,0,.37H474.3a2.28,2.28,0,0,0,.72,1.59,2.8,2.8,0,0,0,1.87.56,6.61,6.61,0,0,0,1.31-.13,5.45,5.45,0,0,0,.94-.28l.26,1.61a2,2,0,0,1-.45.17c-.19.06-.41.12-.65.17s-.51.09-.79.12a8.11,8.11,0,0,1-.86.05,5.09,5.09,0,0,1-2-.34,3.72,3.72,0,0,1-1.37-.92,4,4,0,0,1-.8-1.4A5.87,5.87,0,0,1,472.26,132.18Zm5.72-.88a2.76,2.76,0,0,0-.11-.77,1.87,1.87,0,0,0-.34-.64,1.46,1.46,0,0,0-.53-.42,1.67,1.67,0,0,0-.76-.16,1.81,1.81,0,0,0-.8.17,2,2,0,0,0-.58.45,1.92,1.92,0,0,0-.36.64,3.12,3.12,0,0,0-.18.73Z"/><path class="cls-7" d="M484.17,135a2.52,2.52,0,0,0,1.14-.19.66.66,0,0,0,.36-.64.84.84,0,0,0-.38-.7,5.23,5.23,0,0,0-1.27-.6,9,9,0,0,1-1-.42,3.76,3.76,0,0,1-.78-.51,2.3,2.3,0,0,1-.51-.71,2.58,2.58,0,0,1-.19-1,2.22,2.22,0,0,1,.87-1.85,3.68,3.68,0,0,1,2.34-.67,6.77,6.77,0,0,1,1.44.14,8.09,8.09,0,0,1,1,.26l-.36,1.6a4.25,4.25,0,0,0-.83-.27,5.07,5.07,0,0,0-1.17-.12,2.13,2.13,0,0,0-1,.2.67.67,0,0,0-.37.63.84.84,0,0,0,.07.37.88.88,0,0,0,.25.31,2.56,2.56,0,0,0,.48.27,5.73,5.73,0,0,0,.71.29,9.41,9.41,0,0,1,1.19.51,3.22,3.22,0,0,1,.81.57,1.93,1.93,0,0,1,.46.73,2.78,2.78,0,0,1,.15,1,2.09,2.09,0,0,1-.91,1.85,4.47,4.47,0,0,1-2.58.63,6.73,6.73,0,0,1-1.8-.19,8,8,0,0,1-1-.3l.35-1.65a7.15,7.15,0,0,0,1,.35A5.31,5.31,0,0,0,484.17,135Z"/><path class="cls-7" d="M489.38,125.63l2-.32v2.57h3v1.64h-3V133a2.49,2.49,0,0,0,.33,1.47,1.28,1.28,0,0,0,1.1.44,3.5,3.5,0,0,0,1-.12,5.22,5.22,0,0,0,.66-.21l.32,1.57c-.22.09-.52.19-.89.3a5.08,5.08,0,0,1-1.31.15,4.22,4.22,0,0,1-1.52-.24,2.29,2.29,0,0,1-1-.71,2.8,2.8,0,0,1-.5-1.12,6.89,6.89,0,0,1-.15-1.51Z"/><path class="cls-7" d="M503.79,132.13a5.38,5.38,0,0,1-.29,1.84,4,4,0,0,1-.83,1.42,3.82,3.82,0,0,1-1.29.91,4.18,4.18,0,0,1-1.67.32,4.06,4.06,0,0,1-1.66-.32,3.82,3.82,0,0,1-1.29-.91,4.18,4.18,0,0,1-.84-1.42,5.38,5.38,0,0,1-.3-1.84,5.32,5.32,0,0,1,.3-1.83,4,4,0,0,1,.85-1.41,3.82,3.82,0,0,1,1.29-.91,4.55,4.55,0,0,1,3.3,0,3.77,3.77,0,0,1,1.3.91,4.28,4.28,0,0,1,.83,1.41A5.32,5.32,0,0,1,503.79,132.13Zm-2,0a3.33,3.33,0,0,0-.55-2,1.76,1.76,0,0,0-1.52-.74,1.79,1.79,0,0,0-1.53.74,3.33,3.33,0,0,0-.54,2,3.43,3.43,0,0,0,.54,2,1.79,1.79,0,0,0,1.53.74,1.76,1.76,0,0,0,1.52-.74A3.43,3.43,0,0,0,501.78,132.13Z"/><path class="cls-7" d="M509.63,128.16a11,11,0,0,1,1.48-.31,12.5,12.5,0,0,1,2-.15,4.88,4.88,0,0,1,1.74.28,2.85,2.85,0,0,1,1.12.8,3.09,3.09,0,0,1,.58,1.24,6.57,6.57,0,0,1,.17,1.59v4.79h-2v-4.48a6.47,6.47,0,0,0-.09-1.17,2.16,2.16,0,0,0-.29-.78,1.19,1.19,0,0,0-.55-.44,2.42,2.42,0,0,0-.86-.14,7.11,7.11,0,0,0-.78.05l-.6.08v6.88h-2Z"/><path class="cls-7" d="M526.14,136.14c-.38.09-.87.19-1.48.3a12.46,12.46,0,0,1-2,.15,4.49,4.49,0,0,1-1.71-.29,2.76,2.76,0,0,1-1.11-.82,3.12,3.12,0,0,1-.6-1.24,6.57,6.57,0,0,1-.17-1.59v-4.77h2v4.46a3.72,3.72,0,0,0,.39,2,1.58,1.58,0,0,0,1.4.58l.75,0a4.18,4.18,0,0,0,.6-.08v-6.89h2Z"/><path class="cls-7" d="M528.18,132.18a5.38,5.38,0,0,1,.33-2,4,4,0,0,1,.89-1.41,3.59,3.59,0,0,1,1.27-.85,3.91,3.91,0,0,1,1.46-.28,3.51,3.51,0,0,1,2.75,1.09,4.76,4.76,0,0,1,1,3.26c0,.1,0,.23,0,.36s0,.26,0,.37h-5.62a2.29,2.29,0,0,0,.73,1.59,2.77,2.77,0,0,0,1.86.56,6.53,6.53,0,0,0,1.31-.13,5.45,5.45,0,0,0,.94-.28l.26,1.61a2,2,0,0,1-.45.17c-.19.06-.41.12-.65.17s-.51.09-.79.12a8.11,8.11,0,0,1-.86.05,5.12,5.12,0,0,1-2-.34,3.72,3.72,0,0,1-1.37-.92,3.94,3.94,0,0,1-.79-1.4A5.57,5.57,0,0,1,528.18,132.18Zm5.71-.88a2.76,2.76,0,0,0-.11-.77,1.87,1.87,0,0,0-.34-.64,1.46,1.46,0,0,0-.53-.42,1.64,1.64,0,0,0-.76-.16,1.85,1.85,0,0,0-.8.17,2,2,0,0,0-.58.45,2.12,2.12,0,0,0-.36.64,3.12,3.12,0,0,0-.18.73Z"/><path class="cls-7" d="M540.14,136.4c-.54-1.12-1.1-2.41-1.67-3.85a47.27,47.27,0,0,1-1.57-4.67H539c.12.48.25,1,.41,1.54s.33,1.09.51,1.64.36,1.08.56,1.6.36,1,.53,1.39c.16-.41.34-.87.52-1.39s.37-1,.55-1.6.35-1.09.51-1.64.31-1.06.43-1.54h2a47.27,47.27,0,0,1-1.57,4.67c-.57,1.44-1.13,2.73-1.67,3.85Z"/><path class="cls-7" d="M554,132.13a5.64,5.64,0,0,1-.29,1.84,4.16,4.16,0,0,1-.83,1.42,3.77,3.77,0,0,1-1.3.91,4.49,4.49,0,0,1-3.33,0,3.78,3.78,0,0,1-1.28-.91,4.18,4.18,0,0,1-.84-1.42,5.38,5.38,0,0,1-.3-1.84,5.32,5.32,0,0,1,.3-1.83,4,4,0,0,1,.85-1.41,3.82,3.82,0,0,1,1.29-.91,4.2,4.2,0,0,1,1.64-.31,4.3,4.3,0,0,1,1.66.31,3.82,3.82,0,0,1,1.29.91,4.13,4.13,0,0,1,.84,1.41A5.32,5.32,0,0,1,554,132.13Zm-2,0a3.33,3.33,0,0,0-.54-2,1.94,1.94,0,0,0-3.05,0,3.33,3.33,0,0,0-.54,2,3.43,3.43,0,0,0,.54,2,1.94,1.94,0,0,0,3.05,0A3.43,3.43,0,0,0,552,132.13Z"/><path class="cls-7" d="M558.09,134.23a2.71,2.71,0,0,1,0,.41v.26a7.36,7.36,0,0,1-.32,2.08,8.83,8.83,0,0,1-.89,2l-1.55-.42a8,8,0,0,0,.53-1.85,9.88,9.88,0,0,0,.14-1.59c0-.13,0-.29,0-.49a4.33,4.33,0,0,0,0-.44Z"/><path class="cls-7" d="M433.13,155.68c-.38.1-.88.2-1.48.3a12.41,12.41,0,0,1-2,.16,4.38,4.38,0,0,1-1.72-.3,2.62,2.62,0,0,1-1.1-.81,3.16,3.16,0,0,1-.6-1.25,6.55,6.55,0,0,1-.18-1.59v-4.77h2v4.47a3.64,3.64,0,0,0,.4,2,1.57,1.57,0,0,0,1.39.59,6.68,6.68,0,0,0,.76,0,3.1,3.1,0,0,0,.6-.08v-6.89h2Z"/><path class="cls-7" d="M437.77,154.52a2.69,2.69,0,0,0,1.14-.18.67.67,0,0,0,.36-.65.84.84,0,0,0-.39-.7,5.74,5.74,0,0,0-1.26-.6,9,9,0,0,1-1-.42,3.1,3.1,0,0,1-.78-.51,2.19,2.19,0,0,1-.51-.71,2.49,2.49,0,0,1-.19-1,2.21,2.21,0,0,1,.87-1.85,3.68,3.68,0,0,1,2.34-.68,7.3,7.3,0,0,1,1.43.14,6.33,6.33,0,0,1,1,.27l-.36,1.59a5.16,5.16,0,0,0-.83-.26,4.55,4.55,0,0,0-1.17-.13,2,2,0,0,0-1,.21.65.65,0,0,0-.37.62.89.89,0,0,0,.07.38.77.77,0,0,0,.25.3,3.22,3.22,0,0,0,.48.28c.19.09.43.18.71.28.47.18.87.35,1.19.51a3.22,3.22,0,0,1,.81.57,2.09,2.09,0,0,1,.46.73,2.84,2.84,0,0,1,.15,1,2.1,2.1,0,0,1-.91,1.85,4.55,4.55,0,0,1-2.58.62,7.38,7.38,0,0,1-1.81-.18c-.45-.13-.77-.23-1-.31l.35-1.64a8.69,8.69,0,0,0,1.05.34A5.31,5.31,0,0,0,437.77,154.52Z"/><path class="cls-7" d="M445.91,147.21a4.7,4.7,0,0,1,1.65.25,2.59,2.59,0,0,1,1.06.68,2.46,2.46,0,0,1,.57,1.07,4.9,4.9,0,0,1,.17,1.37v5.17c-.3.06-.76.14-1.37.23a14.38,14.38,0,0,1-2.08.14,6.13,6.13,0,0,1-1.4-.15,2.8,2.8,0,0,1-1.08-.47,2.24,2.24,0,0,1-.7-.85,2.86,2.86,0,0,1-.25-1.28,2.5,2.5,0,0,1,.28-1.24,2.33,2.33,0,0,1,.77-.82,3.41,3.41,0,0,1,1.14-.46,6.48,6.48,0,0,1,1.34-.14c.22,0,.45,0,.68,0s.5.08.77.14v-.32a2.84,2.84,0,0,0-.08-.66,1.42,1.42,0,0,0-.29-.54,1.3,1.3,0,0,0-.53-.37,2.56,2.56,0,0,0-.84-.13,7,7,0,0,0-1.26.1,5.72,5.72,0,0,0-.93.23l-.24-1.6a7.68,7.68,0,0,1,1.09-.26A8.31,8.31,0,0,1,445.91,147.21Zm.17,7.35a7.81,7.81,0,0,0,1.38-.1v-2.18a2.66,2.66,0,0,0-.47-.1,4.86,4.86,0,0,0-.69-.05,5.14,5.14,0,0,0-.66.05,1.91,1.91,0,0,0-.6.18,1.08,1.08,0,0,0-.43.36,1.26,1.26,0,0,0,.28,1.57A2.26,2.26,0,0,0,446.08,154.56Z"/><path class="cls-7" d="M459,155.68a11.85,11.85,0,0,1-1.47.33,12.32,12.32,0,0,1-1.86.14,4.87,4.87,0,0,1-1.81-.31,3.64,3.64,0,0,1-1.36-.88,4,4,0,0,1-.87-1.4,5.4,5.4,0,0,1-.3-1.85,6.2,6.2,0,0,1,.26-1.84,3.83,3.83,0,0,1,.74-1.4,3.14,3.14,0,0,1,1.19-.91,3.85,3.85,0,0,1,1.61-.32,3.64,3.64,0,0,1,1.09.15,5.23,5.23,0,0,1,.81.33v-4.09l2-.33Zm-5.65-4a3.09,3.09,0,0,0,.62,2,2.08,2.08,0,0,0,1.71.74,6.34,6.34,0,0,0,.81,0,4.3,4.3,0,0,0,.54-.09v-4.88a3.16,3.16,0,0,0-.69-.34,2.77,2.77,0,0,0-.92-.15,1.75,1.75,0,0,0-1.57.73A3.51,3.51,0,0,0,453.32,151.66Z"/><path class="cls-7" d="M469.19,151.67a5.34,5.34,0,0,1-.3,1.84,3.92,3.92,0,0,1-.83,1.42,3.69,3.69,0,0,1-1.29.91,4.15,4.15,0,0,1-1.67.33,4.07,4.07,0,0,1-1.66-.33,3.69,3.69,0,0,1-1.29-.91,4.08,4.08,0,0,1-.84-1.42,5.76,5.76,0,0,1,0-3.67,4,4,0,0,1,.85-1.41,3.66,3.66,0,0,1,1.29-.9,4.41,4.41,0,0,1,3.3,0,3.61,3.61,0,0,1,1.3.9,4.28,4.28,0,0,1,.83,1.41A5.09,5.09,0,0,1,469.19,151.67Zm-2,0a3.37,3.37,0,0,0-.55-2,1.93,1.93,0,0,0-3,0,3.3,3.3,0,0,0-.55,2,3.36,3.36,0,0,0,.55,2,1.92,1.92,0,0,0,3,0A3.43,3.43,0,0,0,467.17,151.67Z"/><path class="cls-7" d="M482.72,151.67a5.59,5.59,0,0,1-.29,1.84,4.22,4.22,0,0,1-.83,1.42,3.64,3.64,0,0,1-1.3.91,4.11,4.11,0,0,1-1.67.33,4.07,4.07,0,0,1-1.66-.33,3.69,3.69,0,0,1-1.29-.91,4.42,4.42,0,0,1-.84-1.42,5.76,5.76,0,0,1,0-3.67,4.32,4.32,0,0,1,.85-1.41,3.8,3.8,0,0,1,1.3-.9,4.17,4.17,0,0,1,1.64-.32,4.22,4.22,0,0,1,1.65.32,3.61,3.61,0,0,1,1.3.9,4.13,4.13,0,0,1,.84,1.41A5.32,5.32,0,0,1,482.72,151.67Zm-2,0a3.3,3.3,0,0,0-.55-2,1.93,1.93,0,0,0-3,0,3.3,3.3,0,0,0-.55,2,3.36,3.36,0,0,0,.55,2,1.92,1.92,0,0,0,3,0A3.36,3.36,0,0,0,480.7,151.67Z"/><path class="cls-7" d="M490.75,144.93a1.13,1.13,0,0,1-.36.88,1.21,1.21,0,0,1-.85.33,1.23,1.23,0,0,1-.86-.33,1.27,1.27,0,0,1,0-1.77,1.23,1.23,0,0,1,.86-.33,1.21,1.21,0,0,1,.85.33A1.12,1.12,0,0,1,490.75,144.93Zm-.21,11h-2v-8.52h2Z"/><path class="cls-7" d="M497.9,151.46a4.05,4.05,0,0,0-.34-1.93,1.3,1.3,0,0,0-1.24-.59,4.67,4.67,0,0,0-.72.05l-.58.08v6.87h-2V147.7a13.48,13.48,0,0,1,1.49-.31,12.24,12.24,0,0,1,2-.15,3.87,3.87,0,0,1,1.44.23,2.71,2.71,0,0,1,.94.6,4.09,4.09,0,0,1,.45-.27,5,5,0,0,1,.62-.27,5.19,5.19,0,0,1,.73-.2,3.31,3.31,0,0,1,.77-.09,4.08,4.08,0,0,1,1.64.29,2.38,2.38,0,0,1,1,.8,3.1,3.1,0,0,1,.5,1.23,8,8,0,0,1,.14,1.59v4.79h-2v-4.48a4.37,4.37,0,0,0-.32-1.93,1.32,1.32,0,0,0-1.26-.59,2.64,2.64,0,0,0-.89.15,3.58,3.58,0,0,0-.64.3,4.07,4.07,0,0,1,.18.87c0,.3.05.63.05,1v4.71h-2Z"/><path class="cls-7" d="M514.8,151.69a6,6,0,0,1-.25,1.79,4.31,4.31,0,0,1-.72,1.4,3.21,3.21,0,0,1-1.18.91,3.8,3.8,0,0,1-1.61.33,4.31,4.31,0,0,1-1.94-.47V159h-2V147.7c.4-.11.9-.21,1.48-.31a11.12,11.12,0,0,1,1.86-.15,5.12,5.12,0,0,1,1.81.31,3.74,3.74,0,0,1,2.22,2.29A5.4,5.4,0,0,1,514.8,151.69Zm-2,0a3.15,3.15,0,0,0-.59-2.05,2.31,2.31,0,0,0-1.91-.73l-.58,0a3.16,3.16,0,0,0-.6.11v4.87a3.06,3.06,0,0,0,.7.33,2.73,2.73,0,0,0,.92.16,1.77,1.77,0,0,0,1.57-.74A3.46,3.46,0,0,0,512.78,151.72Z"/><path class="cls-7" d="M524.54,151.67a5.34,5.34,0,0,1-.29,1.84,4.07,4.07,0,0,1-.83,1.42,3.64,3.64,0,0,1-1.3.91,4.37,4.37,0,0,1-3.33,0,3.65,3.65,0,0,1-1.28-.91,4.08,4.08,0,0,1-.84-1.42,5.76,5.76,0,0,1,0-3.67,4,4,0,0,1,.85-1.41,3.66,3.66,0,0,1,1.29-.9,4.22,4.22,0,0,1,1.65-.32,4.29,4.29,0,0,1,1.65.32,3.66,3.66,0,0,1,1.29.9,4.13,4.13,0,0,1,.84,1.41A5.32,5.32,0,0,1,524.54,151.67Zm-2,0a3.37,3.37,0,0,0-.54-2,1.94,1.94,0,0,0-3.05,0,3.37,3.37,0,0,0-.54,2,3.43,3.43,0,0,0,.54,2,1.93,1.93,0,0,0,3.05,0A3.43,3.43,0,0,0,522.52,151.67Z"/><path class="cls-7" d="M531.43,149.2a5.32,5.32,0,0,0-.67-.17,5.05,5.05,0,0,0-1-.09,4.39,4.39,0,0,0-.69.06,3.94,3.94,0,0,0-.51.12v6.82h-2v-8.11a11.78,11.78,0,0,1,1.42-.4,9.26,9.26,0,0,1,1.9-.19l.46,0,.52.06.5.1a2.47,2.47,0,0,1,.39.11Z"/><path class="cls-7" d="M533,145.18l2-.33v2.57h3v1.65h-3v3.47a2.48,2.48,0,0,0,.32,1.46,1.28,1.28,0,0,0,1.11.44,3.87,3.87,0,0,0,.95-.11l.66-.21.33,1.56a6.71,6.71,0,0,1-.9.3,5,5,0,0,1-1.3.16,3.93,3.93,0,0,1-1.52-.25,2.16,2.16,0,0,1-1-.71,2.82,2.82,0,0,1-.51-1.12,6.83,6.83,0,0,1-.15-1.51Z"/><path class="cls-7" d="M542.78,147.21a4.66,4.66,0,0,1,1.65.25,2.43,2.43,0,0,1,1.64,1.75,5.3,5.3,0,0,1,.17,1.37v5.17c-.31.06-.77.14-1.38.23a14.28,14.28,0,0,1-2.08.14,6.13,6.13,0,0,1-1.4-.15,2.8,2.8,0,0,1-1.08-.47,2.24,2.24,0,0,1-.7-.85,2.86,2.86,0,0,1-.25-1.28,2.5,2.5,0,0,1,.28-1.24,2.27,2.27,0,0,1,.78-.82,3.28,3.28,0,0,1,1.13-.46,6.55,6.55,0,0,1,1.34-.14c.22,0,.45,0,.69,0s.49.08.76.14v-.32a2.84,2.84,0,0,0-.08-.66,1.36,1.36,0,0,0-.82-.91,2.47,2.47,0,0,0-.84-.13,7,7,0,0,0-1.26.1,5.57,5.57,0,0,0-.92.23l-.25-1.6a8,8,0,0,1,1.09-.26A8.31,8.31,0,0,1,542.78,147.21Zm.17,7.35a7.64,7.64,0,0,0,1.38-.1v-2.18a2.47,2.47,0,0,0-.47-.1,4.83,4.83,0,0,0-.68-.05,4.89,4.89,0,0,0-.66.05,1.89,1.89,0,0,0-.61.18,1.08,1.08,0,0,0-.43.36,1.26,1.26,0,0,0,.28,1.57A2.26,2.26,0,0,0,543,154.56Z"/><path class="cls-7" d="M555.85,155.68a12.06,12.06,0,0,1-1.48.33,12.32,12.32,0,0,1-1.86.14,4.87,4.87,0,0,1-1.81-.31,3.72,3.72,0,0,1-1.36-.88,3.92,3.92,0,0,1-.86-1.4,5.17,5.17,0,0,1-.31-1.85,6.2,6.2,0,0,1,.26-1.84,4,4,0,0,1,.74-1.4,3.14,3.14,0,0,1,1.19-.91,3.85,3.85,0,0,1,1.61-.32,3.59,3.59,0,0,1,1.09.15,5,5,0,0,1,.82.33v-4.09l2-.33Zm-5.66-4a3.09,3.09,0,0,0,.62,2,2.11,2.11,0,0,0,1.71.74,6.24,6.24,0,0,0,.81,0,4.85,4.85,0,0,0,.55-.09v-4.88a3.52,3.52,0,0,0-.7-.34,2.73,2.73,0,0,0-.92-.15,1.76,1.76,0,0,0-1.57.73A3.51,3.51,0,0,0,550.19,151.66Z"/><path class="cls-7" d="M566.06,151.67a5.34,5.34,0,0,1-.3,1.84,3.92,3.92,0,0,1-.83,1.42,3.6,3.6,0,0,1-1.29.91,4.15,4.15,0,0,1-1.67.33,4.07,4.07,0,0,1-1.66-.33,3.69,3.69,0,0,1-1.29-.91,4.08,4.08,0,0,1-.84-1.42,5.76,5.76,0,0,1,0-3.67,4.15,4.15,0,0,1,.85-1.41,3.76,3.76,0,0,1,1.29-.9,4.41,4.41,0,0,1,3.3,0,3.61,3.61,0,0,1,1.3.9,4.13,4.13,0,0,1,.84,1.41A5.32,5.32,0,0,1,566.06,151.67Zm-2,0a3.3,3.3,0,0,0-.55-2,1.93,1.93,0,0,0-3,0,3.3,3.3,0,0,0-.55,2,3.36,3.36,0,0,0,.55,2,1.92,1.92,0,0,0,3,0A3.36,3.36,0,0,0,564,151.67Z"/><circle class="cls-30" cx="132.48" cy="174.65" r="14.03"/><path class="cls-30" d="M140.08,186.45l-2.39-15.81L135,173.35l-11.06-2.09,1.79,15.68A14.06,14.06,0,0,0,140.08,186.45Z"/><polygon class="cls-7" points="139.24 181.19 137.69 170.64 135.61 172.79 128.79 166.21 123.91 171.26 130.73 177.85 128.65 180 139.24 181.19"/><circle class="cls-30" cx="405.79" cy="165.08" r="14.03"/><path class="cls-30" d="M411.37,178l.22-16-3.12,2.24-10.58-3.86-.79,15.76A14,14,0,0,0,411.37,178Z"/><polygon class="cls-7" points="411.41 172.62 411.59 161.96 409.19 163.75 403.53 156.15 397.89 160.34 403.55 167.95 401.14 169.74 411.41 172.62"/></g></svg>