<svg xmlns="http://www.w3.org/2000/svg" viewBox="0 0 579.67 365.17"><defs><style>.cls-1{fill:#8c8c8c;}.cls-2{fill:#caa48b;}.cls-3{fill:#c4d2dd;}.cls-4{fill:#ddbea6;}.cls-5{fill:#e9d5bb;}.cls-6{fill:#d2dfe9;}.cls-7{fill:#fff;}.cls-8{fill:#7f5f40;}.cls-9{fill:#6b4425;}.cls-10{fill:#434c6d;}.cls-11{fill:#ece8d8;}.cls-12{fill:#c9b693;}.cls-13{fill:#ebb916;}.cls-14{fill:#f2f2f2;}.cls-15{fill:#e5e5e5;}.cls-16{fill:#666;}.cls-17{fill:#f7d04a;}.cls-18{fill:#f3b41b;}.cls-19{fill:#eb6836;}.cls-20{fill:#62c9cc;}.cls-21{fill:#ef9d3c;}.cls-22{fill:#50a9a9;}.cls-23{fill:gray;}.cls-24{fill:#ff757c;}.cls-25{fill:#0e7886;}.cls-26{fill:#15bdb1;}.cls-27{fill:#fbb429;}.cls-28{fill:#c8cacc;}.cls-29{fill:#31c0ff;}.cls-30{fill:#c6c6c6;}</style></defs><title>metodo</title><g id="Layer_2" data-name="Layer 2"><rect class="cls-1" x="147.23" y="311.27" width="136.77" height="47.33" rx="3.48" ry="3.48"/><rect class="cls-1" x="418.52" y="177.52" width="151" height="47.33" rx="3.48" ry="3.48"/><rect class="cls-1" x="264.98" y="70.19" width="151" height="47.33" rx="3.48" ry="3.48"/><rect class="cls-1" x="6.79" y="70.17" width="170.67" height="47.33" rx="3.48" ry="3.48"/><rect class="cls-2" x="86.7" y="173.04" width="14.35" height="15.73"/><path class="cls-3" d="M102.79,182.41s13.64,2,15.65,4.09c1.76,1.83,5.4,19.33,6.25,23.17H93.88V183.15Z"/><path class="cls-4" d="M93.88,128c7,0,18,4,18,22.51,0,10.71-3.5,17.73-5,19.67-1.4,1.79-9.27,5.6-13,5.6Z"/><path class="cls-4" d="M115.32,155c.31-3-1.1-5.59-3.15-5.87s-4,1.89-4.27,4.86,1.1,5.59,3.16,5.87S115,157.93,115.32,155Z"/><path class="cls-5" d="M93.88,128c-7,0-18,4-18,22.51,0,10.71,3.49,17.73,5,19.67,1.4,1.79,9.27,5.6,13,5.6Z"/><path class="cls-5" d="M72.43,155c-.3-3,1.11-5.59,3.16-5.87s4,1.89,4.26,4.86-1.1,5.59-3.15,5.87S72.74,157.93,72.43,155Z"/><path class="cls-6" d="M85,182.41s-13.64,2-15.65,4.09c-1.75,1.83-5.4,19.33-6.24,23.17H93.88V183.15Z"/><polygon class="cls-7" points="93.88 183.15 86.59 180.22 84.8 182.04 88.42 190.08 93.88 183.15"/><polygon class="cls-7" points="93.88 183.15 101.16 180.22 102.95 182.04 99.33 190.08 93.88 183.15"/><path class="cls-8" d="M112.25,149.53s5.89-26.87-18.5-26.87-18.36,26.13-18.36,26.13,3.35-1.92,3.35,6.66h.62a97.77,97.77,0,0,0,1.54-10.91c8.63,0,16.25-1.11,22.66-6.41,3.64,0,4.14,4.53,4.14,8l-1.6.62s1.55,3,1.66,8.7h1.1S108.7,146,112.25,149.53Z"/><path class="cls-7" d="M93.88,168.81c3.24,0,5.88-1.08,5.88-2.4H88C88,167.73,90.63,168.81,93.88,168.81Z"/><path class="cls-9" d="M224.79,213.55v-1.42a1.42,1.42,0,0,0-1.42-1.43H203.45a1.43,1.43,0,0,0-1.42,1.43v1.42H182.11a2.85,2.85,0,0,0-2.85,2.84v74a2.85,2.85,0,0,0,2.85,2.85h62.6a2.84,2.84,0,0,0,2.85-2.85v-74a2.84,2.84,0,0,0-2.85-2.84Z"/><path class="cls-10" d="M223.37,222.09H203.45a1.43,1.43,0,0,1-1.42-1.43v-8.53a1.43,1.43,0,0,1,1.42-1.43h19.92a1.42,1.42,0,0,1,1.42,1.43v8.53a1.42,1.42,0,0,1-1.42,1.43"/><path class="cls-11" d="M224.79,219.24v1.42a1.42,1.42,0,0,1-1.42,1.43H203.45a1.43,1.43,0,0,1-1.42-1.43v-1.42H186.38a1.43,1.43,0,0,0-1.43,1.42v65.45a1.43,1.43,0,0,0,1.43,1.43h54.06a1.43,1.43,0,0,0,1.43-1.43V220.66a1.43,1.43,0,0,0-1.43-1.42Z"/><path class="cls-12" d="M213.41,266.19H192.07a1.42,1.42,0,1,1,0-2.84h21.34a1.42,1.42,0,0,1,0,2.84"/><path class="cls-12" d="M213.41,273.31H192.07a1.43,1.43,0,1,1,0-2.85h21.34a1.43,1.43,0,0,1,0,2.85"/><path class="cls-12" d="M213.41,280.42H192.07a1.42,1.42,0,1,1,0-2.84h21.34a1.42,1.42,0,0,1,0,2.84"/><path class="cls-13" d="M252.91,293.23H219.2a1.76,1.76,0,0,1-1.52-2.65l16.85-28.89a1.76,1.76,0,0,1,3.05,0l16.85,28.89a1.76,1.76,0,0,1-1.52,2.65"/><path class="cls-7" d="M236.18,283.27a1.43,1.43,0,0,1-1.43-1.42V270.46a1.43,1.43,0,0,1,2.85,0v11.39a1.43,1.43,0,0,1-1.42,1.42"/><path class="cls-7" d="M236.18,289a1.52,1.52,0,0,1-1-.41,1.43,1.43,0,1,1,2-2,1.45,1.45,0,0,1,0,2,1.5,1.5,0,0,1-1,.41"/><path class="cls-12" d="M231.6,239h-36c-1.33,0-2.4-.64-2.4-1.43s1.07-1.42,2.4-1.42h36c1.32,0,2.4.64,2.4,1.42s-1.08,1.43-2.4,1.43"/><path class="cls-12" d="M231.6,245.94h-36c-1.33,0-2.4-.63-2.4-1.42s1.07-1.42,2.4-1.42h36c1.32,0,2.4.63,2.4,1.42s-1.08,1.42-2.4,1.42"/><path class="cls-12" d="M231.6,253.86h-36c-1.33,0-2.4-.63-2.4-1.42s1.07-1.42,2.4-1.42h36c1.32,0,2.4.63,2.4,1.42s-1.08,1.42-2.4,1.42"/><path class="cls-12" d="M236.27,230.52H190.93c-1.67,0-3-.81-3-1.8s1.35-1.79,3-1.79h45.34c1.67,0,3,.8,3,1.79s-1.35,1.8-3,1.8"/><path class="cls-14" d="M379.35,148.84l-12.69-12.68a1.19,1.19,0,0,0-.84-.35H317.63a1.19,1.19,0,0,0-1.19,1.19v69.76a1.19,1.19,0,0,0,1.19,1.19h60.88a1.2,1.2,0,0,0,1.19-1.19V149.68A1.22,1.22,0,0,0,379.35,148.84Z"/><path class="cls-15" d="M379.69,149.63a1.19,1.19,0,0,0-.34-.79l-12.69-12.68a1.19,1.19,0,0,0-.84-.35h-.05v12.63a1.19,1.19,0,0,0,1.19,1.19Z"/><path class="cls-15" d="M317.63,135.81a1.19,1.19,0,0,0-1.19,1.19v69.76a1.19,1.19,0,0,0,1.19,1.19h55.75L324,135.81Z"/><path class="cls-16" d="M335.54,132H307.32a3.57,3.57,0,0,0-3.56,3.56v38.37a3.57,3.57,0,0,0,3.56,3.57h28.22a3.57,3.57,0,0,0,3.57-3.57V135.57A3.57,3.57,0,0,0,335.54,132Z"/><path class="cls-17" d="M357,168.79a17.68,17.68,0,1,0,17.67,17.67A17.7,17.7,0,0,0,357,168.79Z"/><path class="cls-18" d="M360.43,200.65a17.67,17.67,0,0,1-14.11-28.3,17.67,17.67,0,1,0,24.74,24.74A17.54,17.54,0,0,1,360.43,200.65Z"/><path class="cls-19" d="M359.66,185.43l-1.84-.05v-6.6H362a1.19,1.19,0,0,0,0-2.38h-4.2v-1.35a1.19,1.19,0,0,0-2.38,0v1.35h-1.19a3.57,3.57,0,0,0-3.57,3.56v4.13a3.57,3.57,0,0,0,3.55,3.56l1.21,0v6.46h-3.57a1.19,1.19,0,0,0,0,2.38h3.57v1.35a1.19,1.19,0,0,0,2.38,0v-1.35h1.82a3.57,3.57,0,0,0,3.57-3.57v-4A3.57,3.57,0,0,0,359.66,185.43Zm-5.37-.15h0a1.2,1.2,0,0,1-1.19-1.19V180a1.19,1.19,0,0,1,1.19-1.18h1.19v6.53Zm6.54,7.68a1.19,1.19,0,0,1-1.19,1.19h-1.82v-6.39l1.79.05h0a1.19,1.19,0,0,1,1.19,1.19Z"/><path class="cls-14" d="M334.12,135.81H308.75a1.19,1.19,0,0,0-1.19,1.19v6.34a1.19,1.19,0,0,0,1.19,1.19h25.37a1.19,1.19,0,0,0,1.19-1.19V137A1.19,1.19,0,0,0,334.12,135.81Z"/><path class="cls-20" d="M308.75,135.81a1.19,1.19,0,0,0-1.19,1.19v6.34a1.19,1.19,0,0,0,1.19,1.19h5.15l8.72-8.72Z"/><path class="cls-20" d="M334.12,135.81h-4.44L321,144.53h13.16a1.19,1.19,0,0,0,1.19-1.19V137A1.19,1.19,0,0,0,334.12,135.81Z"/><path class="cls-21" d="M313.82,146h-5.07a1.19,1.19,0,0,0-1.19,1.19v5.07a1.19,1.19,0,0,0,1.19,1.19h5.07a1.19,1.19,0,0,0,1.19-1.19v-5.07A1.19,1.19,0,0,0,313.82,146Z"/><path class="cls-21" d="M323.89,146h-5.07a1.19,1.19,0,0,0-1.19,1.19v5.07a1.19,1.19,0,0,0,1.19,1.19h5.07a1.19,1.19,0,0,0,1.19-1.19v-5.07A1.19,1.19,0,0,0,323.89,146Z"/><path class="cls-21" d="M313.82,156.11h-5.07a1.18,1.18,0,0,0-1.19,1.18v5.08a1.19,1.19,0,0,0,1.19,1.19h5.07a1.19,1.19,0,0,0,1.19-1.19v-5.08A1.18,1.18,0,0,0,313.82,156.11Z"/><path class="cls-21" d="M323.89,156.11h-5.07a1.18,1.18,0,0,0-1.19,1.18v5.08a1.19,1.19,0,0,0,1.19,1.19h5.07a1.19,1.19,0,0,0,1.19-1.19v-5.08A1.18,1.18,0,0,0,323.89,156.11Z"/><path class="cls-21" d="M313.82,166.25h-5.07a1.19,1.19,0,0,0-1.19,1.19v5.07a1.19,1.19,0,0,0,1.19,1.19h5.07a1.19,1.19,0,0,0,1.19-1.19v-5.07A1.19,1.19,0,0,0,313.82,166.25Z"/><path class="cls-21" d="M323.89,166.25h-5.07a1.19,1.19,0,0,0-1.19,1.19v5.07a1.19,1.19,0,0,0,1.19,1.19h5.07a1.19,1.19,0,0,0,1.19-1.19v-5.07A1.19,1.19,0,0,0,323.89,166.25Z"/><path class="cls-21" d="M334,146H329a1.18,1.18,0,0,0-1.18,1.19v5.07a1.18,1.18,0,0,0,1.18,1.19H334a1.19,1.19,0,0,0,1.19-1.19v-5.07A1.19,1.19,0,0,0,334,146Z"/><path class="cls-17" d="M334.12,156.11H329a1.19,1.19,0,0,0-1.19,1.18v15.22A1.19,1.19,0,0,0,329,173.7h5.08a1.19,1.19,0,0,0,1.19-1.19V157.29A1.19,1.19,0,0,0,334.12,156.11Z"/><path class="cls-16" d="M347.93,145.8a1.19,1.19,0,0,1-.88-.39l-2.3-2.54a1.19,1.19,0,1,1,1.76-1.59l2.3,2.53a1.19,1.19,0,0,1-.08,1.68A1.17,1.17,0,0,1,347.93,145.8Z"/><path class="cls-20" d="M372.59,163.77l-18.94-19a1.2,1.2,0,0,0-.61-.32l-4.48-.9a1.18,1.18,0,0,0-1.4,1.4l.89,4.48a1.22,1.22,0,0,0,.33.61L367.32,169a3.65,3.65,0,0,0,2.91,1,3.91,3.91,0,0,0,2.36-1.25A3.57,3.57,0,0,0,372.59,163.77Z"/><rect class="cls-20" x="353.79" y="144.77" width="7.45" height="18.38" transform="translate(-4.15 297.89) rotate(-45)"/><path class="cls-17" d="M348.56,143.6a1.2,1.2,0,0,0-1.4,1.4l.89,4.48a1.22,1.22,0,0,0,.33.61l5.27-5.27a1.2,1.2,0,0,0-.61-.32Z"/><path class="cls-22" d="M372.59,163.77l-5.94-6-5.27,5.27,5.94,5.95a3.64,3.64,0,0,0,2.86,1,3.82,3.82,0,0,0,2.41-1.24A3.57,3.57,0,0,0,372.59,163.77Z"/><path class="cls-16" d="M370.74,164.79a1.19,1.19,0,0,1-.84-2l1.83-1.83-5.59-5.31a1.19,1.19,0,1,1,1.64-1.72l6.47,6.15a1.18,1.18,0,0,1,0,1.7l-2.69,2.69A1.18,1.18,0,0,1,370.74,164.79Z"/><path class="cls-23" d="M333.17,188.92h-7.93a1.19,1.19,0,0,1,0-2.38h7.93a1.19,1.19,0,0,1,0,2.38Z"/><path class="cls-23" d="M333.17,195.26h-7.93a1.19,1.19,0,1,1,0-2.37h7.93a1.19,1.19,0,0,1,0,2.37Z"/><path class="cls-24" d="M496.86,329.49A47.47,47.47,0,1,0,449.39,282,47.55,47.55,0,0,0,496.86,329.49Z"/><path class="cls-25" d="M496.86,258.23a42,42,0,0,1,42,42q0,2.19-.21,4.32a47.48,47.48,0,0,1-83.58,0c-.14-1.42-.22-2.86-.22-4.32A42,42,0,0,1,496.86,258.23Z"/><path class="cls-26" d="M523.1,267.44A42,42,0,0,1,538.24,293a3.42,3.42,0,0,1-.39-.83,8.21,8.21,0,0,1-1.82.45l0,.06c-.38.55,0,.32-.66.89a19.75,19.75,0,0,1-2.23,2.16,15.29,15.29,0,0,1-.16,2.31c-.09.42-.56,1.55-1.12,1.47a12.24,12.24,0,0,1-1.09-2.37,20.17,20.17,0,0,1-.84-2.49c-.12-.53-.2-1.54-.33-1.9-.57.09-.55.46-1.1.07-.39-.28-.21-.45-.43-.87-.46-.44-.93-.87-1.4-1.3-.36-.12-1.76.09-2.35,0-1.06-.09-1.16,0-1.79-.88-1.12.06-1,.47-2.11-.46-.71-.61-.58-1.57-1.62-1,0,.89.39,1.08.78,1.49s.64.53.78.95a4,4,0,0,1,.1.46c1,.07,1.25-.42,1.8-.83.54.51,0,.6.79,1,.62.32.5.13.9.64.21.68-1.38,2.52-1.91,2.85s-.61.11-1,.41c-.53.45.07.39-.87.73s-2,1.15-3.07,1.21l-.68-1.89c-.68-2.17-.65-1.33-1.33-2.45-.33-.49-.19-.8-.41-1.23s-.37-.46-.58-.86c-.31-.61-.67-1.57-1.38-1.47-.15.48.66,2.12.86,2.52s.52.57.62,1.14c.13.78,0,.69.4,1.21.9,1.09,0,.9,1.36,2,1,.8.78,1,1.22,2.1.69.2,2.73-.72,3.08-.45.42.74-.48,1.93-.71,2.57-.75,2.17-2.07,2.14-3.08,3.8a15.06,15.06,0,0,0-1.32,2.09c-.58,1.21,1.17,4.58.12,6a19.35,19.35,0,0,0-1.89,1.49c-1,1.07,0,.89-.35,2.66-.3.41-.66.43-1,.72a8,8,0,0,1-.26,1.27c-.24.63-.28.29-.63.8a7.71,7.71,0,0,1-.53.93,3.48,3.48,0,0,1-.63.64,5.47,5.47,0,0,1-3.9,1c-.59-.5-.19-.63-.33-1.34a6,6,0,0,0-.76-1.63l0-.05a3.81,3.81,0,0,1-.33-.68c-.48-1.53-.31-2.69-1.15-4.25-1.07-2,.59-3,.52-4.17,0-.31-.13-.49-.16-.73a6.2,6.2,0,0,0-1.16-3.35c-.91-1.06-.79-.68-.5-2.44.38-2-.48-1.5-1.69-1.55-.59-1.83-1.75-.94-2.91-.4-.72.33-1-.1-1.81,0-1.83.25-.39,1-2.84-.9-1-.81-.34-.4-.94-1.41a13.62,13.62,0,0,0-1.11-1.22c-.92-1.16.18-2.34,0-3.67-.28-2.48-.69-.33.7-3.32.73-1.59,1.83-1.6,2.11-2.32s.08-1.08.54-1.66,1-.38,1.21-1.12c.32-.92-.3-1-1-1.06-.28-1-.28-.72-.07-1.6.12-.5,0-.74.12-1.23.27-1.24,2.39,0,3-.52a1.45,1.45,0,0,0,0-1.55c-.34-.51-.78-.44-1-.93.51-.34.14,0,.58-.14s.46-.27,1.08-.38.9-.62,1.44-1c.76-.5.4-.94,1.33-1.09,1.49-.26.52-.22.68-1.61a6.54,6.54,0,0,0,.66-.28c.47.62-.12.37.44.78.15-.09.33-.17.49-.26-.08-.67-.39-.54-.59-1.37-.74.12-1,.75-1.6.52s-.61-1-.58-1.73c.21-.52,1.29-.8,1.71-.93.67-.23.57-.68,1.19-1.29.81-.81.22,0,.61-1,.89,0,.47-.07,1-.34h0l.05,0c.31-.14.72-.17,1.12-.31a3.63,3.63,0,0,1,3.16.19c.83.34,3.35.36,3.54,1.41-.61.64-1.18.17-2.06.23.16.82.23.82,1,1,.12-.39-.06-.23.15-.48l.72.14c.25-.83.53-.71,1.35-.81-.14-.57-.28-.41,0-.86.84.09.16,0,.57.69.6-.08,1.17-.73,2-.82.52-.05.49.14,1.21.06s.57-.28,1.16,0c.22-.4,0-.39.53-.48.8-.14,1.5.35,2.28.46-.58-.71-1.13-.57-.41-1.75.9-.19,1-.06,1.37.62a5.16,5.16,0,0,0,.42-.31Zm-45.23,58.09h0c-1.4-.61-2.77-1.29-4.09-2,0-.06,0-.12,0-.19-.2-1.2.31-1.32-.25-3.32-.37-1.31-.22-4.44-.62-6a2.53,2.53,0,0,0-.23-.63c-.36-.61-1.25-.89-2-1.37,0,0-.07,0-.08,0-1-.68-1.91-3.39-2.69-4.4-.36-.48-.59-.27-.76-1s.1-.58.33-1.17c-1.2-2.19,1.54-2.16,1-4.8a2.92,2.92,0,0,0-.77-1.38c-.56.25-.29.39-.59.86l-1.36-.77c-1.38-1.34-.64-.37-1-1.24-.83-1.83-1.63-.81-2.62-1.71-.45-.38-.53-1-1.27-.86-1.12.15-.5.32-1.65-.22a10.81,10.81,0,0,1-2.69-1.63c0-1,.32-1-.29-1.91a3.27,3.27,0,0,0-.35-.48,42,42,0,0,1,12.71-22,4.64,4.64,0,0,0,1.62,0c.17-.32.28-.6.59-.72a1.3,1.3,0,0,1,.47,0c0,.16.07.32.11.48s0,.12,0,.1,0,.07,0,.1c.85-.5.14-.51.59-1.4-.71-.14-.61-.06-1.06-.51a2.44,2.44,0,0,1,1.88-.59c0,.43-.24.42-.08.78.49-.3.82-1.1,1.6-.95l.49.3a4.81,4.81,0,0,1-1.53.61c-.23,2.34.74.38.41,2a1.76,1.76,0,0,0,1.36-.89c-.21-.28-.52-.28-.7-.61a1.6,1.6,0,0,1,.84-1,2.25,2.25,0,0,1,1-.2c4.27,0,2.24.23,3.56.83.3.13.82.2,1,.46.27.41,0,.79.44,1.12s.43,0,.93.61a.92.92,0,0,1-.89.73c-.72,0-.29-.48-1.07-.41,0,.73.74,1,.06,1.41s-.21-.12-.66.12l-.06.05-.07.07-.22.24c-1.07-.29-.87-.16-1.52-.87-.24-.27-.28-.34-.71-.3-.27,0-.62.12-.87-.11.52-.66.78,0,1.55-.41a10.53,10.53,0,0,0,1.11-.87c-.23-.52,0-.09-.36-.43-.75-.76-1-.57-2-.57a7.14,7.14,0,0,1-1.36,1.53,1.22,1.22,0,0,1-1.18,0c.23.93.82.22.87,1.34-.39-.08-.59-.27-1-.13-.87.32-.1.29,0,.46,0,0,.4.06,0,.21s-.07-.09-.93-.59l.36-.67a17.27,17.27,0,0,0-2.39,1,10.94,10.94,0,0,0-2.33,1.47c0,.81.14.27.22,1.23,1.25.08.85.45,2.1.81.24.06.55.13.93.19,0,.61-.54,1.06-.17,1.68.88.61.9-.58,1.12-1.34,3-.62,1.53-1.49,2.3-3.12a3.32,3.32,0,0,1,.51-.78c.23,0,1.16.11,1.36.15.67.12.31.28,1,.6,0,.58-.31,1.34.56,1.2.65-.12.51-.64,1.31-.77a7.31,7.31,0,0,1,.43,2.24c1.94.76,1.08,1.37.7,2.78.25.12.5.23.76.33,0,.41,0,.81,0,1.21,0,0-2.08-.44-2.21-.48.31-.89.87-.9,1.24-1.8-.73.13-.68.35-1.2.52a7.24,7.24,0,0,1-1.33.1c-.18.58,0-.5,0,.24,0,.28.16,0,0,.31-.67-.31-.44-1-1.69-.36l.86.36c0,.83-.11.21-.28.76-.43,1.41,1.17.53,1.58.46-.1.74-.56.74-1.21.95s-.92.5-1.49.63c0-.88-.13-.14.25-.75a5,5,0,0,0-1.52.54l-.05,0c-.69.28-.79.32-.87,1.2a4.15,4.15,0,0,0-1.7.82l-1.24,1.19-.09.08c.15,1.11,0,1.13-.67,1.57a6.9,6.9,0,0,0-1.28.81c-1.68,1.51-.87.81-.78,3.41-.35-.11-.69-.23-1-.35-.25-1.72.09-1.15-1.29-1.55s-1.29.3-1.91.43-1-.62-2,0c-.55.38-1.07.63-1.21,1.3a8.11,8.11,0,0,0-.47,2.29c.1,2.42,2.3,2.56,2.87,1.43.37-.75.28-1.16,1.5-1a3,3,0,0,1-.23,1.62c-.1.29-.4.82-.25,1.22.87.35.9-.32,2.06.37.08,1.15-.53,2.45.36,3.11.68.51.73.06,1.33-.05s.55.3,1.17.4c.35-.43.2-.16.43-.69.41-.91.51-.48,1.47-1l.27-.18c.1.23.23.45.33.66.7-.83.78,0,1.59.21a3.87,3.87,0,0,0,.78.13c.59,0,.65-.28,1.45,0a1.83,1.83,0,0,0,.33.11s0,0,0,.05l.07.05a2.94,2.94,0,0,1,.25.46l1.64,1.58c1.06.42,1.06-.37,2.28.8.51.49.28.48.56,1.1,0,.1.12.2.17.31.11.3.23.57.35.85.56.73,1.31.27,2.08,1,.44.43.1.3,1.08.47,1.52.25.93.11,2.09,1,.44.32.55.14,1,.42a2,2,0,0,1-.06,2.39c-1.49,2.18-1,1.82-1.05,3.55-.05,1-.33,3-1.26,3.28-3.38.95-1.41,1.61-2.3,3.27-.25.48-.44.6-.6,1-.68,1.58-.21,2.1-2.2,1.75.19.33.07.11.26.41.59.91.69,1.6-.53,1.83-1,.19-.57,0-.67,1.12-.39.16-.56,0-.82.26l.1.17ZM469,268.79h0c.26,0,.26-.14.94-.31a.58.58,0,0,0-.15-.31l0,0-.77.67ZM505,281.28h0l0,0a1.64,1.64,0,0,1-.26-.2c-.6-.53-.72-1-1.38-.88a1,1,0,0,0,.3.84c.91,1.14.63.75,1.34,1.17l0,0a6.77,6.77,0,0,1,.63.42c-.91.81-.06.9-.63,1.17h0l-.14.06c-.19-.47.23-.25-.26-.93a2,2,0,0,0-.94-.66c-1.05-.5-.91-.88-1.56-1.53-.73,0-.56.25-1.08.51s-.52-.06-1.25,0c-.59,1,.26.17-.82,1-1.29,1-.23,2.05-2.3,2.36a1.48,1.48,0,0,0-.35,0c-.39.14-.16,0-.39.25.18.41-.06.34.64.44,1.27.17,1.44-.61,2.36-.81a32.42,32.42,0,0,1,3.53-.16c.61.69.1,1.18.1,1.76.68.35,1.63.44,2,.81s.23.35.45.43h0l.41.15a2.94,2.94,0,0,0,1.09.33c.52-1.76,0-1.57,2.51-.77s1.45.08,2.57.2c.55.05.4.22,1.17.13.15-.3,1.24-3-.18-2.69-.41.1-.13.25-.72.1s0-.28-.71-.18-1.48.69-2-1.35c-.2-.73-.56-1.36-1.4-.26.22.38.37.41.61.78a4.43,4.43,0,0,1-.38.46c-.45.46.19.24-.55.34-.4-.3-.32-.69-.71-1.23-.69-1-.24-.54-.59-1.5a10.86,10.86,0,0,0-1.11-.66Zm14.37,29h0c-.6.3-.68,1-1.12,1.38s-1.13.23-1.32,1c-.24,1,.4.71-.31,2.05a2.4,2.4,0,0,0,.12,2.1c1.17,1.13,1.81-1.72,2.07-2.62.21-.63.4-1.35.61-1.95A1.88,1.88,0,0,0,519.32,310.28Zm-1.94-30h0a3.58,3.58,0,0,0,1.42,2.42c-.06.63-.21.47-.2,1.34a2.11,2.11,0,0,0,2,.53c.12-1.06-.22-1-.54-1.73a1,1,0,0,1,.23-.21c.24-.32.12.13.24-.42-.63-.21-1.65-.85-1.73-1.7.31-.25.21-.1.44-.25.5-.32.12.17.42-.38-.26-.49-.54-.58-1.16-.33a8.2,8.2,0,0,0-1.13.73Zm-5.5.34h0c-.42-.58-.39-.87-1.2-.89a4.06,4.06,0,0,0-.87,1.39c-.27.8-.08.25-.06,1.11a.41.41,0,0,0,0,.11c0,.51-.13-.1-.05.37.63-.13.15-.11.62-.27a7.16,7.16,0,0,1,2.19-.46c.93.22,1.71.95,2.76.22-.06-.94-1.19-1.3-2-1.71.05-.86.27-.18.22-1a1.35,1.35,0,0,0-.69.06c-.6.27-.27.34-.27.44,0,.46.61-.1,0,.47a1.2,1.2,0,0,1-.67.17Zm-15.71-6.52h0c0,1.51.5,1,1,1.74-.22.64-.27.14-.52.8s.05.06-.09,1c.39,0,1-.12,1.47-.16.73-.06.72-.13,1-.87-.4-.5-.8-1-1.22-1.49-.53-.8,0-.25-.16-.91-.12-.24-.23-.48-.34-.71A1.92,1.92,0,0,0,496.17,274.05Z"/><path class="cls-27" d="M522.75,271.38l-.41-.41-1.67-1.67-.41-.41c-1.32.5-3,2.67-3.63,4l.2.2,1.68,1.68.2.2c1.37-.65,3.54-2.31,4-3.63Z"/><path class="cls-7" d="M522.75,271.38l-.41-.41-1.67-1.67-.41-.41a3.62,3.62,0,0,0-1,.58l2.86,2.86a3.62,3.62,0,0,0,.58-.95Z"/><path class="cls-27" d="M525.56,279.35l-.41-.4-1.67-1.68-.41-.41c-1.32.51-3,2.67-3.63,4l.2.21,1.68,1.67.2.21c1.37-.66,3.54-2.31,4-3.64Z"/><path class="cls-7" d="M525.56,279.35l-.41-.4-1.67-1.68-.41-.41a3.42,3.42,0,0,0-1,.59l2.85,2.86a3.62,3.62,0,0,0,.59-1Z"/><path class="cls-27" d="M502.67,251.3l.4.4,1.68,1.68.41.41c-.5,1.32-2.67,3-4,3.63l-.21-.2-1.67-1.68-.21-.2c.66-1.37,2.31-3.54,3.64-4Z"/><path class="cls-7" d="M502.67,251.3l.4.4,1.68,1.68.41.41a3.57,3.57,0,0,1-.59,1l-2.86-2.86A3.56,3.56,0,0,1,502.67,251.3Z"/><path class="cls-27" d="M494.69,248.49l.41.41,1.68,1.67.4.41c-.5,1.32-2.67,3-4,3.63l-.2-.2-1.68-1.68-.2-.2c.65-1.37,2.31-3.54,3.63-4Z"/><path class="cls-7" d="M494.69,248.49l.41.41,1.68,1.67.4.41a3.37,3.37,0,0,1-.58,1l-2.86-2.86A4,4,0,0,1,494.69,248.49Z"/><path class="cls-7" d="M488.74,286.29l4.92,7,1.57-1.89L492.44,284a10.64,10.64,0,0,0,1.13-1c1.44-1.3,7.75-7.1,13.47-11.75l16.47,23.28,1.5-1.5-9.1-29c3.72-3.07,6.6-5.51,7.38-6.4,2.37-2.71,4.51-6.32,2.82-9.71-3.39-1.69-7,.45-9.71,2.82-.89.78-3.33,3.66-6.4,7.38L481,249l-1.5,1.5L502.76,267c-4.65,5.72-10.45,12-11.75,13.47a10.64,10.64,0,0,0-1,1.13l-7.36-2.79-1.9,1.57,7,4.92c-.76,1.31-.33,1.74,1,1Z"/><path class="cls-28" d="M488.74,286.29l4.92,7,.38-.45-4.77-6.9-.53.36Z"/><path class="cls-28" d="M481.22,280l-.46.38,7,4.92.36-.53-6.9-4.77Z"/><path class="cls-28" d="M507,271.29l16.47,23.28.58-.58L508,270.49Z"/><path class="cls-28" d="M480.06,250l-.58.58L502.76,267l.79-1L480.05,250Z"/><path class="cls-26" d="M524.69,249.35a2.84,2.84,0,0,0-1.18-.7l-.27.76a3.8,3.8,0,0,1,.79.61,4.17,4.17,0,0,1,.61.79l.76-.27a2.85,2.85,0,0,0-.71-1.19Zm-1.79-.83h0a4.66,4.66,0,0,0-2.2.31,4.43,4.43,0,0,1,2,.3Zm2,2.84h0a4.5,4.5,0,0,1,.3,2,4.8,4.8,0,0,0,.31-2.2Z"/><path class="cls-7" d="M483.67,290.85h0l.1-.09.1-.1.1-.09.1-.1.1-.1.1-.1.1-.09.1-.1.11-.1.1-.1.1-.1.1-.1.11-.1.1-.1.11-.1.1-.1.11-.1.1-.1.11-.11.1-.1.11-.1.11-.11.11-.1.1-.11.11-.1.11-.11.11-.11.11-.1.11-.11.11-.11-.61-.62-.11.1-.11.11-.11.11-.11.1-.11.11-.11.11-.1.1-.11.1-.11.11-.1.1-.11.1-.1.11-.11.1-.1.1-.11.1-.1.1-.11.1-.1.1-.1.1-.11.1-.1.1-.1.1-.1.1-.1.09-.1.1-.11.1-.1.09-.09.1-.1.1-.1.09h0l.61.63Zm49-.36h0l-.11.27-.1.27-.1.26-.11.26-.1.25-.11.25-.1.25-.11.24-.1.24-.11.24-.1.23-.11.23-.1.23-.11.22h0l.78.38h0l.11-.23.11-.23.1-.24.11-.23.11-.24.11-.25.1-.25.11-.25.11-.25.1-.26.11-.27.1-.27.11-.27.1-.27-.81-.31Zm-2.69,5.73h0l-.05.09-.11.17-.11.18-.11.17-.1.16-.11.17-.11.16-.11.15-.1.16-.11.15-.11.14-.11.15-.11.14-.11.14-.1.14-.11.13-.11.13-.11.13-.11.12-.11.12-.11.12-.11.12-.11.11-.11.12h0l.62.63,0,0,.12-.12.12-.12.11-.12.12-.13.11-.13.12-.13.11-.14.12-.13.11-.15.12-.14.11-.14.12-.15.11-.16.11-.15.12-.16.11-.16.11-.16.11-.17.12-.17.11-.17.11-.18.11-.18.11-.18.06-.09-.75-.45Zm-4.53,5h0l-.11.07-.11.06-.11.06-.11.07-.12.06-.11.05-.11.06-.12.05-.11.06-.11,0-.12.05-.11,0-.11.05-.12,0-.11,0-.12.05-.11,0-.12,0-.11,0-.12,0-.11,0-.12,0-.12,0-.11,0-.12,0-.12,0-.12,0-.11,0-.12,0-.12,0-.12,0h-.12l-.12,0-.12,0h0l.11.87h0l.13,0,.13,0,.13,0,.12,0,.13,0,.13,0,.12,0,.13,0,.13,0,.12,0,.13,0,.13,0,.12,0,.13,0,.13,0,.12,0,.13-.05.12,0,.13,0,.12-.05.13,0,.12-.05.12-.05.13-.05.12-.06.13-.05.12-.06.12-.06.13-.07.12-.06.12-.07.12-.07.13-.07.12-.07h0l-.46-.74Zm-6.49,1.5h-4.36l0,.87h4.38v-.87Zm-7-.08h-.4l-.14,0h-.14l-.15,0h-.14l-.14,0-.15,0-.14,0-.15,0-.14,0-.15,0-.15,0-.14,0-.15,0-.15,0-.14,0-.15,0-.15,0-.15,0-.15,0-.14,0-.15,0-.15,0-.15,0-.15,0-.15.05-.15.05-.15.05h0l.29.82h0l.14-.05.14-.05.14,0,.14-.05.14,0,.15,0,.14,0,.14,0,.14,0,.14,0,.14,0,.14,0,.14,0,.13,0,.14,0,.14,0,.14,0,.14,0,.14,0,.14,0,.14,0,.13,0,.14,0h.14l.14,0h.13l.14,0H512l-.07-.87Zm-6.84,2h0l-.12.06-.15.09-.16.09-.15.1-.16.09-.15.1-.16.1-.15.11-.16.1-.15.11-.16.11-.16.12-.15.11-.16.12-.16.12-.15.13-.16.12-.16.13-.16.13-.15.14-.16.14-.16.14-.16.14,0,0,.6.64,0,0,.15-.14.16-.14.15-.13.15-.13.15-.13.15-.12.15-.12.15-.12.15-.12.15-.11.15-.11.15-.11.15-.1.15-.11.15-.1.15-.1.14-.09.15-.09.15-.1.15-.08.14-.09.15-.09.12-.06-.44-.76Zm-5.46,4.54h0l0,0-.16.18-.15.18-.16.18-.16.17-.15.18-.16.17-.15.17-.16.16-.15.17-.16.16-.15.16-.16.16-.15.15-.15.16-.16.15-.15.15-.15.15-.15.14-.15.15,0,0,.59.64,0,0,.16-.14.16-.15.15-.15.16-.16.15-.15.16-.16.16-.16.16-.16.15-.17.16-.16.16-.17.16-.17.16-.17.15-.18.16-.17.16-.18.16-.18.16-.18.16-.18v0l-.65-.58ZM494.65,314h0l-.11.09-.14.11-.15.11-.14.11-.15.11-.14.11-.15.1-.14.11-.15.1-.14.1-.14.09-.14.1-.15.09-.14.1-.14.09-.14.09-.14.08-.14.09-.14.08-.14.08-.14.08-.14.08-.14.08-.13.07-.14.07-.07,0,.4.78.08,0,.14-.08.15-.08.14-.08.14-.08.15-.08.14-.09.15-.08.14-.09.15-.09.15-.09.14-.1.15-.09.15-.1.15-.1.15-.1.14-.1.15-.11.15-.11.15-.1.15-.12.15-.11.15-.11.15-.12.16-.12.1-.08-.54-.69Zm-5.92,3.36h0l-.11,0-.13,0-.13,0-.13,0-.13,0-.12,0-.13,0-.12,0-.13,0-.12,0-.13,0-.12,0-.13,0-.12,0-.12,0-.12,0-.12,0-.12,0-.12,0h-.12l-.12,0h-1.55l0,.88h1.56l.13,0h.12l.13,0,.13,0h.13l.13,0,.13,0,.13,0,.14,0,.13,0,.13,0,.13,0,.14,0,.13,0,.13,0,.14,0,.13,0,.14,0,.13,0,.14,0,.14,0,.11,0-.27-.83Zm-6.62.27h-.05l-.1,0-.1,0-.1,0-.1,0-.1,0-.09,0-.1,0-.1,0-.1,0-.09,0-.1,0-.09,0-.1,0-.09,0-.09-.05-.1,0-.09,0-.09-.05-.09-.05-.09,0-.09-.05-.09-.05-.09-.05-.09,0-.09-.05-.09-.06-.08-.05-.09-.05-.09-.06-.08-.05-.09-.06-.08-.06-.08-.06-.09-.05-.08-.06-.08-.06-.08-.06-.08-.07-.08-.06-.08-.06,0,0-.55.68,0,0,.09.07.08.07.09.06.09.07.09.07.09.06.09.06.09.06.09.07.09.06.09.06.09.06.1.05.09.06.09.06.1.05.1.06.09,0,.1.06.1.05.1.05.1.05.1.05.1,0,.1.05.1,0,.1.05.1,0,.11,0,.1.05.1,0,.11,0,.1,0,.11,0,.11,0,.1,0,.11,0,.11,0,.11,0,.11,0h0l.25-.84Zm-5.49-3.71h0l0,0-.06-.08-.06-.08-.07-.08-.06-.08-.06-.08-.06-.08-.06-.08-.06-.09-.06-.08,0-.08-.06-.08-.06-.09-.05-.08-.06-.09-.05-.08-.06-.08-.05-.09,0-.09-.05-.08-.05-.09-.05-.08-.05-.09,0-.09-.05-.09-.05-.08-.05-.09,0-.09-.05-.09,0-.09-.05-.08,0-.09,0-.09-.05-.09,0-.09,0-.09,0-.09,0-.09,0-.09,0-.09,0-.09,0-.1,0-.07-.81.31,0,.09,0,.09,0,.1,0,.1,0,.09,0,.1,0,.1,0,.09,0,.1,0,.09,0,.1.05.09.05.1,0,.09.05.1.05.09.05.09.05.1,0,.09.06.09.05.09.05.1.06.09.05.09.06.09,0,.09.06.09.06.09.06.09.06.09.06.09.06.09.06.08.06.09.06.09.07.08.06.09.07.09.06.08.07.09.06.08.07.09,0,0,.68-.55Zm-2.82-6.08h0a10.64,10.64,0,0,1,0-4.17l-.85-.19a11.28,11.28,0,0,0,0,4.52l.86-.16Zm.84-6.54h0A17.82,17.82,0,0,1,477,297.7l-.68-.56a18.31,18.31,0,0,0-2.46,3.72Zm4.08-5.49h0l.08-.08.07-.08.08-.07.07-.08.08-.08.07-.08.08-.08.08-.08.08-.08.08-.08.07-.08.08-.09.08-.08.08-.08.08-.08.09-.08.08-.09.08-.08.08-.08.09-.08.08-.09.08-.08.09-.08.08-.09.09-.08.08-.09.09-.08.09-.09.08-.08.09-.09.09-.09.09-.08.09-.09.09-.09.09-.08.09-.09.09-.09h0l-.61-.63h0l-.09.09-.09.09-.09.09-.09.09-.09.08-.09.09-.09.09-.09.08-.09.09-.08.09-.09.08-.09.09-.08.08-.09.09-.08.08-.09.09-.08.08-.09.08-.08.09-.08.08-.08.08-.09.09-.08.08-.08.08-.08.08-.08.09-.08.08-.08.08-.08.08-.08.08-.08.08-.07.09-.08.08-.08.08-.07.08-.08.08-.08.08h0l.64.6Z"/><path class="cls-29" d="M129.2,42.72a9,9,0,0,0,2.42-.32,13.69,13.69,0,0,0,2.52-1l1.5,4a11.28,11.28,0,0,1-3.27,1.36,15,15,0,0,1-3.7.48,10,10,0,0,1-3.75-.6,6.39,6.39,0,0,1-2.33-1.53,5.32,5.32,0,0,1-1.19-2,7.41,7.41,0,0,1-.34-2.1,5.09,5.09,0,0,1,.31-1.83,7.44,7.44,0,0,1,.76-1.55,11.13,11.13,0,0,1,1.05-1.35c.39-.43.79-.83,1.19-1.21l.89-.9a9,9,0,0,0,.83-1,5.59,5.59,0,0,0,.62-1.12,3,3,0,0,0,.25-1.19v-.42a3.63,3.63,0,0,0,0-.5h4.69a4.65,4.65,0,0,1,.09.8c0,.29,0,.55,0,.76a6.33,6.33,0,0,1-.25,1.81,7.43,7.43,0,0,1-.66,1.52,7.87,7.87,0,0,1-.94,1.27c-.36.4-.72.78-1.1,1.16-.55.55-1,1.08-1.5,1.62a2.74,2.74,0,0,0-.67,1.83,1.92,1.92,0,0,0,.66,1.46A2.76,2.76,0,0,0,129.2,42.72Zm-3.3-17.88a3,3,0,0,1,1-2.42,3.52,3.52,0,0,1,4.59,0,3,3,0,0,1,1,2.42,3,3,0,0,1-1,2.42,3.52,3.52,0,0,1-4.59,0A3,3,0,0,1,125.9,24.84Z"/><path class="cls-29" d="M149,40.73q-6,0-9.15-3.34T136.7,27.9a14.61,14.61,0,0,1,1-5.46,11.78,11.78,0,0,1,2.63-4.05,11.1,11.1,0,0,1,4-2.51,14.34,14.34,0,0,1,5-.85,16.41,16.41,0,0,1,2.84.23,20.17,20.17,0,0,1,2.24.53,11.37,11.37,0,0,1,1.6.63c.43.21.73.37.92.49l-1.6,4.48a14.11,14.11,0,0,0-2.64-1,12.87,12.87,0,0,0-3.43-.43,7.7,7.7,0,0,0-2.51.43,5.72,5.72,0,0,0-2.17,1.37A6.8,6.8,0,0,0,143,24.17a10.15,10.15,0,0,0-.57,3.62,13.34,13.34,0,0,0,.37,3.18A6.81,6.81,0,0,0,144,33.51a5.81,5.81,0,0,0,2.19,1.69,7.7,7.7,0,0,0,3.27.62,14.3,14.3,0,0,0,2.17-.14,14.56,14.56,0,0,0,1.7-.34,8.49,8.49,0,0,0,1.32-.44l1-.46,1.53,4.44a12.83,12.83,0,0,1-3.31,1.28A19.22,19.22,0,0,1,149,40.73Z"/><path class="cls-29" d="M177.51,30.85a12,12,0,0,1-.64,4A8.73,8.73,0,0,1,175,38a8.26,8.26,0,0,1-2.9,2,10.34,10.34,0,0,1-7.53,0,8.35,8.35,0,0,1-2.9-2,9.24,9.24,0,0,1-1.88-3.13,11.55,11.55,0,0,1-.68-4,11,11,0,0,1,.7-4,9,9,0,0,1,1.92-3.09,8.34,8.34,0,0,1,2.91-2,10,10,0,0,1,7.39,0,8.3,8.3,0,0,1,2.9,2,8.9,8.9,0,0,1,1.88,3.09A11.46,11.46,0,0,1,177.51,30.85Zm-4.8-16-5.85,4.94-2.43-2.17,5-5.76Zm-.6,16a6.68,6.68,0,0,0-1-3.86,3.18,3.18,0,0,0-2.79-1.4,3.23,3.23,0,0,0-2.81,1.4,6.6,6.6,0,0,0-1,3.86,6.77,6.77,0,0,0,1,3.89,3.21,3.21,0,0,0,2.81,1.44,3.17,3.17,0,0,0,2.79-1.44A6.85,6.85,0,0,0,172.11,30.85Z"/><path class="cls-29" d="M191.87,30.31a7.27,7.27,0,0,0-.66-3.62A2.44,2.44,0,0,0,189,25.62a9.33,9.33,0,0,0-1,.06c-.35,0-.69.07-1,.12V40.23H181.6V22.17c.45-.11,1-.24,1.58-.37s1.24-.25,1.92-.35,1.37-.19,2.08-.25,1.41-.09,2.09-.09a8.87,8.87,0,0,1,3.29.51,7.62,7.62,0,0,1,2.08,1.23A9.86,9.86,0,0,1,200,21.11a9.41,9.41,0,0,1,3.68.62,5.52,5.52,0,0,1,2.3,1.76,6.75,6.75,0,0,1,1.17,2.7,17.62,17.62,0,0,1,.32,3.48V40.23h-5.3V30.31a7.27,7.27,0,0,0-.66-3.62,2.43,2.43,0,0,0-2.25-1.07,4.8,4.8,0,0,0-1.19.21,5.21,5.21,0,0,0-1.27.54,7.94,7.94,0,0,1,.33,1.72c0,.61.07,1.25.07,1.94v10.2h-5.3Z"/><path class="cls-29" d="M229.73,30.85a12.3,12.3,0,0,1-.64,4A8.87,8.87,0,0,1,227.24,38a8.35,8.35,0,0,1-2.9,2,10.36,10.36,0,0,1-7.54,0,8.31,8.31,0,0,1-2.89-2A9.1,9.1,0,0,1,212,34.88a11.55,11.55,0,0,1-.67-4,11.23,11.23,0,0,1,.69-4A9,9,0,0,1,214,23.74a8.47,8.47,0,0,1,2.92-2,9.24,9.24,0,0,1,3.67-.71,9.38,9.38,0,0,1,3.72.71,8.39,8.39,0,0,1,2.9,2,9.06,9.06,0,0,1,1.88,3.09A11.46,11.46,0,0,1,229.73,30.85Zm-5.41,0a6.68,6.68,0,0,0-1-3.86,3.5,3.5,0,0,0-5.6,0,6.53,6.53,0,0,0-1,3.86,6.69,6.69,0,0,0,1,3.89,3.44,3.44,0,0,0,5.6,0A6.85,6.85,0,0,0,224.32,30.85Z"/><path class="cls-29" d="M242.17,16.88l5.29-.86v5.51h6.37v4.41h-6.37v6.58a5.22,5.22,0,0,0,.59,2.66,2.5,2.5,0,0,0,2.36,1,9.76,9.76,0,0,0,1.76-.16,10.26,10.26,0,0,0,1.66-.44l.74,4.12a15.28,15.28,0,0,1-2.13.67,12.35,12.35,0,0,1-2.88.29,9.48,9.48,0,0,1-3.59-.59,5.62,5.62,0,0,1-2.28-1.63,6.27,6.27,0,0,1-1.19-2.55,15.24,15.24,0,0,1-.33-3.3Z"/><path class="cls-29" d="M269.39,26.23c-.47-.12-1-.25-1.67-.38a10.31,10.31,0,0,0-2.06-.19,9.43,9.43,0,0,0-1.19.09,7.58,7.58,0,0,0-1.05.19V40.23h-5.29V22.53a30.2,30.2,0,0,1,3.35-.94,19.23,19.23,0,0,1,4.32-.45c.29,0,.63,0,1,.06s.81.08,1.21.14.81.13,1.21.21a7.24,7.24,0,0,1,1,.3Z"/><path class="cls-29" d="M279.49,21a12.15,12.15,0,0,1,3.91.53,6.21,6.21,0,0,1,2.51,1.53,5.67,5.67,0,0,1,1.33,2.42,11.89,11.89,0,0,1,.39,3.16v11c-.76.16-1.81.36-3.16.59a31.24,31.24,0,0,1-4.91.33,15.17,15.17,0,0,1-3.29-.32,7,7,0,0,1-2.54-1,4.69,4.69,0,0,1-1.63-1.9,6.54,6.54,0,0,1-.57-2.88,5.54,5.54,0,0,1,.65-2.77,5.09,5.09,0,0,1,1.76-1.81,8,8,0,0,1,2.53-1,14.26,14.26,0,0,1,2.95-.3,16.58,16.58,0,0,1,1.83.09,7.94,7.94,0,0,1,1.3.23v-.5a3,3,0,0,0-.82-2.17,4,4,0,0,0-2.85-.82,18.11,18.11,0,0,0-2.66.2,11.22,11.22,0,0,0-2.28.55l-.67-4.26c.31-.1.69-.2,1.15-.31s1-.2,1.51-.28,1.12-.16,1.73-.21S278.87,21,279.49,21Zm.43,15.5c.52,0,1,0,1.49,0a9.16,9.16,0,0,0,1.14-.11v-4q-.33-.08-1-.15c-.43,0-.82-.07-1.18-.07a10.4,10.4,0,0,0-1.4.09,3.66,3.66,0,0,0-1.16.34,2,2,0,0,0-.78.67,1.89,1.89,0,0,0-.28,1.07,1.81,1.81,0,0,0,.83,1.72A4.52,4.52,0,0,0,279.92,36.54Z"/><path class="cls-29" d="M309.81,30.88a11.8,11.8,0,0,1-.66,4.06,8.69,8.69,0,0,1-1.9,3.09,8.37,8.37,0,0,1-3.06,2,11.52,11.52,0,0,1-4.12.69q-1,0-2-.09c-.7-.06-1.39-.13-2.06-.23s-1.32-.2-1.94-.33-1.16-.27-1.63-.41V13.5l5.29-.85V22a10,10,0,0,1,1.85-.6,9,9,0,0,1,2.06-.22,8.32,8.32,0,0,1,3.52.7,6.91,6.91,0,0,1,2.56,2,8.91,8.91,0,0,1,1.57,3.07A14.24,14.24,0,0,1,309.81,30.88Zm-5.4-.14q0-5.11-3.77-5.12a6.32,6.32,0,0,0-1.62.21,5.14,5.14,0,0,0-1.3.54V36c.26,0,.6.09,1,.13s.84,0,1.31,0a3.81,3.81,0,0,0,3.27-1.49A6.47,6.47,0,0,0,304.41,30.74Z"/><path class="cls-29" d="M320.61,21a12.11,12.11,0,0,1,3.91.53A6.14,6.14,0,0,1,327,23.1a5.56,5.56,0,0,1,1.33,2.42,11.89,11.89,0,0,1,.39,3.16v11c-.75.16-1.81.36-3.16.59a31.1,31.1,0,0,1-4.9.33,15.11,15.11,0,0,1-3.29-.32,6.94,6.94,0,0,1-2.54-1,4.79,4.79,0,0,1-1.64-1.9,6.54,6.54,0,0,1-.57-2.88,5.43,5.43,0,0,1,.66-2.77,5,5,0,0,1,1.76-1.81,7.93,7.93,0,0,1,2.52-1,14.26,14.26,0,0,1,3-.3,16.45,16.45,0,0,1,1.83.09,7.56,7.56,0,0,1,1.3.23v-.5a2.93,2.93,0,0,0-.82-2.17,4,4,0,0,0-2.84-.82,18.25,18.25,0,0,0-2.67.2,11.28,11.28,0,0,0-2.27.55l-.68-4.26c.31-.1.7-.2,1.16-.31s1-.2,1.51-.28,1.12-.16,1.72-.21S320,21,320.61,21Zm.43,15.5c.52,0,1,0,1.49,0a8.77,8.77,0,0,0,1.14-.11v-4a9,9,0,0,0-1-.15c-.42,0-.82-.07-1.17-.07a10.45,10.45,0,0,0-1.41.09,3.6,3.6,0,0,0-1.15.34,2,2,0,0,0-.78.67,1.9,1.9,0,0,0-.29,1.07,1.8,1.8,0,0,0,.84,1.72A4.48,4.48,0,0,0,321,36.54Z"/><path class="cls-29" d="M331.81,46.81c-.33,0-.82,0-1.47-.11a8.46,8.46,0,0,1-1.83-.39l.71-4.3a6.32,6.32,0,0,0,1,.25,8.45,8.45,0,0,0,1.12.07,2,2,0,0,0,1.75-.75,3.94,3.94,0,0,0,.49-2.17V21.53h5.3v18q0,3.69-1.81,5.47A7.19,7.19,0,0,1,331.81,46.81Zm7.54-30.68a2.92,2.92,0,0,1-.94,2.29,3.37,3.37,0,0,1-4.45,0,2.89,2.89,0,0,1-.94-2.29,2.9,2.9,0,0,1,.94-2.29,3.37,3.37,0,0,1,4.45,0A2.93,2.93,0,0,1,339.35,16.13Z"/><path class="cls-29" d="M350.54,21a12.11,12.11,0,0,1,3.91.53A6.14,6.14,0,0,1,357,23.1a5.56,5.56,0,0,1,1.33,2.42,11.89,11.89,0,0,1,.39,3.16v11c-.76.16-1.81.36-3.16.59a31.15,31.15,0,0,1-4.91.33,15.08,15.08,0,0,1-3.28-.32,7.07,7.07,0,0,1-2.55-1,4.77,4.77,0,0,1-1.63-1.9,6.54,6.54,0,0,1-.57-2.88,5.43,5.43,0,0,1,.66-2.77A5,5,0,0,1,345,29.89a7.84,7.84,0,0,1,2.52-1,14.26,14.26,0,0,1,3-.3,16.45,16.45,0,0,1,1.83.09,7.56,7.56,0,0,1,1.3.23v-.5a2.93,2.93,0,0,0-.82-2.17,4,4,0,0,0-2.84-.82,18.25,18.25,0,0,0-2.67.2,11.28,11.28,0,0,0-2.27.55l-.68-4.26c.31-.1.7-.2,1.16-.31s1-.2,1.51-.28,1.12-.16,1.72-.21S349.93,21,350.54,21Zm.43,15.5c.52,0,1,0,1.49,0a8.77,8.77,0,0,0,1.14-.11v-4a9,9,0,0,0-1-.15c-.43,0-.82-.07-1.17-.07a10.45,10.45,0,0,0-1.41.09,3.53,3.53,0,0,0-1.15.34,2,2,0,0,0-.78.67,1.9,1.9,0,0,0-.29,1.07,1.8,1.8,0,0,0,.84,1.72A4.48,4.48,0,0,0,351,36.54Z"/><path class="cls-29" d="M373.75,30.31a7.29,7.29,0,0,0-.65-3.62,2.45,2.45,0,0,0-2.26-1.07,9.16,9.16,0,0,0-1,.06c-.36,0-.7.07-1,.12V40.23h-5.3V22.17c.45-.11,1-.24,1.58-.37s1.25-.25,1.92-.35,1.37-.19,2.08-.25,1.41-.09,2.1-.09a8.91,8.91,0,0,1,3.29.51,7.78,7.78,0,0,1,2.08,1.23,9.86,9.86,0,0,1,5.33-1.74,9.44,9.44,0,0,1,3.68.62,5.49,5.49,0,0,1,2.29,1.76,6.61,6.61,0,0,1,1.17,2.7,16.9,16.9,0,0,1,.32,3.48V40.23H384V30.31a7.27,7.27,0,0,0-.66-3.62,2.45,2.45,0,0,0-2.26-1.07,4.87,4.87,0,0,0-1.19.21,5,5,0,0,0-1.26.54,7.93,7.93,0,0,1,.32,1.72c0,.61.07,1.25.07,1.94v10.2h-5.3Z"/><path class="cls-29" d="M411.61,30.85a12,12,0,0,1-.64,4A8.73,8.73,0,0,1,409.12,38a8.31,8.31,0,0,1-2.89,2,9.77,9.77,0,0,1-3.79.71,9.6,9.6,0,0,1-3.75-.71,8.35,8.35,0,0,1-2.9-2,9.24,9.24,0,0,1-1.88-3.13,11.55,11.55,0,0,1-.68-4,11,11,0,0,1,.7-4,9,9,0,0,1,1.92-3.09,8.34,8.34,0,0,1,2.91-2,10,10,0,0,1,7.39,0,8.21,8.21,0,0,1,2.9,2,9.08,9.08,0,0,1,1.89,3.09A11.69,11.69,0,0,1,411.61,30.85Zm-5.4,0a6.68,6.68,0,0,0-1-3.86,3.18,3.18,0,0,0-2.79-1.4,3.23,3.23,0,0,0-2.81,1.4,6.6,6.6,0,0,0-1,3.86,6.77,6.77,0,0,0,1,3.89,3.21,3.21,0,0,0,2.81,1.44,3.17,3.17,0,0,0,2.79-1.44A6.85,6.85,0,0,0,406.21,30.85Z"/><path class="cls-29" d="M421.07,36.43a5.28,5.28,0,0,0,2.06-.29,1.09,1.09,0,0,0,.6-1.1,1.36,1.36,0,0,0-.78-1.12,14.84,14.84,0,0,0-2.38-1.08c-.83-.31-1.58-.63-2.26-1a6.64,6.64,0,0,1-1.72-1.19A4.89,4.89,0,0,1,415.48,29a6.1,6.1,0,0,1-.39-2.31,5,5,0,0,1,2-4.15A8.49,8.49,0,0,1,422.42,21a17.44,17.44,0,0,1,3.27.3,14.53,14.53,0,0,1,2.48.66l-.92,4.12q-.93-.32-2-.57a11.21,11.21,0,0,0-2.43-.25c-1.66,0-2.49.46-2.49,1.39a1.32,1.32,0,0,0,.11.57,1.29,1.29,0,0,0,.42.48,7.6,7.6,0,0,0,.87.5c.37.18.84.37,1.41.59A21.55,21.55,0,0,1,426,30.1a7.15,7.15,0,0,1,1.79,1.35,4.28,4.28,0,0,1,.93,1.62,7.48,7.48,0,0,1,.26,2.06,4.73,4.73,0,0,1-2.08,4.18A10.3,10.3,0,0,1,421,40.73a16.59,16.59,0,0,1-4.14-.43,15.88,15.88,0,0,1-2.29-.71l.88-4.3a18.15,18.15,0,0,0,2.78.84A13.57,13.57,0,0,0,421.07,36.43Z"/><path class="cls-29" d="M436.31,19.54a9,9,0,0,0-2.41.32,14.81,14.81,0,0,0-2.53,1l-1.49-4a11.06,11.06,0,0,1,3.27-1.37,15,15,0,0,1,3.7-.48,10.09,10.09,0,0,1,3.75.6,6.65,6.65,0,0,1,2.33,1.53,5.41,5.41,0,0,1,1.19,2,7.27,7.27,0,0,1,.33,2.1,5.4,5.4,0,0,1-.3,1.83,7.36,7.36,0,0,1-.76,1.54A9.2,9.2,0,0,1,442.32,26c-.4.43-.79.83-1.17,1.21l-.89.91a8.82,8.82,0,0,0-.84,1,7.22,7.22,0,0,0-.62,1.12,3.14,3.14,0,0,0-.25,1.19v.43a2.53,2.53,0,0,0,0,.5H433.9a4.76,4.76,0,0,1-.09-.8c0-.3,0-.55,0-.77A5.87,5.87,0,0,1,434,29a6.51,6.51,0,0,1,.66-1.5,7.88,7.88,0,0,1,.94-1.29c.35-.41.72-.8,1.1-1.18.55-.54,1-1.08,1.49-1.61a2.79,2.79,0,0,0,.68-1.83,1.91,1.91,0,0,0-.66-1.46A2.78,2.78,0,0,0,436.31,19.54Zm3.31,17.88a3,3,0,0,1-1,2.42,3.52,3.52,0,0,1-4.59,0A3.39,3.39,0,0,1,434,35a3.49,3.49,0,0,1,4.59,0A3,3,0,0,1,439.62,37.42Z"/><rect class="cls-29" x="8.54" y="67.67" width="170.67" height="47.33" rx="3.48" ry="3.48"/><path class="cls-7" d="M31.59,87.68V76.39h7.25v1.75h-5.2v2.78h4.63v1.71H33.64v3.31h5.59v1.74Z"/><path class="cls-7" d="M44,87.84a5.34,5.34,0,0,1-1.46-.19,2.22,2.22,0,0,1-.92-.52,1.72,1.72,0,0,1-.48-.83A4.26,4.26,0,0,1,41,85.17v-9.8L43,75V84.8a2.52,2.52,0,0,0,.06.6,1.17,1.17,0,0,0,.2.42,1,1,0,0,0,.4.26,3.09,3.09,0,0,0,.65.13Z"/><path class="cls-7" d="M49.19,83.43a5.14,5.14,0,0,1,.3-1.77,4,4,0,0,1,.84-1.42,3.85,3.85,0,0,1,1.32-.95A4.49,4.49,0,0,1,53.41,79a6,6,0,0,1,2.28.44L55.27,81a5,5,0,0,0-.77-.24,3.93,3.93,0,0,0-.92-.1,2.13,2.13,0,0,0-1.76.73,3,3,0,0,0-.61,2,3.2,3.2,0,0,0,.57,2,2.27,2.27,0,0,0,1.93.74,4.75,4.75,0,0,0,1-.1,4.31,4.31,0,0,0,.85-.24l.27,1.63a3.63,3.63,0,0,1-1,.29,6.82,6.82,0,0,1-1.36.13,5,5,0,0,1-1.9-.33,3.59,3.59,0,0,1-1.34-.93,3.85,3.85,0,0,1-.78-1.42A5.63,5.63,0,0,1,49.19,83.43Z"/><path class="cls-7" d="M60.32,87.84a5.34,5.34,0,0,1-1.46-.19,2.16,2.16,0,0,1-.92-.52,1.72,1.72,0,0,1-.48-.83,4.26,4.26,0,0,1-.14-1.13v-9.8l2-.33V84.8a2.52,2.52,0,0,0,.06.6,1,1,0,0,0,.2.42,1,1,0,0,0,.4.26,3,3,0,0,0,.64.13Z"/><path class="cls-7" d="M64.39,76.67a1.13,1.13,0,0,1-.36.88,1.21,1.21,0,0,1-.85.33,1.23,1.23,0,0,1-.86-.33,1.27,1.27,0,0,1,0-1.77,1.23,1.23,0,0,1,.86-.33,1.21,1.21,0,0,1,.85.33A1.12,1.12,0,0,1,64.39,76.67Zm-.21,11h-2V79.16h2Z"/><path class="cls-7" d="M66.21,83.46a5.21,5.21,0,0,1,.34-2,4.19,4.19,0,0,1,.89-1.41,3.61,3.61,0,0,1,1.27-.84A3.88,3.88,0,0,1,70.17,79,3.52,3.52,0,0,1,72.92,80a4.77,4.77,0,0,1,1,3.26c0,.11,0,.23,0,.37s0,.25,0,.36H68.25A2.21,2.21,0,0,0,69,85.62a2.73,2.73,0,0,0,1.87.56,5.94,5.94,0,0,0,1.31-.13,6.7,6.7,0,0,0,.94-.27l.26,1.61a4,4,0,0,1-.45.17c-.19.06-.41.11-.65.16s-.51.09-.79.12a6.17,6.17,0,0,1-.87,0,5.27,5.27,0,0,1-2-.33,3.62,3.62,0,0,1-1.37-.93,3.88,3.88,0,0,1-.8-1.4A5.87,5.87,0,0,1,66.21,83.46Zm5.72-.88a2.76,2.76,0,0,0-.11-.77,2,2,0,0,0-.34-.64,1.51,1.51,0,0,0-.54-.42,1.73,1.73,0,0,0-.75-.15,1.69,1.69,0,0,0-.8.17,1.82,1.82,0,0,0-.58.44,2.14,2.14,0,0,0-.37.64,3.68,3.68,0,0,0-.17.73Z"/><path class="cls-7" d="M76,79.44a13.23,13.23,0,0,1,1.48-.31,12.5,12.5,0,0,1,2-.15,4.65,4.65,0,0,1,1.74.29,2.67,2.67,0,0,1,1.12.8,3.05,3.05,0,0,1,.58,1.23,6.69,6.69,0,0,1,.17,1.59v4.79h-2V83.2A6.43,6.43,0,0,0,81,82a2,2,0,0,0-.29-.78,1.13,1.13,0,0,0-.55-.44,2.22,2.22,0,0,0-.86-.14,5.27,5.27,0,0,0-.78,0l-.6.08v6.87H76Z"/><path class="cls-7" d="M85.42,76.92l2-.33v2.57h3v1.65h-3v3.47a2.48,2.48,0,0,0,.32,1.46,1.28,1.28,0,0,0,1.11.44,3.82,3.82,0,0,0,1-.11l.66-.21.33,1.56a6.71,6.71,0,0,1-.9.3,5,5,0,0,1-1.3.16A4.12,4.12,0,0,1,87,87.63a2.21,2.21,0,0,1-1-.71,2.82,2.82,0,0,1-.51-1.12,6.87,6.87,0,0,1-.14-1.51Z"/><path class="cls-7" d="M91.7,83.46a5.21,5.21,0,0,1,.34-2,4.17,4.17,0,0,1,.88-1.41,3.8,3.8,0,0,1,1.27-.84A4,4,0,0,1,95.66,79,3.48,3.48,0,0,1,98.4,80a4.73,4.73,0,0,1,1,3.26c0,.11,0,.23,0,.37s0,.25,0,.36H93.74a2.21,2.21,0,0,0,.72,1.59,2.73,2.73,0,0,0,1.87.56,5.94,5.94,0,0,0,1.31-.13,6.7,6.7,0,0,0,.94-.27l.26,1.61a4,4,0,0,1-.45.17c-.19.06-.41.11-.65.16s-.51.09-.79.12a6.26,6.26,0,0,1-.87,0,5.24,5.24,0,0,1-2-.33,3.62,3.62,0,0,1-1.37-.93,3.88,3.88,0,0,1-.8-1.4A5.87,5.87,0,0,1,91.7,83.46Zm5.72-.88a2.43,2.43,0,0,0-.12-.77,1.77,1.77,0,0,0-.33-.64,1.61,1.61,0,0,0-.54-.42,1.73,1.73,0,0,0-.75-.15,1.69,1.69,0,0,0-.8.17,1.82,1.82,0,0,0-.58.44,2.14,2.14,0,0,0-.37.64,4.58,4.58,0,0,0-.18.73Z"/><path class="cls-7" d="M108.23,87.84a5.26,5.26,0,0,1-1.45-.19,2.2,2.2,0,0,1-.93-.52,1.9,1.9,0,0,1-.48-.83,4.28,4.28,0,0,1-.13-1.13v-9.8l2-.33V84.8a3.28,3.28,0,0,0,.05.6,1,1,0,0,0,.21.42.9.9,0,0,0,.4.26,2.86,2.86,0,0,0,.64.13Z"/><path class="cls-7" d="M113.07,87.84a5.34,5.34,0,0,1-1.46-.19,2.22,2.22,0,0,1-.92-.52,1.72,1.72,0,0,1-.48-.83,4.26,4.26,0,0,1-.14-1.13v-9.8l2-.33V84.8a2.52,2.52,0,0,0,.06.6,1.17,1.17,0,0,0,.2.42,1,1,0,0,0,.4.26,3.09,3.09,0,0,0,.65.13Z"/><path class="cls-7" d="M114.47,83.46a5.42,5.42,0,0,1,.33-2,4.36,4.36,0,0,1,.89-1.41,3.71,3.71,0,0,1,1.27-.84,4,4,0,0,1,1.47-.29A3.48,3.48,0,0,1,121.17,80a4.73,4.73,0,0,1,1,3.26c0,.11,0,.23,0,.37s0,.25,0,.36h-5.62a2.21,2.21,0,0,0,.72,1.59,2.73,2.73,0,0,0,1.87.56,6,6,0,0,0,1.31-.13,6.5,6.5,0,0,0,.93-.27l.26,1.61a3.15,3.15,0,0,1-.44.17,6.42,6.42,0,0,1-.66.16,7.79,7.79,0,0,1-.79.12,6,6,0,0,1-.86,0,5.24,5.24,0,0,1-1.95-.33,3.54,3.54,0,0,1-1.37-.93,3.74,3.74,0,0,1-.8-1.4A5.87,5.87,0,0,1,114.47,83.46Zm5.72-.88a2.43,2.43,0,0,0-.12-.77,1.77,1.77,0,0,0-.33-.64,1.71,1.71,0,0,0-.54-.42,1.75,1.75,0,0,0-.76-.15,1.64,1.64,0,0,0-.79.17,1.82,1.82,0,0,0-.58.44,2.14,2.14,0,0,0-.37.64,3.71,3.71,0,0,0-.18.73Z"/><path class="cls-7" d="M131.28,86.82a3.86,3.86,0,0,1-1,3,4.56,4.56,0,0,1-3.16.94,8.62,8.62,0,0,1-1.53-.13,7.94,7.94,0,0,1-1.34-.34l.36-1.68a5.58,5.58,0,0,0,1.15.34,6.75,6.75,0,0,0,1.39.14,2.4,2.4,0,0,0,1.69-.49,1.93,1.93,0,0,0,.51-1.45V86.8a4.48,4.48,0,0,1-.78.29,3.64,3.64,0,0,1-1.09.15,4.26,4.26,0,0,1-1.5-.26,3,3,0,0,1-1.15-.77A3.41,3.41,0,0,1,124,85a5.19,5.19,0,0,1-.27-1.75,5,5,0,0,1,.29-1.71,3.57,3.57,0,0,1,.83-1.33,3.8,3.8,0,0,1,1.32-.87A5,5,0,0,1,128,79a10.56,10.56,0,0,1,1.82.15c.58.1,1.07.2,1.47.31Zm-5.49-3.62a2.55,2.55,0,0,0,.55,1.83,1.82,1.82,0,0,0,1.4.58,2.82,2.82,0,0,0,.89-.13,2.39,2.39,0,0,0,.68-.31V80.76l-.52-.09a5.82,5.82,0,0,0-.79,0,2,2,0,0,0-1.64.71A2.87,2.87,0,0,0,125.79,83.2Z"/><path class="cls-7" d="M136.62,79a4.7,4.7,0,0,1,1.65.25,2.59,2.59,0,0,1,1.06.68A2.46,2.46,0,0,1,139.9,81a4.9,4.9,0,0,1,.17,1.37v5.17c-.3.06-.76.14-1.37.23a14.49,14.49,0,0,1-2.08.14,6.07,6.07,0,0,1-1.4-.15,2.8,2.8,0,0,1-1.08-.47,2.15,2.15,0,0,1-.7-.85,2.86,2.86,0,0,1-.26-1.28,2.5,2.5,0,0,1,.29-1.24,2.33,2.33,0,0,1,.77-.82,3.24,3.24,0,0,1,1.13-.46,6.57,6.57,0,0,1,1.35-.14c.22,0,.44,0,.68,0s.5.08.77.14v-.32a2.84,2.84,0,0,0-.08-.66,1.42,1.42,0,0,0-.29-.54,1.27,1.27,0,0,0-.54-.37,2.45,2.45,0,0,0-.83-.13,7,7,0,0,0-1.26.1,5.72,5.72,0,0,0-.93.23l-.24-1.6a7.68,7.68,0,0,1,1.09-.26A8.31,8.31,0,0,1,136.62,79Zm.16,7.35a7.85,7.85,0,0,0,1.39-.1V84a2.66,2.66,0,0,0-.47-.1,4.58,4.58,0,0,0-1.35,0,1.91,1.91,0,0,0-.6.18,1.08,1.08,0,0,0-.43.36,1,1,0,0,0-.17.6,1,1,0,0,0,.44,1A2.28,2.28,0,0,0,136.78,86.3Z"/><path class="cls-7" d="M149.11,79a4.7,4.7,0,0,1,1.65.25,2.59,2.59,0,0,1,1.06.68,2.46,2.46,0,0,1,.57,1.07,4.9,4.9,0,0,1,.17,1.37v5.17c-.3.06-.76.14-1.37.23a14.38,14.38,0,0,1-2.08.14,6.13,6.13,0,0,1-1.4-.15,2.8,2.8,0,0,1-1.08-.47,2.24,2.24,0,0,1-.7-.85,2.86,2.86,0,0,1-.25-1.28,2.5,2.5,0,0,1,.28-1.24,2.33,2.33,0,0,1,.77-.82,3.22,3.22,0,0,1,1.14-.46,6.48,6.48,0,0,1,1.34-.14c.22,0,.45,0,.68,0s.5.08.77.14v-.32a2.84,2.84,0,0,0-.08-.66,1.42,1.42,0,0,0-.29-.54,1.3,1.3,0,0,0-.53-.37,2.56,2.56,0,0,0-.84-.13,7,7,0,0,0-1.26.1,5.72,5.72,0,0,0-.93.23l-.24-1.6a7.68,7.68,0,0,1,1.09-.26A8.31,8.31,0,0,1,149.11,79Zm.17,7.35a7.81,7.81,0,0,0,1.38-.1V84a2.66,2.66,0,0,0-.47-.1,4.86,4.86,0,0,0-.69,0,5.14,5.14,0,0,0-.66,0,1.91,1.91,0,0,0-.6.18,1.08,1.08,0,0,0-.43.36,1.26,1.26,0,0,0,.28,1.57A2.26,2.26,0,0,0,149.28,86.3Z"/><path class="cls-7" d="M11.25,99c.38-.1.87-.21,1.48-.31a13.83,13.83,0,0,1,2-.14,4.67,4.67,0,0,1,1.74.28,2.76,2.76,0,0,1,1.12.8,3.09,3.09,0,0,1,.58,1.24,6.57,6.57,0,0,1,.17,1.59v4.78h-2v-4.47a6.47,6.47,0,0,0-.09-1.17,2,2,0,0,0-.29-.78,1.14,1.14,0,0,0-.55-.44,2.42,2.42,0,0,0-.86-.14,7.11,7.11,0,0,0-.78,0l-.6.08v6.87h-2Z"/><path class="cls-7" d="M27.76,107c-.38.1-.87.2-1.48.31a12.42,12.42,0,0,1-2,.15,4.51,4.51,0,0,1-1.72-.29,2.83,2.83,0,0,1-1.11-.82,3.17,3.17,0,0,1-.59-1.24,6.67,6.67,0,0,1-.18-1.59V98.71h2v4.46a3.55,3.55,0,0,0,.4,2,1.56,1.56,0,0,0,1.39.59l.76,0a4.21,4.21,0,0,0,.59-.08V98.71h2Z"/><path class="cls-7" d="M29.8,103a5.38,5.38,0,0,1,.33-2A4,4,0,0,1,31,99.63a3.59,3.59,0,0,1,1.27-.85,3.94,3.94,0,0,1,1.46-.28,3.51,3.51,0,0,1,2.75,1.09,4.68,4.68,0,0,1,1,3.25v.37c0,.14,0,.26,0,.37H31.83a2.25,2.25,0,0,0,.73,1.58,2.72,2.72,0,0,0,1.86.57,6.53,6.53,0,0,0,1.31-.13,5.45,5.45,0,0,0,.94-.28l.26,1.61a2.7,2.7,0,0,1-.45.17,6,6,0,0,1-.65.17l-.79.12a8.11,8.11,0,0,1-.86,0,5.12,5.12,0,0,1-2-.34,3.51,3.51,0,0,1-1.36-.93,3.66,3.66,0,0,1-.8-1.4A5.46,5.46,0,0,1,29.8,103Zm5.71-.88a2.54,2.54,0,0,0-.11-.78,2.1,2.1,0,0,0-.33-.63,1.74,1.74,0,0,0-.54-.43,1.78,1.78,0,0,0-.76-.15,1.85,1.85,0,0,0-.8.17,1.68,1.68,0,0,0-.57.45,2.09,2.09,0,0,0-.37.63,3.2,3.2,0,0,0-.18.74Z"/><path class="cls-7" d="M41.7,105.81a2.52,2.52,0,0,0,1.14-.19.66.66,0,0,0,.36-.64.83.83,0,0,0-.38-.7,5.68,5.68,0,0,0-1.26-.61,9.23,9.23,0,0,1-1-.41,3.43,3.43,0,0,1-.77-.51,2.29,2.29,0,0,1-.52-.71,2.59,2.59,0,0,1-.18-1A2.21,2.21,0,0,1,40,99.17a3.73,3.73,0,0,1,2.35-.67,7.39,7.39,0,0,1,1.43.13,10.13,10.13,0,0,1,1,.27l-.36,1.6a4.76,4.76,0,0,0-.83-.27,5.17,5.17,0,0,0-1.18-.12,2,2,0,0,0-1,.2.68.68,0,0,0-.38.63.87.87,0,0,0,.08.37.7.7,0,0,0,.25.3,2,2,0,0,0,.47.28,7.09,7.09,0,0,0,.72.29,10.87,10.87,0,0,1,1.19.51,3.35,3.35,0,0,1,.8.57A2,2,0,0,1,45,104a3.12,3.12,0,0,1,.14,1,2.11,2.11,0,0,1-.9,1.85,4.47,4.47,0,0,1-2.58.63,7.26,7.26,0,0,1-1.81-.19q-.69-.19-1-.3l.34-1.65a7.22,7.22,0,0,0,1.05.34A5.34,5.34,0,0,0,41.7,105.81Z"/><path class="cls-7" d="M46.91,96.46l2-.33v2.58h3v1.64h-3v3.47a2.54,2.54,0,0,0,.32,1.47,1.31,1.31,0,0,0,1.11.44,3.43,3.43,0,0,0,1-.12,4.33,4.33,0,0,0,.66-.21l.33,1.56a8.27,8.27,0,0,1-.9.31,5,5,0,0,1-1.3.15,4.14,4.14,0,0,1-1.52-.24,2.23,2.23,0,0,1-1-.71,2.86,2.86,0,0,1-.51-1.13,6.8,6.8,0,0,1-.15-1.5Z"/><path class="cls-7" d="M58.67,100.48c-.16,0-.38-.11-.67-.17a5,5,0,0,0-1-.09,3.53,3.53,0,0,0-.7.07,4.42,4.42,0,0,0-.51.11v6.82h-2V99.11a12,12,0,0,1,1.43-.4,9.19,9.19,0,0,1,1.89-.18l.46,0,.52.07c.17,0,.34.06.51.09l.39.11Z"/><path class="cls-7" d="M63.22,98.5a4.85,4.85,0,0,1,1.64.24,2.63,2.63,0,0,1,1.07.68,2.52,2.52,0,0,1,.57,1.07,5.43,5.43,0,0,1,.17,1.38V107l-1.38.24a14.33,14.33,0,0,1-2.07.13,6.7,6.7,0,0,1-1.4-.14,3.1,3.1,0,0,1-1.09-.47,2.34,2.34,0,0,1-.7-.85,3.09,3.09,0,0,1-.25-1.29,2.5,2.5,0,0,1,.29-1.24,2.32,2.32,0,0,1,.77-.82,3.58,3.58,0,0,1,1.13-.46,6.58,6.58,0,0,1,1.35-.13,5.49,5.49,0,0,1,.68,0,4.85,4.85,0,0,1,.77.14v-.33a2.32,2.32,0,0,0-.09-.65,1.37,1.37,0,0,0-.28-.55,1.39,1.39,0,0,0-.54-.36,2.25,2.25,0,0,0-.84-.13,8.07,8.07,0,0,0-1.25.09,7,7,0,0,0-.93.23l-.24-1.59a6.5,6.5,0,0,1,1.09-.26A8.16,8.16,0,0,1,63.22,98.5Zm.16,7.34a7,7,0,0,0,1.39-.1v-2.18l-.48-.1a4.61,4.61,0,0,0-.68,0,4.89,4.89,0,0,0-.66,0,2.21,2.21,0,0,0-.6.18,1,1,0,0,0-.43.37,1,1,0,0,0-.17.59,1,1,0,0,0,.44,1A2.26,2.26,0,0,0,63.38,105.84Z"/><path class="cls-7" d="M71.21,105.81a2.46,2.46,0,0,0,1.14-.19.66.66,0,0,0,.36-.64.83.83,0,0,0-.38-.7,5.68,5.68,0,0,0-1.26-.61,9.23,9.23,0,0,1-1-.41,3.68,3.68,0,0,1-.77-.51,2.11,2.11,0,0,1-.51-.71,2.41,2.41,0,0,1-.19-1,2.24,2.24,0,0,1,.86-1.85,3.73,3.73,0,0,1,2.35-.67,7.39,7.39,0,0,1,1.43.13,9.46,9.46,0,0,1,1,.27l-.36,1.6a4.76,4.76,0,0,0-.83-.27,5.17,5.17,0,0,0-1.18-.12,2,2,0,0,0-1,.2.68.68,0,0,0-.38.63.87.87,0,0,0,.08.37.77.77,0,0,0,.25.3,2.24,2.24,0,0,0,.47.28c.2.09.43.19.72.29a10.87,10.87,0,0,1,1.19.51,3.35,3.35,0,0,1,.8.57,2,2,0,0,1,.47.72,3.12,3.12,0,0,1,.14,1,2.11,2.11,0,0,1-.9,1.85,4.47,4.47,0,0,1-2.58.63,7.31,7.31,0,0,1-1.81-.19q-.69-.19-1-.3l.34-1.65a7.22,7.22,0,0,0,1,.34A5.34,5.34,0,0,0,71.21,105.81Z"/><path class="cls-7" d="M82.52,96.21a1.12,1.12,0,0,1-.36.88,1.21,1.21,0,0,1-.85.33,1.23,1.23,0,0,1-.86-.33,1.12,1.12,0,0,1-.36-.88,1.14,1.14,0,0,1,.36-.89,1.23,1.23,0,0,1,.86-.33,1.21,1.21,0,0,1,.85.33A1.14,1.14,0,0,1,82.52,96.21Zm-.21,11h-2V98.71h2Z"/><path class="cls-7" d="M84.81,99c.38-.1.88-.21,1.49-.31a13.68,13.68,0,0,1,2-.14,4.69,4.69,0,0,1,1.75.28,2.72,2.72,0,0,1,1.11.8,3,3,0,0,1,.59,1.24,7.11,7.11,0,0,1,.17,1.59v4.78H90v-4.47a6.47,6.47,0,0,0-.09-1.17,2.16,2.16,0,0,0-.29-.78,1.17,1.17,0,0,0-.56-.44,2.36,2.36,0,0,0-.85-.14,7.11,7.11,0,0,0-.78,0l-.61.08v6.87h-2Z"/><path class="cls-7" d="M96.47,105.81a2.46,2.46,0,0,0,1.14-.19A.66.66,0,0,0,98,105a.8.8,0,0,0-.38-.7,5.68,5.68,0,0,0-1.26-.61,9.23,9.23,0,0,1-1-.41,3.68,3.68,0,0,1-.77-.51,2.11,2.11,0,0,1-.51-.71,2.41,2.41,0,0,1-.19-1,2.24,2.24,0,0,1,.86-1.85,3.73,3.73,0,0,1,2.35-.67,7.39,7.39,0,0,1,1.43.13,9.46,9.46,0,0,1,1,.27l-.36,1.6a4.76,4.76,0,0,0-.83-.27,5.17,5.17,0,0,0-1.18-.12,2,2,0,0,0-1,.2.68.68,0,0,0-.38.63.87.87,0,0,0,.08.37.77.77,0,0,0,.25.3,2.24,2.24,0,0,0,.47.28c.2.09.44.19.72.29a10.87,10.87,0,0,1,1.19.51,3.35,3.35,0,0,1,.8.57,2,2,0,0,1,.47.72,2.86,2.86,0,0,1,.14,1,2.11,2.11,0,0,1-.9,1.85,4.47,4.47,0,0,1-2.58.63,7.31,7.31,0,0,1-1.81-.19q-.69-.19-1-.3L94,105.3a7.22,7.22,0,0,0,1,.34A5.34,5.34,0,0,0,96.47,105.81Z"/><path class="cls-7" d="M101.69,96.46l2-.33v2.58h3v1.64h-3v3.47a2.54,2.54,0,0,0,.32,1.47,1.31,1.31,0,0,0,1.11.44,3.38,3.38,0,0,0,1-.12,4.33,4.33,0,0,0,.66-.21L107,107a8.27,8.27,0,0,1-.9.31,5,5,0,0,1-1.3.15,4.14,4.14,0,0,1-1.52-.24,2.29,2.29,0,0,1-1-.71,2.86,2.86,0,0,1-.51-1.13,6.83,6.83,0,0,1-.14-1.5Z"/><path class="cls-7" d="M111.43,98.5a4.85,4.85,0,0,1,1.64.24,2.63,2.63,0,0,1,1.07.68,2.75,2.75,0,0,1,.57,1.07,5.43,5.43,0,0,1,.17,1.38V107l-1.38.24a14.33,14.33,0,0,1-2.07.13,6.88,6.88,0,0,1-1.41-.14,3.13,3.13,0,0,1-1.08-.47,2.24,2.24,0,0,1-.7-.85,2.94,2.94,0,0,1-.25-1.29,2.5,2.5,0,0,1,.28-1.24,2.35,2.35,0,0,1,.78-.82,3.48,3.48,0,0,1,1.13-.46,6.55,6.55,0,0,1,1.34-.13,5.53,5.53,0,0,1,.69,0,4.55,4.55,0,0,1,.76.14v-.33a2.32,2.32,0,0,0-.08-.65,1.37,1.37,0,0,0-.28-.55,1.39,1.39,0,0,0-.54-.36,2.25,2.25,0,0,0-.84-.13,8,8,0,0,0-1.25.09,7,7,0,0,0-.93.23l-.25-1.59a6.76,6.76,0,0,1,1.09-.26A8.34,8.34,0,0,1,111.43,98.5Zm.16,7.34a6.81,6.81,0,0,0,1.38-.1v-2.18l-.47-.1a4.72,4.72,0,0,0-.68,0,4.89,4.89,0,0,0-.66,0,2.18,2.18,0,0,0-.61.18,1.18,1.18,0,0,0-.43.37,1,1,0,0,0-.16.59,1,1,0,0,0,.44,1A2.26,2.26,0,0,0,111.59,105.84Z"/><path class="cls-7" d="M120.25,107.39a5.22,5.22,0,0,1-1.45-.2,2.19,2.19,0,0,1-.92-.51,1.88,1.88,0,0,1-.49-.83,4.33,4.33,0,0,1-.13-1.13V94.91l2-.32v9.75a3.28,3.28,0,0,0,0,.6.93.93,0,0,0,.21.42.9.9,0,0,0,.4.26,2.8,2.8,0,0,0,.64.14Z"/><path class="cls-7" d="M125,98.5a4.85,4.85,0,0,1,1.64.24,2.56,2.56,0,0,1,1.07.68,2.52,2.52,0,0,1,.57,1.07,5,5,0,0,1,.17,1.38V107l-1.37.24a14.58,14.58,0,0,1-2.08.13,6.7,6.7,0,0,1-1.4-.14,3,3,0,0,1-1.08-.47,2.15,2.15,0,0,1-.7-.85,2.93,2.93,0,0,1-.26-1.29,2.5,2.5,0,0,1,.29-1.24,2.42,2.42,0,0,1,.77-.82,3.58,3.58,0,0,1,1.13-.46,6.58,6.58,0,0,1,1.35-.13,5.49,5.49,0,0,1,.68,0,4.66,4.66,0,0,1,.77.14v-.33a2.75,2.75,0,0,0-.08-.65,1.39,1.39,0,0,0-.29-.55,1.32,1.32,0,0,0-.54-.36,2.25,2.25,0,0,0-.84-.13,8.07,8.07,0,0,0-1.25.09,7,7,0,0,0-.93.23l-.24-1.59a6.5,6.5,0,0,1,1.09-.26A8.31,8.31,0,0,1,125,98.5Zm.16,7.34a7,7,0,0,0,1.39-.1v-2.18l-.48-.1a4.61,4.61,0,0,0-.68,0,4.89,4.89,0,0,0-.66,0,2.21,2.21,0,0,0-.6.18,1.11,1.11,0,0,0-.43.37,1,1,0,0,0-.17.59,1,1,0,0,0,.44,1A2.28,2.28,0,0,0,125.12,105.84Z"/><path class="cls-7" d="M130.35,103a5.28,5.28,0,0,1,.29-1.76,4.32,4.32,0,0,1,.84-1.43,4,4,0,0,1,1.33-.94,4.32,4.32,0,0,1,1.76-.34,6,6,0,0,1,2.28.43l-.42,1.62a4.77,4.77,0,0,0-.78-.25,4.49,4.49,0,0,0-.92-.09,2.16,2.16,0,0,0-1.76.72,3.1,3.1,0,0,0-.6,2,3.25,3.25,0,0,0,.57,2,2.29,2.29,0,0,0,1.92.74,5.56,5.56,0,0,0,1-.1,5,5,0,0,0,.84-.25L137,107a4.22,4.22,0,0,1-1,.3,7.56,7.56,0,0,1-1.36.13,4.76,4.76,0,0,1-1.89-.34,3.51,3.51,0,0,1-1.34-.93,3.74,3.74,0,0,1-.79-1.41A6,6,0,0,1,130.35,103Z"/><path class="cls-7" d="M140.71,96.21a1.12,1.12,0,0,1-.36.88,1.21,1.21,0,0,1-.85.33,1.23,1.23,0,0,1-.86-.33,1.12,1.12,0,0,1-.36-.88,1.14,1.14,0,0,1,.36-.89,1.23,1.23,0,0,1,.86-.33,1.21,1.21,0,0,1,.85.33A1.14,1.14,0,0,1,140.71,96.21Zm-.21,11h-2V98.71h2Z"/><path class="cls-7" d="M150.71,103a5.68,5.68,0,0,1-.29,1.84,4.13,4.13,0,0,1-.84,1.41,3.63,3.63,0,0,1-1.29.92,4.32,4.32,0,0,1-1.67.32,4.24,4.24,0,0,1-1.66-.32,3.72,3.72,0,0,1-1.29-.92,4.13,4.13,0,0,1-.84-1.41,5.42,5.42,0,0,1-.3-1.84,5.24,5.24,0,0,1,.3-1.83,4.15,4.15,0,0,1,.85-1.41,3.73,3.73,0,0,1,1.3-.91,4.13,4.13,0,0,1,1.64-.31,4.22,4.22,0,0,1,1.65.31,3.64,3.64,0,0,1,1.3.91,4.13,4.13,0,0,1,.84,1.41A5.24,5.24,0,0,1,150.71,103Zm-2,0a3.26,3.26,0,0,0-.55-2,1.93,1.93,0,0,0-3,0,3.26,3.26,0,0,0-.55,2,3.33,3.33,0,0,0,.55,2,1.92,1.92,0,0,0,3,0A3.33,3.33,0,0,0,148.69,103Z"/><path class="cls-7" d="M152.74,99c.38-.1.88-.21,1.49-.31a13.73,13.73,0,0,1,2-.14,4.67,4.67,0,0,1,1.74.28,2.66,2.66,0,0,1,1.11.8,3,3,0,0,1,.59,1.24,7.11,7.11,0,0,1,.17,1.59v4.78h-2v-4.47a6.47,6.47,0,0,0-.09-1.17,2.16,2.16,0,0,0-.29-.78,1.17,1.17,0,0,0-.56-.44,2.32,2.32,0,0,0-.85-.14,7.11,7.11,0,0,0-.78,0l-.61.08v6.87h-2Z"/><path class="cls-7" d="M161.8,103a5.38,5.38,0,0,1,.33-2,4.15,4.15,0,0,1,.89-1.41,3.59,3.59,0,0,1,1.27-.85,4,4,0,0,1,1.47-.28,3.5,3.5,0,0,1,2.74,1.09,4.68,4.68,0,0,1,1,3.25c0,.11,0,.23,0,.37s0,.26,0,.37h-5.62a2.25,2.25,0,0,0,.73,1.58,2.72,2.72,0,0,0,1.86.57,6.71,6.71,0,0,0,1.32-.13,5.58,5.58,0,0,0,.93-.28l.26,1.61a2.7,2.7,0,0,1-.45.17,6,6,0,0,1-.65.17l-.79.12a8.11,8.11,0,0,1-.86,0,5,5,0,0,1-2-.34,3.54,3.54,0,0,1-1.37-.93,3.66,3.66,0,0,1-.8-1.4A5.75,5.75,0,0,1,161.8,103Zm5.72-.88a2.54,2.54,0,0,0-.12-.78,1.89,1.89,0,0,0-.33-.63,1.55,1.55,0,0,0-1.3-.58,1.77,1.77,0,0,0-.79.17,1.62,1.62,0,0,0-.58.45,2.09,2.09,0,0,0-.37.63,3.2,3.2,0,0,0-.18.74Z"/><path class="cls-7" d="M173.71,105.81a2.52,2.52,0,0,0,1.14-.19.67.67,0,0,0,.35-.64.8.8,0,0,0-.38-.7,5.46,5.46,0,0,0-1.26-.61,9.23,9.23,0,0,1-1-.41,3.68,3.68,0,0,1-.77-.51,2.11,2.11,0,0,1-.51-.71,2.41,2.41,0,0,1-.19-1,2.24,2.24,0,0,1,.86-1.85,3.73,3.73,0,0,1,2.35-.67,7.39,7.39,0,0,1,1.43.13,9.46,9.46,0,0,1,1,.27l-.36,1.6a4.76,4.76,0,0,0-.83-.27,5.14,5.14,0,0,0-1.17-.12,2,2,0,0,0-1,.2.68.68,0,0,0-.38.63.87.87,0,0,0,.08.37.77.77,0,0,0,.25.3,2.24,2.24,0,0,0,.47.28c.2.09.44.19.72.29a10.09,10.09,0,0,1,1.19.51,3.35,3.35,0,0,1,.8.57,2,2,0,0,1,.47.72,2.86,2.86,0,0,1,.14,1,2.11,2.11,0,0,1-.9,1.85,4.47,4.47,0,0,1-2.58.63,7.31,7.31,0,0,1-1.81-.19q-.69-.19-1-.3l.34-1.65a8.13,8.13,0,0,0,1.05.34A5.37,5.37,0,0,0,173.71,105.81Z"/><path class="cls-30" d="M148.24,230l-16.34-.09a2.1,2.1,0,0,1-2-1.89,1.68,1.68,0,0,1,1.72-1.86l14.46.08-1.26-14.4A1.69,1.69,0,0,1,146.5,210a2.11,2.11,0,0,1,2.05,1.89L150,228.11a1.71,1.71,0,0,1-.43,1.33A1.76,1.76,0,0,1,148.24,230Z"/><path class="cls-30" d="M158.59,237.82l-16.34-.09a2.1,2.1,0,0,1-2-1.89,1.68,1.68,0,0,1,1.72-1.86l14.45.08-1.25-14.41a1.68,1.68,0,0,1,1.72-1.86,2.1,2.1,0,0,1,2.05,1.88L160.31,236a1.7,1.7,0,0,1-1.72,1.87Z"/><rect class="cls-29" x="266.23" y="68.27" width="151" height="47.33" rx="3.48" ry="3.48"/><path class="cls-7" d="M285.16,85.74V74.46h7.25V76.2h-5.19V79h4.62v1.71h-4.62V84h5.58v1.74Z"/><path class="cls-7" d="M297.57,85.91a5.62,5.62,0,0,1-1.45-.2,2.19,2.19,0,0,1-.92-.51,1.82,1.82,0,0,1-.48-.83,4,4,0,0,1-.14-1.14v-9.8l2-.33v9.76a3.28,3.28,0,0,0,.05.6,1,1,0,0,0,.21.42,1,1,0,0,0,.4.26,3.66,3.66,0,0,0,.64.14Z"/><path class="cls-7" d="M302.28,77a4.7,4.7,0,0,1,1.65.25,2.59,2.59,0,0,1,1.06.68,2.46,2.46,0,0,1,.57,1.07,5,5,0,0,1,.17,1.37v5.17c-.3.06-.76.14-1.37.23a13.17,13.17,0,0,1-2.08.14,6.07,6.07,0,0,1-1.4-.15,2.8,2.8,0,0,1-1.08-.47,2.29,2.29,0,0,1-.7-.84,2.93,2.93,0,0,1-.26-1.29,2.5,2.5,0,0,1,.29-1.24,2.33,2.33,0,0,1,.77-.82,3.68,3.68,0,0,1,1.13-.46,6.57,6.57,0,0,1,1.35-.14c.22,0,.44,0,.68,0s.5.08.77.14v-.32a2.69,2.69,0,0,0-.08-.65,1.39,1.39,0,0,0-.29-.55,1.27,1.27,0,0,0-.54-.37,2.45,2.45,0,0,0-.83-.13,8,8,0,0,0-1.26.1,5.72,5.72,0,0,0-.93.23l-.24-1.6a9.38,9.38,0,0,1,1.09-.26A9.28,9.28,0,0,1,302.28,77Zm.16,7.35a7,7,0,0,0,1.39-.1V82.08a2.66,2.66,0,0,0-.47-.1A4.58,4.58,0,0,0,302,82a1.91,1.91,0,0,0-.6.18,1.11,1.11,0,0,0-.43.37,1,1,0,0,0-.17.59,1,1,0,0,0,.44,1A2.28,2.28,0,0,0,302.44,84.36Z"/><path class="cls-7" d="M315.81,81.49a5.36,5.36,0,0,1-.3,1.85,4,4,0,0,1-.86,1.41,3.62,3.62,0,0,1-1.36.89,4.87,4.87,0,0,1-1.81.31,11.14,11.14,0,0,1-1.86-.14,12.06,12.06,0,0,1-1.48-.33v-12l2-.33v4.42a4.91,4.91,0,0,1,.84-.33,3.8,3.8,0,0,1,1.1-.15,4,4,0,0,1,1.61.32,3.21,3.21,0,0,1,1.18.91,4.26,4.26,0,0,1,.72,1.41A6,6,0,0,1,315.81,81.49Zm-2,0a3.51,3.51,0,0,0-.5-2,1.76,1.76,0,0,0-1.57-.73,2.73,2.73,0,0,0-.92.15,2.7,2.7,0,0,0-.7.32v4.9a3.32,3.32,0,0,0,.55.09,6.24,6.24,0,0,0,.81,0,2.11,2.11,0,0,0,1.71-.74A3.09,3.09,0,0,0,313.8,81.46Z"/><path class="cls-7" d="M325.55,81.47a5.44,5.44,0,0,1-.29,1.85,4,4,0,0,1-.83,1.41,3.69,3.69,0,0,1-1.29.91,4.18,4.18,0,0,1-1.67.33,4,4,0,0,1-1.66-.33,3.69,3.69,0,0,1-1.29-.91,4.13,4.13,0,0,1-.84-1.41,5.44,5.44,0,0,1-.3-1.85,5.32,5.32,0,0,1,.3-1.83,4.09,4.09,0,0,1,.85-1.41,3.66,3.66,0,0,1,1.29-.9,4.22,4.22,0,0,1,1.65-.32,4.29,4.29,0,0,1,1.65.32,3.58,3.58,0,0,1,1.29.9,4.23,4.23,0,0,1,.84,1.41A5.32,5.32,0,0,1,325.55,81.47Zm-2,0a3.37,3.37,0,0,0-.54-2,1.78,1.78,0,0,0-1.52-.74,1.8,1.8,0,0,0-1.53.74,3.37,3.37,0,0,0-.54,2,3.43,3.43,0,0,0,.54,2,1.79,1.79,0,0,0,1.53.75,1.77,1.77,0,0,0,1.52-.75A3.43,3.43,0,0,0,323.53,81.47Z"/><path class="cls-7" d="M332.44,79c-.16,0-.38-.11-.67-.17a5,5,0,0,0-1-.09,4.41,4.41,0,0,0-.7.06l-.51.12v6.82h-2V77.63a12,12,0,0,1,1.43-.4,9.09,9.09,0,0,1,1.89-.19l.46,0,.52.06.5.1.4.11Z"/><path class="cls-7" d="M337,77a4.6,4.6,0,0,1,1.64.25,2.63,2.63,0,0,1,1.07.68,2.57,2.57,0,0,1,.57,1.07,5.35,5.35,0,0,1,.17,1.37v5.17c-.3.06-.76.14-1.38.23a13,13,0,0,1-2.07.14,6.07,6.07,0,0,1-1.4-.15,2.78,2.78,0,0,1-1.09-.47,2.39,2.39,0,0,1-.7-.84,2.94,2.94,0,0,1-.25-1.29,2.5,2.5,0,0,1,.29-1.24,2.24,2.24,0,0,1,.77-.82,3.58,3.58,0,0,1,1.13-.46,6.55,6.55,0,0,1,1.34-.14c.22,0,.45,0,.69,0s.49.08.76.14v-.32a2.27,2.27,0,0,0-.08-.65,1.37,1.37,0,0,0-.28-.55,1.41,1.41,0,0,0-.54-.37,2.47,2.47,0,0,0-.84-.13,8,8,0,0,0-1.25.1,5.72,5.72,0,0,0-.93.23l-.24-1.6a8.89,8.89,0,0,1,1.09-.26A9.09,9.09,0,0,1,337,77Zm.16,7.35a6.81,6.81,0,0,0,1.38-.1V82.08a2.3,2.3,0,0,0-.47-.1,4.61,4.61,0,0,0-.68,0,4.89,4.89,0,0,0-.66,0,1.91,1.91,0,0,0-.6.18,1.14,1.14,0,0,0-.44.37,1.24,1.24,0,0,0,.28,1.56A2.26,2.26,0,0,0,337.15,84.36Z"/><path class="cls-7" d="M342.38,81.49a5.39,5.39,0,0,1,.29-1.77,4.38,4.38,0,0,1,.84-1.42,3.89,3.89,0,0,1,1.33-1A4.49,4.49,0,0,1,346.6,77a6,6,0,0,1,2.28.44l-.43,1.61a5.42,5.42,0,0,0-.77-.24,3.87,3.87,0,0,0-.92-.1,2.14,2.14,0,0,0-1.76.73,3.1,3.1,0,0,0-.6,2,3.2,3.2,0,0,0,.57,2,2.26,2.26,0,0,0,1.92.74,5.36,5.36,0,0,0,1-.09,4.82,4.82,0,0,0,.85-.25l.28,1.63a3.85,3.85,0,0,1-1,.29,6.75,6.75,0,0,1-1.36.13,5,5,0,0,1-1.9-.33,3.55,3.55,0,0,1-1.33-.93,3.79,3.79,0,0,1-.79-1.42A5.93,5.93,0,0,1,342.38,81.49Z"/><path class="cls-7" d="M352.74,74.73a1.13,1.13,0,0,1-.36.88,1.27,1.27,0,0,1-1.71,0,1.27,1.27,0,0,1,0-1.77,1.27,1.27,0,0,1,1.71,0A1.12,1.12,0,0,1,352.74,74.73Zm-.22,11h-2V77.22h2Z"/><path class="cls-7" d="M362.74,81.47a5.44,5.44,0,0,1-.3,1.85,4,4,0,0,1-.83,1.41,3.69,3.69,0,0,1-1.29.91,4.15,4.15,0,0,1-1.67.33,4.07,4.07,0,0,1-1.66-.33,3.69,3.69,0,0,1-1.29-.91,4.13,4.13,0,0,1-.84-1.41,5.44,5.44,0,0,1-.3-1.85,5.32,5.32,0,0,1,.3-1.83,4.09,4.09,0,0,1,.85-1.41,3.66,3.66,0,0,1,1.29-.9,4.41,4.41,0,0,1,3.3,0,3.61,3.61,0,0,1,1.3.9,4.38,4.38,0,0,1,.83,1.41A5.09,5.09,0,0,1,362.74,81.47Zm-2,0a3.37,3.37,0,0,0-.55-2,1.93,1.93,0,0,0-3,0,3.3,3.3,0,0,0-.55,2,3.36,3.36,0,0,0,.55,2,1.92,1.92,0,0,0,3,0A3.43,3.43,0,0,0,360.72,81.47Zm0-7.73-2.66,2.57-1-.88,2.4-2.85Z"/><path class="cls-7" d="M364.77,77.5a13.74,13.74,0,0,1,1.48-.31,12.5,12.5,0,0,1,2-.15,4.67,4.67,0,0,1,1.75.29,2.79,2.79,0,0,1,1.11.8,3,3,0,0,1,.59,1.24,7.09,7.09,0,0,1,.17,1.58v4.79h-2V81.26a6.43,6.43,0,0,0-.09-1.16,2.16,2.16,0,0,0-.29-.78,1.17,1.17,0,0,0-.56-.44,2.36,2.36,0,0,0-.85-.14,5.49,5.49,0,0,0-.79.05l-.6.08v6.87h-2Z"/><path class="cls-7" d="M385.29,85.48a11.85,11.85,0,0,1-1.47.33A11.18,11.18,0,0,1,382,86a4.85,4.85,0,0,1-1.8-.31,3.64,3.64,0,0,1-1.36-.88,4,4,0,0,1-.87-1.4,5.4,5.4,0,0,1-.3-1.85,6.43,6.43,0,0,1,.25-1.83,4,4,0,0,1,.75-1.41,3.29,3.29,0,0,1,1.18-.91,3.93,3.93,0,0,1,1.62-.32,3.64,3.64,0,0,1,1.09.15,5.23,5.23,0,0,1,.81.33V73.43l2-.33Zm-5.65-4a3.09,3.09,0,0,0,.62,2,2.08,2.08,0,0,0,1.71.74,6.34,6.34,0,0,0,.81,0,3,3,0,0,0,.54-.09V79.23a3.16,3.16,0,0,0-.69-.34,2.77,2.77,0,0,0-.92-.15,1.75,1.75,0,0,0-1.57.73A3.51,3.51,0,0,0,379.64,81.46Z"/><path class="cls-7" d="M387.33,81.52a5.42,5.42,0,0,1,.33-2,4.19,4.19,0,0,1,.89-1.41,3.71,3.71,0,0,1,1.27-.84,4,4,0,0,1,1.47-.29A3.53,3.53,0,0,1,394,78.1a4.73,4.73,0,0,1,1,3.26c0,.11,0,.23,0,.37s0,.26,0,.36h-5.62a2.25,2.25,0,0,0,.73,1.59,2.72,2.72,0,0,0,1.86.56,6,6,0,0,0,1.32-.13,5.7,5.7,0,0,0,.93-.27l.26,1.61a4,4,0,0,1-.45.17,6.19,6.19,0,0,1-.65.16c-.24,0-.51.09-.79.13a8.12,8.12,0,0,1-.86,0,5.24,5.24,0,0,1-1.95-.33,3.54,3.54,0,0,1-1.37-.93,3.66,3.66,0,0,1-.8-1.4A5.82,5.82,0,0,1,387.33,81.52Zm5.72-.88a2.48,2.48,0,0,0-.12-.77,2.1,2.1,0,0,0-.33-.63,1.55,1.55,0,0,0-1.3-.58,1.71,1.71,0,0,0-.8.17,1.68,1.68,0,0,0-.57.45,2,2,0,0,0-.37.63,3.12,3.12,0,0,0-.18.73Z"/><path class="cls-7" d="M303.25,101a6,6,0,0,1-.25,1.79,4.14,4.14,0,0,1-.73,1.4,3.23,3.23,0,0,1-1.18.91,3.75,3.75,0,0,1-1.6.32,3.93,3.93,0,0,1-1.11-.14,4.21,4.21,0,0,1-.83-.33v3.31h-2V97c.4-.1.89-.21,1.48-.3a11.12,11.12,0,0,1,1.86-.15,5,5,0,0,1,1.81.31,3.58,3.58,0,0,1,1.35.89,3.78,3.78,0,0,1,.87,1.4A5.36,5.36,0,0,1,303.25,101Zm-2,0a3.19,3.19,0,0,0-.59-2,2.34,2.34,0,0,0-1.92-.74l-.58,0a2.91,2.91,0,0,0-.59.1v4.87a3.16,3.16,0,0,0,.69.34,2.82,2.82,0,0,0,.92.15,1.75,1.75,0,0,0,1.57-.73A3.48,3.48,0,0,0,301.23,101.07Z"/><path class="cls-7" d="M310.14,98.54c-.16-.05-.39-.11-.68-.17a4.88,4.88,0,0,0-1-.09,3.37,3.37,0,0,0-.69.07,3.6,3.6,0,0,0-.51.11v6.83h-2V97.18a9,9,0,0,1,1.42-.4,8.55,8.55,0,0,1,1.9-.19l.45,0,.52.07.51.1a3.59,3.59,0,0,1,.39.1Z"/><path class="cls-7" d="M311.38,101.07a5.38,5.38,0,0,1,.33-2,4,4,0,0,1,.89-1.41,3.59,3.59,0,0,1,1.27-.85,3.91,3.91,0,0,1,1.46-.28,3.51,3.51,0,0,1,2.75,1.09,4.71,4.71,0,0,1,1,3.26v.36c0,.14,0,.26,0,.37h-5.62a2.29,2.29,0,0,0,.73,1.59,2.77,2.77,0,0,0,1.86.56,6.53,6.53,0,0,0,1.31-.13,5.45,5.45,0,0,0,.94-.28l.26,1.61a2.7,2.7,0,0,1-.45.17,6,6,0,0,1-.65.17c-.24,0-.51.09-.79.12a8.11,8.11,0,0,1-.86,0,5.12,5.12,0,0,1-2-.34,3.6,3.6,0,0,1-1.36-.92,3.78,3.78,0,0,1-.8-1.41A5.46,5.46,0,0,1,311.38,101.07Zm5.71-.88a2.43,2.43,0,0,0-.11-.77,2,2,0,0,0-.33-.64,1.58,1.58,0,0,0-.54-.42,1.64,1.64,0,0,0-.76-.16,1.85,1.85,0,0,0-.8.17,1.85,1.85,0,0,0-.94,1.09,3,3,0,0,0-.18.73Z"/><path class="cls-7" d="M323.28,103.87a2.52,2.52,0,0,0,1.14-.19.66.66,0,0,0,.36-.64.84.84,0,0,0-.38-.7,5.32,5.32,0,0,0-1.26-.6,9.21,9.21,0,0,1-1-.42,3.43,3.43,0,0,1-.77-.51,2.18,2.18,0,0,1-.52-.71,2.59,2.59,0,0,1-.18-1,2.21,2.21,0,0,1,.86-1.85,3.7,3.7,0,0,1,2.34-.67,6.77,6.77,0,0,1,1.44.14,7.65,7.65,0,0,1,1,.26l-.35,1.6a4.63,4.63,0,0,0-.84-.27,5,5,0,0,0-1.17-.12,2.13,2.13,0,0,0-1,.2.67.67,0,0,0-.37.63.84.84,0,0,0,.07.37.92.92,0,0,0,.26.31,2.44,2.44,0,0,0,.47.27,7.09,7.09,0,0,0,.72.29,9.87,9.87,0,0,1,1.18.51,3.22,3.22,0,0,1,.81.57,1.85,1.85,0,0,1,.46.72,2.88,2.88,0,0,1,.15,1,2.11,2.11,0,0,1-.9,1.85,4.51,4.51,0,0,1-2.58.63,6.81,6.81,0,0,1-1.81-.19,9,9,0,0,1-1-.3l.34-1.65a8.57,8.57,0,0,0,1.05.35A5.36,5.36,0,0,0,323.28,103.87Z"/><path class="cls-7" d="M335.58,105c-.38.09-.88.19-1.48.3a12.46,12.46,0,0,1-2,.15,4.58,4.58,0,0,1-1.72-.29,2.72,2.72,0,0,1-1.1-.82,3.12,3.12,0,0,1-.6-1.24,6.55,6.55,0,0,1-.18-1.59V96.77h2v4.46a3.7,3.7,0,0,0,.4,2,1.57,1.57,0,0,0,1.4.58l.75,0a4.18,4.18,0,0,0,.6-.08V96.77h2Z"/><path class="cls-7" d="M345.76,101a6,6,0,0,1-.26,1.79,4.12,4.12,0,0,1-.72,1.4,3.31,3.31,0,0,1-1.18.91,3.75,3.75,0,0,1-1.6.32,3.83,3.83,0,0,1-1.11-.14,4,4,0,0,1-.83-.33v3.31h-2V97c.4-.1.89-.21,1.48-.3a10.92,10.92,0,0,1,1.85-.15,4.87,4.87,0,0,1,1.81.31,3.62,3.62,0,0,1,1.36.89,3.91,3.91,0,0,1,.87,1.4A5.36,5.36,0,0,1,345.76,101Zm-2,0a3.13,3.13,0,0,0-.6-2,2.3,2.3,0,0,0-1.91-.74l-.58,0a2.91,2.91,0,0,0-.59.1v4.87a3.16,3.16,0,0,0,.69.34,2.77,2.77,0,0,0,.92.15,1.75,1.75,0,0,0,1.57-.73A3.48,3.48,0,0,0,343.74,101.07Z"/><path class="cls-7" d="M354.78,105c-.38.09-.87.19-1.48.3a12.46,12.46,0,0,1-2,.15,4.49,4.49,0,0,1-1.71-.29,2.76,2.76,0,0,1-1.11-.82,3.12,3.12,0,0,1-.6-1.24,6.57,6.57,0,0,1-.17-1.59V96.77h2v4.46a3.72,3.72,0,0,0,.39,2,1.58,1.58,0,0,0,1.4.58l.75,0a4.18,4.18,0,0,0,.6-.08V96.77h2Z"/><path class="cls-7" d="M356.82,101.07a5.38,5.38,0,0,1,.33-2,4,4,0,0,1,.89-1.41,3.59,3.59,0,0,1,1.27-.85,3.91,3.91,0,0,1,1.46-.28,3.51,3.51,0,0,1,2.75,1.09,4.76,4.76,0,0,1,1,3.26v.36c0,.14,0,.26,0,.37h-5.62a2.29,2.29,0,0,0,.73,1.59,2.77,2.77,0,0,0,1.86.56,6.53,6.53,0,0,0,1.31-.13,5.45,5.45,0,0,0,.94-.28L364,105a2.7,2.7,0,0,1-.45.17c-.19.06-.41.12-.65.17s-.51.09-.79.12a8.11,8.11,0,0,1-.86,0,5.12,5.12,0,0,1-2-.34,3.72,3.72,0,0,1-1.37-.92,3.9,3.9,0,0,1-.79-1.41A5.46,5.46,0,0,1,356.82,101.07Zm5.71-.88a2.76,2.76,0,0,0-.11-.77,1.87,1.87,0,0,0-.34-.64,1.46,1.46,0,0,0-.53-.42,1.64,1.64,0,0,0-.76-.16,1.85,1.85,0,0,0-.8.17,1.85,1.85,0,0,0-.94,1.09,3,3,0,0,0-.18.73Z"/><path class="cls-7" d="M368.72,103.87a2.52,2.52,0,0,0,1.14-.19.66.66,0,0,0,.36-.64.84.84,0,0,0-.38-.7,5.23,5.23,0,0,0-1.27-.6,10,10,0,0,1-1-.42,3.43,3.43,0,0,1-.77-.51,2.18,2.18,0,0,1-.52-.71,2.59,2.59,0,0,1-.18-1,2.21,2.21,0,0,1,.86-1.85,3.7,3.7,0,0,1,2.34-.67,6.77,6.77,0,0,1,1.44.14,7.65,7.65,0,0,1,1,.26l-.36,1.6a4.25,4.25,0,0,0-.83-.27,5,5,0,0,0-1.17-.12,2.13,2.13,0,0,0-1,.2.67.67,0,0,0-.37.63.84.84,0,0,0,.07.37.92.92,0,0,0,.26.31,2.17,2.17,0,0,0,.47.27c.19.09.43.19.71.29a9.41,9.41,0,0,1,1.19.51,3.22,3.22,0,0,1,.81.57,1.85,1.85,0,0,1,.46.72,2.88,2.88,0,0,1,.15,1,2.11,2.11,0,0,1-.9,1.85,4.51,4.51,0,0,1-2.58.63,6.81,6.81,0,0,1-1.81-.19,9,9,0,0,1-1-.3l.34-1.65a8.57,8.57,0,0,0,1.05.35A5.36,5.36,0,0,0,368.72,103.87Z"/><path class="cls-7" d="M373.93,94.52l2-.32v2.57h3v1.64h-3v3.47a2.51,2.51,0,0,0,.33,1.47,1.31,1.31,0,0,0,1.11.44,3.48,3.48,0,0,0,1-.12,4.33,4.33,0,0,0,.66-.21l.32,1.57c-.22.09-.52.19-.89.3a5,5,0,0,1-1.3.15,4.24,4.24,0,0,1-1.53-.24,2.36,2.36,0,0,1-1-.71,3,3,0,0,1-.5-1.12,7,7,0,0,1-.15-1.51Z"/><path class="cls-7" d="M388.35,101a5.38,5.38,0,0,1-.3,1.84,4,4,0,0,1-.83,1.42,3.82,3.82,0,0,1-1.29.91,4.14,4.14,0,0,1-1.67.32,4.06,4.06,0,0,1-1.66-.32,3.82,3.82,0,0,1-1.29-.91,4.18,4.18,0,0,1-.84-1.42,5.38,5.38,0,0,1-.3-1.84,5.32,5.32,0,0,1,.3-1.83,4.15,4.15,0,0,1,.85-1.41,3.82,3.82,0,0,1,1.29-.91,4.55,4.55,0,0,1,3.3,0,3.77,3.77,0,0,1,1.3.91,4.48,4.48,0,0,1,.84,1.41A5.32,5.32,0,0,1,388.35,101Zm-2,0a3.26,3.26,0,0,0-.55-2,1.93,1.93,0,0,0-3,0,3.26,3.26,0,0,0-.55,2,3.31,3.31,0,0,0,.55,2,1.92,1.92,0,0,0,3,0A3.31,3.31,0,0,0,386.33,101Z"/><rect class="cls-29" x="149.47" y="308.95" width="135" height="47.33" rx="3.48" ry="3.48"/><path class="cls-7" d="M173.47,324.89a2.75,2.75,0,0,0,1.61-.37,1.23,1.23,0,0,0,.5-1.06,1.32,1.32,0,0,0-.17-.7,1.63,1.63,0,0,0-.49-.53,4.22,4.22,0,0,0-.77-.44c-.3-.13-.65-.27-1-.4s-.77-.29-1.13-.46a3.63,3.63,0,0,1-1-.63,2.94,2.94,0,0,1-.67-.89,2.86,2.86,0,0,1-.25-1.26,3,3,0,0,1,1.05-2.4,4.43,4.43,0,0,1,2.89-.87,7.17,7.17,0,0,1,1.88.23,5.44,5.44,0,0,1,1.29.52l-.63,1.66a4.48,4.48,0,0,0-1.22-.47,5.57,5.57,0,0,0-1.36-.17,2.13,2.13,0,0,0-1.29.35,1.1,1.1,0,0,0-.46,1,1.29,1.29,0,0,0,.15.64,1.53,1.53,0,0,0,.44.48,3.82,3.82,0,0,0,.67.39,8.6,8.6,0,0,0,.84.34c.53.2,1,.4,1.42.6a4.18,4.18,0,0,1,1.06.71,2.83,2.83,0,0,1,.66,1,3.68,3.68,0,0,1,.23,1.36,2.81,2.81,0,0,1-1.09,2.37,5.07,5.07,0,0,1-3.16.84,8.29,8.29,0,0,1-1.28-.09,7.66,7.66,0,0,1-1-.22c-.3-.09-.55-.18-.77-.27a3.66,3.66,0,0,1-.52-.25l.6-1.68a6.83,6.83,0,0,0,1.19.49A6,6,0,0,0,173.47,324.89Z"/><path class="cls-7" d="M179,322.21a5.38,5.38,0,0,1,.33-2,4,4,0,0,1,.89-1.41,3.59,3.59,0,0,1,1.27-.85,3.87,3.87,0,0,1,1.46-.28,3.51,3.51,0,0,1,2.75,1.09,4.73,4.73,0,0,1,1,3.25c0,.11,0,.23,0,.37s0,.26,0,.37H181a2.21,2.21,0,0,0,.73,1.58,2.71,2.71,0,0,0,1.86.57,6.53,6.53,0,0,0,1.31-.13,5.45,5.45,0,0,0,.94-.28l.26,1.61a2.7,2.7,0,0,1-.45.17c-.19.06-.41.12-.65.17l-.79.12a8.11,8.11,0,0,1-.86.05,5.12,5.12,0,0,1-2-.34,3.62,3.62,0,0,1-1.37-.93,3.78,3.78,0,0,1-.79-1.4A5.46,5.46,0,0,1,179,322.21Zm5.71-.88a2.88,2.88,0,0,0-.11-.78,1.91,1.91,0,0,0-.34-.63,1.46,1.46,0,0,0-.53-.42,1.67,1.67,0,0,0-.76-.16,1.74,1.74,0,0,0-1.38.62,2.07,2.07,0,0,0-.36.63,3.2,3.2,0,0,0-.18.74Z"/><path class="cls-7" d="M197.38,319.68c-.17-.05-.39-.11-.68-.17a5,5,0,0,0-1-.09,3.37,3.37,0,0,0-.69.07,4.24,4.24,0,0,0-.52.11v6.82h-2v-8.11a10.5,10.5,0,0,1,1.43-.39,8.52,8.52,0,0,1,1.89-.19l.46,0,.52.07a4.18,4.18,0,0,1,.51.1,3.59,3.59,0,0,1,.39.1Z"/><path class="cls-7" d="M198.61,322.21a5.18,5.18,0,0,1,.34-2,4,4,0,0,1,.88-1.41,3.69,3.69,0,0,1,1.27-.85,4,4,0,0,1,1.47-.28,3.48,3.48,0,0,1,2.74,1.09,4.68,4.68,0,0,1,1,3.25c0,.11,0,.23,0,.37s0,.26,0,.37h-5.62a2.2,2.2,0,0,0,.72,1.58,2.73,2.73,0,0,0,1.87.57,6.61,6.61,0,0,0,1.31-.13,5.45,5.45,0,0,0,.94-.28l.26,1.61a2.7,2.7,0,0,1-.45.17c-.19.06-.41.12-.65.17l-.79.12a8.3,8.3,0,0,1-.87.05,5,5,0,0,1-2-.34,3.62,3.62,0,0,1-1.37-.93,3.8,3.8,0,0,1-.8-1.4A5.75,5.75,0,0,1,198.61,322.21Zm5.72-.88a2.88,2.88,0,0,0-.11-.78,1.91,1.91,0,0,0-.34-.63,1.49,1.49,0,0,0-.54-.42,1.6,1.6,0,0,0-.75-.16,1.81,1.81,0,0,0-.8.17,1.85,1.85,0,0,0-.58.45,2.09,2.09,0,0,0-.37.63,3.78,3.78,0,0,0-.17.74Z"/><path class="cls-7" d="M211.22,317.7a4.85,4.85,0,0,1,1.64.24,2.63,2.63,0,0,1,1.07.68,2.52,2.52,0,0,1,.57,1.07,5.43,5.43,0,0,1,.17,1.38v5.16l-1.37.24a14.58,14.58,0,0,1-2.08.13,6.7,6.7,0,0,1-1.4-.14,3.1,3.1,0,0,1-1.09-.47,2.34,2.34,0,0,1-.7-.85,3.09,3.09,0,0,1-.25-1.29,2.5,2.5,0,0,1,.29-1.24,2.42,2.42,0,0,1,.77-.82,3.58,3.58,0,0,1,1.13-.46,6.58,6.58,0,0,1,1.35-.13,5.49,5.49,0,0,1,.68,0,4.85,4.85,0,0,1,.77.14v-.33a2.32,2.32,0,0,0-.09-.65,1.25,1.25,0,0,0-.28-.55,1.39,1.39,0,0,0-.54-.36,2.25,2.25,0,0,0-.84-.13,8.07,8.07,0,0,0-1.25.09,7,7,0,0,0-.93.23l-.24-1.59a6.5,6.5,0,0,1,1.09-.26A8.31,8.31,0,0,1,211.22,317.7Zm.16,7.34a7,7,0,0,0,1.39-.1v-2.18l-.48-.1a4.61,4.61,0,0,0-.68-.05,4.89,4.89,0,0,0-.66.05,2.21,2.21,0,0,0-.6.18,1,1,0,0,0-.43.37,1,1,0,0,0-.17.59,1,1,0,0,0,.44,1A2.28,2.28,0,0,0,211.38,325Z"/><path class="cls-7" d="M220.05,326.59a5.24,5.24,0,0,1-1.46-.2,2.26,2.26,0,0,1-.92-.51,1.77,1.77,0,0,1-.48-.83,4.31,4.31,0,0,1-.14-1.13v-9.81l2-.32v9.75a2.52,2.52,0,0,0,.06.6.83.83,0,0,0,.2.42,1,1,0,0,0,.4.26,2.93,2.93,0,0,0,.64.14Z"/><path class="cls-7" d="M224.12,315.42a1.11,1.11,0,0,1-.36.87,1.21,1.21,0,0,1-.85.33,1.23,1.23,0,0,1-.86-.33,1.11,1.11,0,0,1-.36-.87,1.16,1.16,0,0,1,.36-.9,1.23,1.23,0,0,1,.86-.33,1.21,1.21,0,0,1,.85.33A1.16,1.16,0,0,1,224.12,315.42Zm-.21,11h-2v-8.51h2Z"/><path class="cls-7" d="M232.37,319.29c-.21.23-.5.55-.85,1s-.73.87-1.13,1.38-.81,1-1.22,1.58-.77,1.07-1.1,1.57h4.4v1.64H225.7V325.2a15.72,15.72,0,0,1,.89-1.41c.36-.51.73-1,1.11-1.54s.76-1,1.13-1.48l1-1.22h-3.92v-1.64h6.46Z"/><path class="cls-7" d="M237.13,317.7a5,5,0,0,1,1.65.24,2.59,2.59,0,0,1,1.06.68,2.52,2.52,0,0,1,.57,1.07,5,5,0,0,1,.17,1.38v5.16l-1.37.24a14.58,14.58,0,0,1-2.08.13,6.7,6.7,0,0,1-1.4-.14,3.13,3.13,0,0,1-1.08-.47,2.15,2.15,0,0,1-.7-.85,2.93,2.93,0,0,1-.26-1.29,2.5,2.5,0,0,1,.29-1.24,2.42,2.42,0,0,1,.77-.82,3.68,3.68,0,0,1,1.13-.46,6.58,6.58,0,0,1,1.35-.13,5.38,5.38,0,0,1,.68,0,4.66,4.66,0,0,1,.77.14v-.33a2.75,2.75,0,0,0-.08-.65,1.39,1.39,0,0,0-.29-.55,1.25,1.25,0,0,0-.54-.36,2.23,2.23,0,0,0-.83-.13,8.11,8.11,0,0,0-1.26.09,7,7,0,0,0-.93.23l-.24-1.59a6.5,6.5,0,0,1,1.09-.26A8.31,8.31,0,0,1,237.13,317.7Zm.16,7.34a7,7,0,0,0,1.39-.1v-2.18l-.47-.1a4.58,4.58,0,0,0-1.35,0,2.21,2.21,0,0,0-.6.18,1.11,1.11,0,0,0-.43.37,1,1,0,0,0-.17.59,1,1,0,0,0,.44,1A2.28,2.28,0,0,0,237.29,325Z"/><path class="cls-7" d="M253.78,326.16c-.38.1-.88.2-1.49.31a12.25,12.25,0,0,1-2,.15,4.54,4.54,0,0,1-1.72-.29,2.83,2.83,0,0,1-1.11-.82,3.25,3.25,0,0,1-.59-1.24,6.67,6.67,0,0,1-.18-1.59v-4.77h2v4.46a3.55,3.55,0,0,0,.4,1.95,1.57,1.57,0,0,0,1.39.59l.76,0a4,4,0,0,0,.59-.08v-6.89h2Z"/><path class="cls-7" d="M256.28,318.18c.38-.1.88-.21,1.49-.31a13.73,13.73,0,0,1,2-.14,4.67,4.67,0,0,1,1.74.28,2.72,2.72,0,0,1,1.11.8,3,3,0,0,1,.59,1.24,7.11,7.11,0,0,1,.17,1.59v4.78h-2V322a6.47,6.47,0,0,0-.09-1.17,2.16,2.16,0,0,0-.29-.78,1.17,1.17,0,0,0-.56-.44,2.32,2.32,0,0,0-.85-.14,7.11,7.11,0,0,0-.78.05l-.61.08v6.87h-2Z"/><path class="cls-7" d="M181.57,345.71a10.42,10.42,0,0,1-1.47.32,11.33,11.33,0,0,1-1.87.15,4.91,4.91,0,0,1-1.81-.31,3.7,3.7,0,0,1-1.36-.89,3.89,3.89,0,0,1-.86-1.4,5.36,5.36,0,0,1-.3-1.85,6.18,6.18,0,0,1,.25-1.83,4.11,4.11,0,0,1,.74-1.41,3.3,3.3,0,0,1,1.19-.9,3.89,3.89,0,0,1,1.61-.32,3.54,3.54,0,0,1,1.09.15,6.12,6.12,0,0,1,.82.32v-4.08l2-.33Zm-5.65-4a3.05,3.05,0,0,0,.62,2,2.11,2.11,0,0,0,1.71.74,6.17,6.17,0,0,0,.8,0l.55-.09v-4.89a3.18,3.18,0,0,0-.69-.33A2.82,2.82,0,0,0,178,339a1.78,1.78,0,0,0-1.58.73A3.51,3.51,0,0,0,175.92,341.69Z"/><path class="cls-7" d="M186.28,335a1.13,1.13,0,0,1-.36.88,1.3,1.3,0,0,1-1.71,0,1.13,1.13,0,0,1-.36-.88,1.16,1.16,0,0,1,.36-.9,1.3,1.3,0,0,1,1.71,0A1.16,1.16,0,0,1,186.28,335Zm-.22,11h-2v-8.52h2Z"/><path class="cls-7" d="M191.41,337.24a4.85,4.85,0,0,1,1.64.24,2.65,2.65,0,0,1,1.07.69,2.71,2.71,0,0,1,.57,1.06,5.43,5.43,0,0,1,.17,1.38v5.16c-.31.07-.76.15-1.38.24a14.24,14.24,0,0,1-2.07.14A6.07,6.07,0,0,1,190,346a2.93,2.93,0,0,1-1.09-.47,2.24,2.24,0,0,1-.7-.85,2.89,2.89,0,0,1-.25-1.28,2.47,2.47,0,0,1,.28-1.24,2.38,2.38,0,0,1,.78-.83,3.26,3.26,0,0,1,1.13-.45,6.55,6.55,0,0,1,1.34-.14,5.53,5.53,0,0,1,.69,0,5.87,5.87,0,0,1,.76.14v-.33a2.36,2.36,0,0,0-.08-.65,1.33,1.33,0,0,0-.28-.54,1.41,1.41,0,0,0-.54-.37,2.25,2.25,0,0,0-.84-.13,6.88,6.88,0,0,0-1.25.1,4.84,4.84,0,0,0-.93.23l-.25-1.6a7.88,7.88,0,0,1,1.1-.26A8.16,8.16,0,0,1,191.41,337.24Zm.16,7.34a7.84,7.84,0,0,0,1.38-.09V342.3a4,4,0,0,0-.47-.09,3.62,3.62,0,0,0-.68,0,3.67,3.67,0,0,0-.66,0,1.89,1.89,0,0,0-.61.18,1.07,1.07,0,0,0-.43.36,1,1,0,0,0-.16.6,1.06,1.06,0,0,0,.44,1A2.26,2.26,0,0,0,191.57,344.58Z"/><path class="cls-7" d="M204.31,345.11a3.86,3.86,0,0,1-1,3,4.57,4.57,0,0,1-3.17.94,8.43,8.43,0,0,1-1.52-.13,9,9,0,0,1-1.34-.34l.35-1.68a5.78,5.78,0,0,0,1.15.34,6.87,6.87,0,0,0,1.4.13,2.37,2.37,0,0,0,1.69-.49,1.88,1.88,0,0,0,.5-1.44v-.33a4.05,4.05,0,0,1-.77.29,3.7,3.7,0,0,1-1.1.15,4.2,4.2,0,0,1-1.49-.26,3.19,3.19,0,0,1-1.16-.77,3.26,3.26,0,0,1-.74-1.26,5.19,5.19,0,0,1-.27-1.75,5,5,0,0,1,.28-1.71,3.75,3.75,0,0,1,.83-1.34,4.07,4.07,0,0,1,1.33-.86,4.92,4.92,0,0,1,1.78-.31,10.64,10.64,0,0,1,1.82.15c.57.1,1.06.2,1.47.31Zm-5.49-3.62a2.6,2.6,0,0,0,.54,1.83,1.86,1.86,0,0,0,1.41.58,2.86,2.86,0,0,0,.89-.13,2.47,2.47,0,0,0,.67-.31v-4.41a2.91,2.91,0,0,0-.52-.09,5.57,5.57,0,0,0-.78,0,2,2,0,0,0-1.64.71A2.87,2.87,0,0,0,198.82,341.49Z"/><path class="cls-7" d="M206.81,337.73a13.48,13.48,0,0,1,1.49-.31,12.37,12.37,0,0,1,2-.15,4.67,4.67,0,0,1,1.75.29,2.7,2.7,0,0,1,1.11.79,3,3,0,0,1,.59,1.24,7.25,7.25,0,0,1,.17,1.59V346h-2v-4.48a6.35,6.35,0,0,0-.09-1.16,2.21,2.21,0,0,0-.29-.79,1.23,1.23,0,0,0-.56-.44,2.37,2.37,0,0,0-.85-.13,7,7,0,0,0-.78,0c-.28,0-.48.06-.61.09V346h-2Z"/><path class="cls-7" d="M224,341.7a5.34,5.34,0,0,1-.29,1.84,3.92,3.92,0,0,1-.83,1.42,3.82,3.82,0,0,1-1.29.91,4.18,4.18,0,0,1-1.67.33,4.11,4.11,0,0,1-1.67-.33A3.88,3.88,0,0,1,217,345a4.08,4.08,0,0,1-.84-1.42,5.76,5.76,0,0,1,0-3.67,4,4,0,0,1,.85-1.41,3.66,3.66,0,0,1,1.29-.9,4,4,0,0,1,1.65-.32,4.11,4.11,0,0,1,1.65.32,3.58,3.58,0,0,1,1.29.9,4.13,4.13,0,0,1,.84,1.41A5.32,5.32,0,0,1,224,341.7Zm-2,0a3.33,3.33,0,0,0-.54-2A1.78,1.78,0,0,0,220,339a1.8,1.8,0,0,0-1.53.74,3.33,3.33,0,0,0-.54,2,3.43,3.43,0,0,0,.54,2,1.79,1.79,0,0,0,1.53.75,1.77,1.77,0,0,0,1.52-.75A3.43,3.43,0,0,0,222,341.7Zm0-7.73-2.65,2.57-1-.88,2.4-2.85Z"/><path class="cls-7" d="M228.21,344.55a2.52,2.52,0,0,0,1.14-.19.65.65,0,0,0,.36-.64.85.85,0,0,0-.38-.7,6.25,6.25,0,0,0-1.26-.6,9.21,9.21,0,0,1-1-.42,2.87,2.87,0,0,1-.77-.51,2.18,2.18,0,0,1-.52-.71,2.55,2.55,0,0,1-.18-1,2.22,2.22,0,0,1,.86-1.84,3.67,3.67,0,0,1,2.35-.68,7.38,7.38,0,0,1,1.43.14,6.33,6.33,0,0,1,1,.27l-.36,1.59a4.76,4.76,0,0,0-.83-.27,5.17,5.17,0,0,0-1.18-.12,2.09,2.09,0,0,0-1,.2.68.68,0,0,0-.38.63.92.92,0,0,0,.08.38.7.7,0,0,0,.25.3,2.44,2.44,0,0,0,.47.27,5.94,5.94,0,0,0,.72.29,10.87,10.87,0,0,1,1.19.51,3.35,3.35,0,0,1,.8.57,2,2,0,0,1,.47.73,3.12,3.12,0,0,1,.14,1,2.09,2.09,0,0,1-.9,1.84,4.47,4.47,0,0,1-2.58.63,6.86,6.86,0,0,1-1.81-.19,7.12,7.12,0,0,1-1-.3l.34-1.64a8.69,8.69,0,0,0,1,.34A5.36,5.36,0,0,0,228.21,344.55Z"/><path class="cls-7" d="M233.42,335.2l2-.32v2.57h3v1.65h-3v3.46a2.5,2.5,0,0,0,.32,1.47,1.31,1.31,0,0,0,1.11.44,3.87,3.87,0,0,0,.95-.11,5.58,5.58,0,0,0,.66-.22l.33,1.57a6.71,6.71,0,0,1-.9.3,5,5,0,0,1-1.3.15,4.14,4.14,0,0,1-1.52-.24,2.16,2.16,0,0,1-1-.71,2.82,2.82,0,0,1-.51-1.12,6.83,6.83,0,0,1-.15-1.51Z"/><path class="cls-7" d="M242.53,335a1.13,1.13,0,0,1-.36.88,1.2,1.2,0,0,1-.85.32,1.23,1.23,0,0,1-.86-.32,1.13,1.13,0,0,1-.36-.88,1.16,1.16,0,0,1,.36-.9,1.27,1.27,0,0,1,.86-.32,1.25,1.25,0,0,1,.85.32A1.16,1.16,0,0,1,242.53,335Zm-.21,11h-2v-8.52h2Z"/><path class="cls-7" d="M244.35,341.72a5.14,5.14,0,0,1,.3-1.77,4.09,4.09,0,0,1,.83-1.42,3.85,3.85,0,0,1,1.33-.95,4.32,4.32,0,0,1,1.76-.34,6,6,0,0,1,2.28.44l-.42,1.61a4,4,0,0,0-.78-.24,3.82,3.82,0,0,0-.92-.1,2.14,2.14,0,0,0-1.75.72,3.1,3.1,0,0,0-.61,2.05,3.22,3.22,0,0,0,.57,2,2.29,2.29,0,0,0,1.92.74,4.78,4.78,0,0,0,1-.1,4.31,4.31,0,0,0,.85-.24l.27,1.63a4.19,4.19,0,0,1-1,.29,6.82,6.82,0,0,1-1.36.13,5,5,0,0,1-1.9-.33,3.83,3.83,0,0,1-1.34-.93,4,4,0,0,1-.79-1.42A6,6,0,0,1,244.35,341.72Z"/><path class="cls-7" d="M260,341.7a5.34,5.34,0,0,1-.3,1.84,3.92,3.92,0,0,1-.83,1.42,3.73,3.73,0,0,1-1.29.91,4.15,4.15,0,0,1-1.67.33,4.07,4.07,0,0,1-1.66-.33A3.82,3.82,0,0,1,253,345a4.08,4.08,0,0,1-.84-1.42,5.76,5.76,0,0,1,0-3.67,4.15,4.15,0,0,1,.85-1.41,3.66,3.66,0,0,1,1.29-.9,4.41,4.41,0,0,1,3.3,0,3.61,3.61,0,0,1,1.3.9,4.13,4.13,0,0,1,.84,1.41A5.32,5.32,0,0,1,260,341.7Zm-2,0a3.26,3.26,0,0,0-.55-2,1.93,1.93,0,0,0-3,0,3.26,3.26,0,0,0-.55,2,3.36,3.36,0,0,0,.55,2,1.92,1.92,0,0,0,3,0A3.36,3.36,0,0,0,258,341.7Z"/><rect class="cls-29" x="420.36" y="175.59" width="151" height="47.33" rx="3.48" ry="3.48"/><path class="cls-7" d="M437,181.66a6.54,6.54,0,0,1,3.74.9,3.38,3.38,0,0,1-1,5.85c.2.25.44.55.7.91s.53.74.8,1.16.53.85.78,1.29.47.87.67,1.29h-2.3c-.21-.39-.43-.78-.67-1.18s-.48-.78-.72-1.15-.49-.73-.73-1.06-.46-.63-.67-.89l-.39,0H436v4.26h-2V181.94a11.08,11.08,0,0,1,1.59-.22C436.07,181.68,436.57,181.66,437,181.66Zm.15,1.78a11.39,11.39,0,0,0-1.21.05v3.64h.9a8.66,8.66,0,0,0,1.32-.08,2.73,2.73,0,0,0,.95-.29,1.45,1.45,0,0,0,.58-.57,1.89,1.89,0,0,0,.19-.91,1.82,1.82,0,0,0-.19-.88,1.46,1.46,0,0,0-.56-.57,2.76,2.76,0,0,0-.88-.3A6.2,6.2,0,0,0,437.17,183.44Z"/><path class="cls-7" d="M443.76,188.84a5.25,5.25,0,0,1,.34-2,4,4,0,0,1,.88-1.4,3.69,3.69,0,0,1,1.27-.85,4,4,0,0,1,1.47-.29,3.52,3.52,0,0,1,2.74,1.09,4.73,4.73,0,0,1,1,3.26c0,.11,0,.23,0,.37s0,.26,0,.37H445.8a2.2,2.2,0,0,0,.72,1.58,2.73,2.73,0,0,0,1.87.57,5.91,5.91,0,0,0,1.31-.14,4.76,4.76,0,0,0,.94-.27l.26,1.61a2.7,2.7,0,0,1-.45.17,4.76,4.76,0,0,1-.65.16l-.79.13a8.3,8.3,0,0,1-.87.05,5.23,5.23,0,0,1-1.95-.34,3.62,3.62,0,0,1-1.37-.93,3.8,3.8,0,0,1-.8-1.4A5.77,5.77,0,0,1,443.76,188.84Zm5.72-.87a2.5,2.5,0,0,0-.12-.78,1.73,1.73,0,0,0-.33-.63,1.63,1.63,0,0,0-.54-.43,1.73,1.73,0,0,0-.75-.15,1.81,1.81,0,0,0-.8.17,1.71,1.71,0,0,0-.58.45,2,2,0,0,0-.37.63,4.7,4.7,0,0,0-.18.74Z"/><path class="cls-7" d="M461.21,188.81a6,6,0,0,1-.26,1.79,4.21,4.21,0,0,1-.72,1.4,3.23,3.23,0,0,1-1.18.92,3.92,3.92,0,0,1-1.61.32,4.19,4.19,0,0,1-1.1-.14,4.32,4.32,0,0,1-.84-.33v3.31h-2V184.82c.41-.11.9-.21,1.49-.31a12.08,12.08,0,0,1,1.85-.14,4.87,4.87,0,0,1,1.81.31,3.72,3.72,0,0,1,1.36.88,3.92,3.92,0,0,1,.86,1.4A5.4,5.4,0,0,1,461.21,188.81Zm-2,0a3.17,3.17,0,0,0-.6-2.05,2.31,2.31,0,0,0-1.91-.73l-.58,0a4.21,4.21,0,0,0-.6.11v4.87a3.06,3.06,0,0,0,.7.33,2.51,2.51,0,0,0,.92.16,1.78,1.78,0,0,0,1.57-.73A3.5,3.5,0,0,0,459.19,188.84Z"/><path class="cls-7" d="M470.23,192.8c-.38.1-.88.2-1.48.3a11.37,11.37,0,0,1-2,.16A4.58,4.58,0,0,1,465,193a2.72,2.72,0,0,1-1.1-.82,3.19,3.19,0,0,1-.6-1.24,6.67,6.67,0,0,1-.18-1.59v-4.77h2V189a3.64,3.64,0,0,0,.4,2,1.58,1.58,0,0,0,1.4.59l.75,0a3.89,3.89,0,0,0,.6-.09v-6.88h2Z"/><path class="cls-7" d="M472.26,188.84a5.46,5.46,0,0,1,.34-2,4.05,4.05,0,0,1,.89-1.4,3.51,3.51,0,0,1,1.27-.85,3.88,3.88,0,0,1,1.46-.29,3.55,3.55,0,0,1,2.75,1.09,4.77,4.77,0,0,1,1,3.26c0,.11,0,.23,0,.37s0,.26,0,.37H474.3A2.24,2.24,0,0,0,475,191a2.75,2.75,0,0,0,1.87.57,5.91,5.91,0,0,0,1.31-.14,4.76,4.76,0,0,0,.94-.27l.26,1.61a2.7,2.7,0,0,1-.45.17,4.76,4.76,0,0,1-.65.16l-.79.13a8.11,8.11,0,0,1-.86.05,5.28,5.28,0,0,1-2-.34,3.62,3.62,0,0,1-1.37-.93,3.8,3.8,0,0,1-.8-1.4A5.77,5.77,0,0,1,472.26,188.84ZM478,188a2.83,2.83,0,0,0-.11-.78,1.91,1.91,0,0,0-.34-.63,1.6,1.6,0,0,0-.53-.43,2,2,0,0,0-1.56,0,1.71,1.71,0,0,0-.58.45,1.79,1.79,0,0,0-.36.63,3.2,3.2,0,0,0-.18.74Z"/><path class="cls-7" d="M484.17,191.65a2.67,2.67,0,0,0,1.14-.19.67.67,0,0,0,.36-.64.83.83,0,0,0-.38-.7,5.58,5.58,0,0,0-1.27-.61c-.36-.13-.68-.27-1-.41a3.42,3.42,0,0,1-.78-.52,2.26,2.26,0,0,1-.51-.7,2.58,2.58,0,0,1-.19-1,2.22,2.22,0,0,1,.87-1.85,3.68,3.68,0,0,1,2.34-.68,7.48,7.48,0,0,1,1.44.14,6.45,6.45,0,0,1,1,.27l-.36,1.6a4.25,4.25,0,0,0-.83-.27,5.07,5.07,0,0,0-1.17-.12,2,2,0,0,0-1,.2.66.66,0,0,0-.37.63.87.87,0,0,0,.07.37.77.77,0,0,0,.25.3,2.54,2.54,0,0,0,.48.28,5.85,5.85,0,0,0,.71.28,11,11,0,0,1,1.19.52,3.22,3.22,0,0,1,.81.57,2,2,0,0,1,.46.72,2.84,2.84,0,0,1,.15,1,2.1,2.1,0,0,1-.91,1.85,4.47,4.47,0,0,1-2.58.63,7.17,7.17,0,0,1-1.8-.19c-.46-.13-.78-.23-1-.3l.35-1.65a7.22,7.22,0,0,0,1,.34A5.29,5.29,0,0,0,484.17,191.65Z"/><path class="cls-7" d="M489.38,182.3l2-.33v2.58h3v1.64h-3v3.47a2.53,2.53,0,0,0,.33,1.47,1.28,1.28,0,0,0,1.1.44,3.5,3.5,0,0,0,1-.12c.27-.07.49-.15.66-.21l.32,1.56a6.07,6.07,0,0,1-.89.3,4.65,4.65,0,0,1-1.31.16A4,4,0,0,1,491,193a2.2,2.2,0,0,1-1-.7,2.85,2.85,0,0,1-.5-1.13,6.8,6.8,0,0,1-.15-1.5Z"/><path class="cls-7" d="M503.79,188.8a5.42,5.42,0,0,1-.29,1.84,4,4,0,0,1-.83,1.41,3.85,3.85,0,0,1-1.29.92,4.36,4.36,0,0,1-1.67.32,4.24,4.24,0,0,1-1.66-.32,3.85,3.85,0,0,1-1.29-.92,4.13,4.13,0,0,1-.84-1.41,5.42,5.42,0,0,1-.3-1.84,5.34,5.34,0,0,1,.3-1.84,4,4,0,0,1,.85-1.4,3.56,3.56,0,0,1,1.29-.91,4.41,4.41,0,0,1,3.3,0,3.52,3.52,0,0,1,1.3.91,4.33,4.33,0,0,1,.83,1.4A5.34,5.34,0,0,1,503.79,188.8Zm-2,0a3.33,3.33,0,0,0-.55-2,1.77,1.77,0,0,0-1.52-.75,1.8,1.8,0,0,0-1.53.75,3.33,3.33,0,0,0-.54,2,3.42,3.42,0,0,0,.54,2,1.8,1.8,0,0,0,1.53.75,1.77,1.77,0,0,0,1.52-.75A3.42,3.42,0,0,0,501.78,188.8Z"/><path class="cls-7" d="M509.63,184.82a12.76,12.76,0,0,1,1.48-.31,13.83,13.83,0,0,1,2-.14,4.67,4.67,0,0,1,1.74.28,2.76,2.76,0,0,1,1.12.8,3,3,0,0,1,.58,1.24,6.57,6.57,0,0,1,.17,1.59v4.78h-2v-4.48a6.43,6.43,0,0,0-.09-1.16,2.16,2.16,0,0,0-.29-.78,1.19,1.19,0,0,0-.55-.44,2.42,2.42,0,0,0-.86-.14,7.11,7.11,0,0,0-.78.05l-.6.08v6.87h-2Z"/><path class="cls-7" d="M526.14,192.8c-.38.1-.87.2-1.48.3a11.37,11.37,0,0,1-2,.16,4.49,4.49,0,0,1-1.71-.29,2.76,2.76,0,0,1-1.11-.82,3.19,3.19,0,0,1-.6-1.24,6.69,6.69,0,0,1-.17-1.59v-4.77h2V189a3.65,3.65,0,0,0,.39,2,1.59,1.59,0,0,0,1.4.59l.75,0a3.89,3.89,0,0,0,.6-.09v-6.88h2Z"/><path class="cls-7" d="M528.18,188.84a5.46,5.46,0,0,1,.33-2,4.05,4.05,0,0,1,.89-1.4,3.59,3.59,0,0,1,1.27-.85,3.92,3.92,0,0,1,1.46-.29,3.54,3.54,0,0,1,2.75,1.09,4.77,4.77,0,0,1,1,3.26c0,.11,0,.23,0,.37s0,.26,0,.37h-5.62a2.25,2.25,0,0,0,.73,1.58,2.72,2.72,0,0,0,1.86.57,5.85,5.85,0,0,0,1.31-.14,4.76,4.76,0,0,0,.94-.27l.26,1.61a2.7,2.7,0,0,1-.45.17,4.76,4.76,0,0,1-.65.16c-.24.05-.51.09-.79.13a8.11,8.11,0,0,1-.86.05,5.32,5.32,0,0,1-2-.34,3.62,3.62,0,0,1-1.37-.93,3.78,3.78,0,0,1-.79-1.4A5.48,5.48,0,0,1,528.18,188.84Zm5.71-.87a2.83,2.83,0,0,0-.11-.78,1.91,1.91,0,0,0-.34-.63,1.6,1.6,0,0,0-.53-.43,1.78,1.78,0,0,0-.76-.15,1.85,1.85,0,0,0-.8.17,1.71,1.71,0,0,0-.58.45,2,2,0,0,0-.36.63,3.2,3.2,0,0,0-.18.74Z"/><path class="cls-7" d="M540.14,193.06c-.54-1.11-1.1-2.4-1.67-3.85a47.06,47.06,0,0,1-1.57-4.66H539c.12.47.25,1,.41,1.53s.33,1.1.51,1.65.36,1.08.56,1.6.36,1,.53,1.39c.16-.41.34-.88.52-1.39s.37-1.05.55-1.6.35-1.1.51-1.65.31-1.06.43-1.53h2a47.06,47.06,0,0,1-1.57,4.66c-.57,1.45-1.13,2.74-1.67,3.85Z"/><path class="cls-7" d="M554,188.8a5.68,5.68,0,0,1-.29,1.84,4.11,4.11,0,0,1-.83,1.41,3.79,3.79,0,0,1-1.3.92,4.49,4.49,0,0,1-3.33,0,3.81,3.81,0,0,1-1.28-.92,4.13,4.13,0,0,1-.84-1.41,5.42,5.42,0,0,1-.3-1.84,5.34,5.34,0,0,1,.3-1.84,4,4,0,0,1,.85-1.4,3.56,3.56,0,0,1,1.29-.91,4.21,4.21,0,0,1,1.64-.32,4.31,4.31,0,0,1,1.66.32,3.56,3.56,0,0,1,1.29.91,4.18,4.18,0,0,1,.84,1.4A5.34,5.34,0,0,1,554,188.8Zm-2,0a3.33,3.33,0,0,0-.54-2,1.93,1.93,0,0,0-3.05,0,3.33,3.33,0,0,0-.54,2,3.42,3.42,0,0,0,.54,2,1.93,1.93,0,0,0,3.05,0A3.42,3.42,0,0,0,552,188.8Z"/><path class="cls-7" d="M558.09,190.9a2.61,2.61,0,0,1,0,.4v.27a7.41,7.41,0,0,1-.32,2.08,9,9,0,0,1-.89,2l-1.55-.43a7.84,7.84,0,0,0,.53-1.85,9.67,9.67,0,0,0,.14-1.58c0-.13,0-.3,0-.49a4.33,4.33,0,0,0,0-.44Z"/><path class="cls-7" d="M433.13,212.35c-.38.09-.88.19-1.48.3a12.46,12.46,0,0,1-2,.15,4.39,4.39,0,0,1-1.72-.29,2.8,2.8,0,0,1-1.1-.81,3.23,3.23,0,0,1-.6-1.25,6.55,6.55,0,0,1-.18-1.59v-4.77h2v4.46a3.68,3.68,0,0,0,.4,2,1.56,1.56,0,0,0,1.39.58l.76,0a4.18,4.18,0,0,0,.6-.08v-6.89h2Z"/><path class="cls-7" d="M437.77,211.19a2.52,2.52,0,0,0,1.14-.19.66.66,0,0,0,.36-.64.83.83,0,0,0-.39-.7,5,5,0,0,0-1.26-.6,9,9,0,0,1-1-.42,3.39,3.39,0,0,1-.78-.51,2.3,2.3,0,0,1-.51-.71,2.58,2.58,0,0,1-.19-1,2.22,2.22,0,0,1,.87-1.85,3.68,3.68,0,0,1,2.34-.67,6.61,6.61,0,0,1,1.43.14,6.33,6.33,0,0,1,1,.27l-.36,1.59a4.25,4.25,0,0,0-.83-.27,5.07,5.07,0,0,0-1.17-.12,2.13,2.13,0,0,0-1,.2.67.67,0,0,0-.37.63.92.92,0,0,0,.07.38,1,1,0,0,0,.25.3,2.56,2.56,0,0,0,.48.27,5.73,5.73,0,0,0,.71.29,9.41,9.41,0,0,1,1.19.51,3.22,3.22,0,0,1,.81.57,1.93,1.93,0,0,1,.46.73,2.78,2.78,0,0,1,.15,1,2.09,2.09,0,0,1-.91,1.85,4.47,4.47,0,0,1-2.58.63,6.86,6.86,0,0,1-1.81-.19,8.25,8.25,0,0,1-1-.3l.35-1.64a8.69,8.69,0,0,0,1.05.34A5.31,5.31,0,0,0,437.77,211.19Z"/><path class="cls-7" d="M445.91,203.88a5,5,0,0,1,1.65.24,2.61,2.61,0,0,1,1.06.69,2.48,2.48,0,0,1,.57,1.06,5,5,0,0,1,.17,1.38v5.16c-.3.07-.76.15-1.37.24a14.38,14.38,0,0,1-2.08.14,6.13,6.13,0,0,1-1.4-.15,3.13,3.13,0,0,1-1.08-.47,2.24,2.24,0,0,1-.7-.85,2.94,2.94,0,0,1-.25-1.29,2.31,2.31,0,0,1,1-2.06,3.4,3.4,0,0,1,1.14-.45,6.48,6.48,0,0,1,1.34-.14,5.27,5.27,0,0,1,.68,0,6,6,0,0,1,.77.14v-.33a2.75,2.75,0,0,0-.08-.65,1.35,1.35,0,0,0-.29-.54,1.3,1.3,0,0,0-.53-.37,2.32,2.32,0,0,0-.84-.13,7,7,0,0,0-1.26.1,5.84,5.84,0,0,0-.93.22l-.24-1.59a6.5,6.5,0,0,1,1.09-.26A8.31,8.31,0,0,1,445.91,203.88Zm.17,7.34a8,8,0,0,0,1.38-.09v-2.19l-.47-.1a4.93,4.93,0,0,0-.69,0,5.07,5.07,0,0,0-.66,0,2.63,2.63,0,0,0-.6.18,1.11,1.11,0,0,0-.43.37,1,1,0,0,0-.16.6,1,1,0,0,0,.44,1A2.26,2.26,0,0,0,446.08,211.22Z"/><path class="cls-7" d="M459,212.35a10.42,10.42,0,0,1-1.47.32,11.12,11.12,0,0,1-1.86.15,4.87,4.87,0,0,1-1.81-.31,3.66,3.66,0,0,1-1.36-.89,3.78,3.78,0,0,1-.87-1.4,5.36,5.36,0,0,1-.3-1.85,6.18,6.18,0,0,1,.26-1.83,3.8,3.8,0,0,1,.74-1.41,3.21,3.21,0,0,1,1.19-.9,3.85,3.85,0,0,1,1.61-.32,3.64,3.64,0,0,1,1.09.15,4.41,4.41,0,0,1,.81.32v-4.09l2-.32Zm-5.65-4a3.13,3.13,0,0,0,.62,2.05,2.11,2.11,0,0,0,1.71.74,6.34,6.34,0,0,0,.81,0L457,211v-4.89a3.11,3.11,0,0,0-1.61-.49,1.76,1.76,0,0,0-1.57.74A3.5,3.5,0,0,0,453.32,208.32Z"/><path class="cls-7" d="M469.19,208.34a5.38,5.38,0,0,1-.3,1.84,4,4,0,0,1-.83,1.42,3.82,3.82,0,0,1-1.29.91,4.14,4.14,0,0,1-1.67.32,4.06,4.06,0,0,1-1.66-.32,3.82,3.82,0,0,1-1.29-.91,4.18,4.18,0,0,1-.84-1.42,5.38,5.38,0,0,1-.3-1.84,5.32,5.32,0,0,1,.3-1.83,4,4,0,0,1,.85-1.41,3.66,3.66,0,0,1,1.29-.9,4.41,4.41,0,0,1,3.3,0,3.61,3.61,0,0,1,1.3.9,4.28,4.28,0,0,1,.83,1.41A5.09,5.09,0,0,1,469.19,208.34Zm-2,0a3.33,3.33,0,0,0-.55-2,1.93,1.93,0,0,0-3,0,3.26,3.26,0,0,0-.55,2,3.36,3.36,0,0,0,.55,2,1.92,1.92,0,0,0,3,0A3.43,3.43,0,0,0,467.17,208.34Z"/><path class="cls-7" d="M482.72,208.34a5.64,5.64,0,0,1-.29,1.84,4.33,4.33,0,0,1-.83,1.42,3.77,3.77,0,0,1-1.3.91,4.11,4.11,0,0,1-1.67.32,4.06,4.06,0,0,1-1.66-.32,3.82,3.82,0,0,1-1.29-.91,4.53,4.53,0,0,1-.84-1.42,5.38,5.38,0,0,1-.3-1.84,5.32,5.32,0,0,1,.3-1.83,4.32,4.32,0,0,1,.85-1.41,3.8,3.8,0,0,1,1.3-.9,4,4,0,0,1,1.64-.32,4,4,0,0,1,1.65.32,3.61,3.61,0,0,1,1.3.9,4.13,4.13,0,0,1,.84,1.41A5.32,5.32,0,0,1,482.72,208.34Zm-2,0a3.26,3.26,0,0,0-.55-2,1.93,1.93,0,0,0-3,0,3.26,3.26,0,0,0-.55,2,3.36,3.36,0,0,0,.55,2,1.92,1.92,0,0,0,3,0A3.36,3.36,0,0,0,480.7,208.34Z"/><path class="cls-7" d="M490.75,201.6a1.13,1.13,0,0,1-.36.88,1.25,1.25,0,0,1-.85.32,1.27,1.27,0,0,1-.86-.32,1.13,1.13,0,0,1-.36-.88,1.16,1.16,0,0,1,.36-.9,1.23,1.23,0,0,1,.86-.32,1.2,1.2,0,0,1,.85.32A1.16,1.16,0,0,1,490.75,201.6Zm-.21,11h-2v-8.52h2Z"/><path class="cls-7" d="M497.9,208.13a4,4,0,0,0-.34-1.93,1.28,1.28,0,0,0-1.24-.6,6.39,6.39,0,0,0-.72.05l-.58.08v6.88h-2v-8.24a11.5,11.5,0,0,1,1.49-.31,12.24,12.24,0,0,1,2-.15,3.87,3.87,0,0,1,1.44.23,2.71,2.71,0,0,1,.94.6,4,4,0,0,1,.45-.28c.19-.09.4-.18.62-.26a5.19,5.19,0,0,1,.73-.21,3.94,3.94,0,0,1,.77-.08,4.08,4.08,0,0,1,1.64.29,2.43,2.43,0,0,1,1,.79,3.14,3.14,0,0,1,.5,1.24,7.84,7.84,0,0,1,.14,1.59v4.79h-2v-4.48a4.34,4.34,0,0,0-.32-1.93,1.31,1.31,0,0,0-1.26-.6,2.65,2.65,0,0,0-.89.16,2.57,2.57,0,0,0-.64.3,4,4,0,0,1,.18.86c0,.31.05.63.05,1v4.71h-2Z"/><path class="cls-7" d="M514.8,208.36a6,6,0,0,1-.25,1.79,4.31,4.31,0,0,1-.72,1.4,3.31,3.31,0,0,1-1.18.91,3.8,3.8,0,0,1-1.61.33,3.92,3.92,0,0,1-1.11-.15,4.47,4.47,0,0,1-.83-.33v3.31h-2V204.37a13.41,13.41,0,0,1,1.48-.31,11.12,11.12,0,0,1,1.86-.15,4.91,4.91,0,0,1,1.81.31,3.83,3.83,0,0,1,1.36.89,3.89,3.89,0,0,1,.86,1.4A5.36,5.36,0,0,1,514.8,208.36Zm-2,0a3.15,3.15,0,0,0-.59-2,2.32,2.32,0,0,0-1.91-.74l-.58,0a3.13,3.13,0,0,0-.6.1v4.87a3.52,3.52,0,0,0,.7.34,2.73,2.73,0,0,0,.92.15,1.76,1.76,0,0,0,1.57-.73A3.48,3.48,0,0,0,512.78,208.39Z"/><path class="cls-7" d="M524.54,208.34a5.38,5.38,0,0,1-.29,1.84,4.16,4.16,0,0,1-.83,1.42,3.77,3.77,0,0,1-1.3.91,4.49,4.49,0,0,1-3.33,0,3.78,3.78,0,0,1-1.28-.91,4.18,4.18,0,0,1-.84-1.42,5.38,5.38,0,0,1-.3-1.84,5.32,5.32,0,0,1,.3-1.83,4,4,0,0,1,.85-1.41,3.66,3.66,0,0,1,1.29-.9,4,4,0,0,1,1.65-.32,4.11,4.11,0,0,1,1.65.32,3.66,3.66,0,0,1,1.29.9,4.13,4.13,0,0,1,.84,1.41A5.32,5.32,0,0,1,524.54,208.34Zm-2,0a3.33,3.33,0,0,0-.54-2,1.94,1.94,0,0,0-3.05,0,3.33,3.33,0,0,0-.54,2,3.43,3.43,0,0,0,.54,2,1.93,1.93,0,0,0,3.05,0A3.43,3.43,0,0,0,522.52,208.34Z"/><path class="cls-7" d="M531.43,205.86c-.16-.05-.39-.11-.67-.17a5.05,5.05,0,0,0-1-.09,4.48,4.48,0,0,0-.69.07,4.42,4.42,0,0,0-.51.11v6.83h-2V204.5a10.18,10.18,0,0,1,1.42-.4,8.61,8.61,0,0,1,1.9-.19l.46,0,.52.07.5.1.39.1Z"/><path class="cls-7" d="M533,201.84l2-.32v2.57h3v1.64h-3v3.47a2.5,2.5,0,0,0,.32,1.47,1.31,1.31,0,0,0,1.11.44,3.87,3.87,0,0,0,.95-.11,5.58,5.58,0,0,0,.66-.22l.33,1.57q-.35.14-.9.3a5,5,0,0,1-1.3.15,4.14,4.14,0,0,1-1.52-.24,2.16,2.16,0,0,1-1-.71,2.82,2.82,0,0,1-.51-1.12,6.89,6.89,0,0,1-.15-1.51Z"/><path class="cls-7" d="M542.78,203.88a4.92,4.92,0,0,1,1.65.24,2.48,2.48,0,0,1,1.64,1.75,5.43,5.43,0,0,1,.17,1.38v5.16q-.47.1-1.38.24a14.28,14.28,0,0,1-2.08.14,6.13,6.13,0,0,1-1.4-.15,3.13,3.13,0,0,1-1.08-.47,2.24,2.24,0,0,1-.7-.85,2.94,2.94,0,0,1-.25-1.29,2.46,2.46,0,0,1,.28-1.23,2.38,2.38,0,0,1,.78-.83,3.26,3.26,0,0,1,1.13-.45,6.55,6.55,0,0,1,1.34-.14,5.53,5.53,0,0,1,.69,0,6.2,6.2,0,0,1,.76.14v-.33a2.75,2.75,0,0,0-.08-.65A1.24,1.24,0,0,0,544,206a1.3,1.3,0,0,0-.53-.37,2.25,2.25,0,0,0-.84-.13,7,7,0,0,0-1.26.1,5.68,5.68,0,0,0-.92.22l-.25-1.59a6.76,6.76,0,0,1,1.09-.26A8.31,8.31,0,0,1,542.78,203.88Zm.17,7.34a7.84,7.84,0,0,0,1.38-.09v-2.19l-.47-.1a5.63,5.63,0,0,0-1.34,0,2.57,2.57,0,0,0-.61.18,1.11,1.11,0,0,0-.43.37,1,1,0,0,0-.16.6,1,1,0,0,0,.44,1A2.26,2.26,0,0,0,543,211.22Z"/><path class="cls-7" d="M555.85,212.35a10.6,10.6,0,0,1-1.48.32,11.12,11.12,0,0,1-1.86.15,4.87,4.87,0,0,1-1.81-.31,3.74,3.74,0,0,1-2.22-2.29,5.13,5.13,0,0,1-.31-1.85,6.18,6.18,0,0,1,.26-1.83,4,4,0,0,1,.74-1.41,3.21,3.21,0,0,1,1.19-.9,3.85,3.85,0,0,1,1.61-.32,3.59,3.59,0,0,1,1.09.15,4.25,4.25,0,0,1,.82.32v-4.09l2-.32Zm-5.66-4a3.13,3.13,0,0,0,.62,2.05,2.14,2.14,0,0,0,1.71.74,6.24,6.24,0,0,0,.81,0l.55-.09v-4.89a3.06,3.06,0,0,0-.7-.33,2.73,2.73,0,0,0-.92-.16,1.77,1.77,0,0,0-1.57.74A3.5,3.5,0,0,0,550.19,208.32Z"/><path class="cls-7" d="M566.06,208.34a5.38,5.38,0,0,1-.3,1.84,4,4,0,0,1-.83,1.42,3.73,3.73,0,0,1-1.29.91,4.14,4.14,0,0,1-1.67.32,4.06,4.06,0,0,1-1.66-.32,3.82,3.82,0,0,1-1.29-.91,4.18,4.18,0,0,1-.84-1.42,5.38,5.38,0,0,1-.3-1.84,5.32,5.32,0,0,1,.3-1.83,4.15,4.15,0,0,1,.85-1.41,3.76,3.76,0,0,1,1.29-.9,4.41,4.41,0,0,1,3.3,0,3.61,3.61,0,0,1,1.3.9,4.13,4.13,0,0,1,.84,1.41A5.32,5.32,0,0,1,566.06,208.34Zm-2,0a3.26,3.26,0,0,0-.55-2,1.93,1.93,0,0,0-3,0,3.26,3.26,0,0,0-.55,2,3.36,3.36,0,0,0,.55,2,1.92,1.92,0,0,0,3,0A3.36,3.36,0,0,0,564,208.34Z"/><path class="cls-30" d="M299.53,250.5l-.09,16.34a2.11,2.11,0,0,1-1.88,2.05,1.69,1.69,0,0,1-1.87-1.72l.08-14.46L281.37,254a1.69,1.69,0,0,1-1.87-1.72,2.1,2.1,0,0,1,1.89-2l16.28-1.42a1.74,1.74,0,0,1,1.32.44A1.7,1.7,0,0,1,299.53,250.5Z"/><path class="cls-30" d="M307.37,240.16l-.09,16.33a2.11,2.11,0,0,1-1.89,2.05,1.68,1.68,0,0,1-1.86-1.72l.08-14.46-14.4,1.25a1.69,1.69,0,0,1-1.87-1.71,2.11,2.11,0,0,1,1.89-2.05l16.27-1.41a1.71,1.71,0,0,1,1.33.43A1.76,1.76,0,0,1,307.37,240.16Z"/><path class="cls-30" d="M401.81,244.47l-15.92-3.69a2.1,2.1,0,0,1-1.58-2.29,1.69,1.69,0,0,1,2.09-1.44l14.08,3.26L402.43,226a1.69,1.69,0,0,1,2.09-1.44,2.1,2.1,0,0,1,1.58,2.29L403.89,243a1.73,1.73,0,0,1-.71,1.19A1.71,1.71,0,0,1,401.81,244.47Z"/><path class="cls-30" d="M410.17,254.39l-15.91-3.68a2.1,2.1,0,0,1-1.58-2.29,1.67,1.67,0,0,1,2.08-1.44l14.09,3.26,1.95-14.33a1.69,1.69,0,0,1,2.09-1.44,2.11,2.11,0,0,1,1.58,2.29L412.26,253a1.68,1.68,0,0,1-2.09,1.44Z"/></g></svg>